STARTFONT 2.3
FONT -FontForge-STIX Two Math-Book-R-Normal--16-160-72-72-P-110-ISO10646-1
SIZE 16 72 72  2
FONTBOUNDINGBOX 65 69 -16 -26
COMMENT "Generated by fontforge, http://fontforge.sourceforge.net"
COMMENT "Copyright 2001-2021 The STIX Fonts Project Authors (https://github.com/stipub/stixfonts)"
STARTPROPERTIES 41
FOUNDRY "FontForge"
FAMILY_NAME "STIX Two Math"
WEIGHT_NAME "Book"
SLANT "R"
SETWIDTH_NAME "Normal"
ADD_STYLE_NAME ""
PIXEL_SIZE 16
POINT_SIZE 160
RESOLUTION_X 72
RESOLUTION_Y 72
SPACING "P"
AVERAGE_WIDTH 110
CHARSET_REGISTRY "ISO10646"
CHARSET_ENCODING "1"
FONTNAME_REGISTRY ""
CHARSET_COLLECTIONS "ASCII ISOLatin1Encoding ISO8859-2 ISO8859-5 ISO8859-7 ISO8859-9 ISO8859-4 ISO10646-1"
BITS_PER_PIXEL 2
FONT_NAME "STIXTwoMath-Regular"
FACE_NAME "STIX Two Math Regular"
COPYRIGHT "Copyright 2001-2021 The STIX Fonts Project Authors (https://github.com/stipub/stixfonts)"
FONT_VERSION "2.12 b168a"
FONT_ASCENT 12
FONT_DESCENT 4
UNDERLINE_POSITION -2
UNDERLINE_THICKNESS 1
X_HEIGHT 7
CAP_HEIGHT 10
RAW_ASCENT 762
RAW_DESCENT 238
NORM_SPACE 4
RELATIVE_WEIGHT 40
RELATIVE_SETWIDTH 50
SUPERSCRIPT_X 0
SUPERSCRIPT_Y 8
SUPERSCRIPT_SIZE 8
SUBSCRIPT_X 0
SUBSCRIPT_Y 4
SUBSCRIPT_SIZE 8
FIGURE_WIDTH 8
AVG_LOWERCASE_WIDTH 79
AVG_UPPERCASE_WIDTH 108
ENDPROPERTIES
CHARS 6611
STARTCHAR space
ENCODING 32
SWIDTH 235 0
DWIDTH 4 0
BBX 1 1 0 0
BITMAP
00
ENDCHAR
STARTCHAR exclam
ENCODING 33
SWIDTH 283 0
DWIDTH 5 0
BBX 2 11 1 0
BITMAP
70
B0
B0
70
70
60
60
20
00
70
70
ENDCHAR
STARTCHAR quotedbl
ENCODING 34
SWIDTH 334 0
DWIDTH 5 0
BBX 5 3 0 8
BITMAP
7280
3240
2200
ENDCHAR
STARTCHAR numbersign
ENCODING 35
SWIDTH 702 0
DWIDTH 11 0
BBX 10 11 1 0
BITMAP
030600
060600
060900
AFAE90
090C00
080C00
0C0C00
AEAE80
181800
182400
242400
ENDCHAR
STARTCHAR dollar
ENCODING 36
SWIDTH 495 0
DWIDTH 8 0
BBX 8 13 0 -2
BITMAP
1AA4
315C
7148
7940
1F40
07E0
01BC
415D
514D
615C
2FE4
0140
0100
ENDCHAR
STARTCHAR percent
ENCODING 37
SWIDTH 692 0
DWIDTH 11 0
BBX 11 11 0 0
BITMAP
0A8180
24AA40
304200
708900
318800
2A22A0
006614
008D14
014C14
020D20
090780
ENDCHAR
STARTCHAR ampersand
ENCODING 38
SWIDTH 736 0
DWIDTH 12 0
BBX 12 11 0 0
BITMAP
01A400
070C00
070800
071800
03E2F8
06C0A0
28A080
707540
702E00
741F41
2E92E4
ENDCHAR
STARTCHAR quotesingle
ENCODING 39
SWIDTH 187 0
DWIDTH 3 0
BBX 2 3 0 8
BITMAP
70
30
20
ENDCHAR
STARTCHAR parenleft
ENCODING 40
SWIDTH 357 0
DWIDTH 6 0
BBX 5 15 0 -3
BITMAP
0040
0240
0900
1800
2400
3400
7000
7000
7000
3400
3400
2800
0800
0200
0080
ENDCHAR
STARTCHAR parenright
ENCODING 41
SWIDTH 357 0
DWIDTH 6 0
BBX 5 15 0 -3
BITMAP
5000
1400
0900
0300
0240
0280
01C0
01C0
01C0
0180
0280
0340
0600
1800
6000
ENDCHAR
STARTCHAR asterisk
ENCODING 42
SWIDTH 410 0
DWIDTH 7 0
BBX 6 6 0 5
BITMAP
0600
6660
1A90
1A90
6660
0600
ENDCHAR
STARTCHAR plus
ENCODING 43
SWIDTH 720 0
DWIDTH 12 0
BBX 10 11 1 -1
BITMAP
009000
009000
009000
009000
009000
AAFA90
009000
009000
009000
009000
004000
ENDCHAR
STARTCHAR comma
ENCODING 44
SWIDTH 245 0
DWIDTH 4 0
BBX 2 4 1 -2
BITMAP
A0
F0
20
50
ENDCHAR
STARTCHAR hyphen
ENCODING 45
SWIDTH 315 0
DWIDTH 5 0
BBX 5 1 0 4
BITMAP
6A40
ENDCHAR
STARTCHAR period
ENCODING 46
SWIDTH 245 0
DWIDTH 4 0
BBX 2 2 1 0
BITMAP
A0
A0
ENDCHAR
STARTCHAR slash
ENCODING 47
SWIDTH 386 0
DWIDTH 6 0
BBX 6 13 0 -2
BITMAP
0050
0080
0080
0140
0240
0200
0600
0900
0C00
1800
2400
3000
6000
ENDCHAR
STARTCHAR zero
ENCODING 48
SWIDTH 495 0
DWIDTH 8 0
BBX 8 11 0 0
BITMAP
0AA0
2824
341C
701D
B00D
B00D
700D
701D
341C
2828
0AA0
ENDCHAR
STARTCHAR one
ENCODING 49
SWIDTH 495 0
DWIDTH 8 0
BBX 6 11 1 0
BITMAP
1A00
5A00
0A00
0A00
0A00
0A00
0A00
0A00
0A00
0B00
BFE0
ENDCHAR
STARTCHAR two
ENCODING 50
SWIDTH 495 0
DWIDTH 8 0
BBX 8 11 0 0
BITMAP
0AE0
2038
002C
002C
0028
0070
00D0
0240
0901
1819
7FFC
ENDCHAR
STARTCHAR three
ENCODING 51
SWIDTH 495 0
DWIDTH 8 0
BBX 6 11 1 0
BITMAP
2B80
81D0
00D0
00C0
0240
1F80
01E0
0070
0070
5090
BA40
ENDCHAR
STARTCHAR four
ENCODING 52
SWIDTH 495 0
DWIDTH 8 0
BBX 8 11 0 0
BITMAP
0070
00F0
02B0
0570
0870
2470
6070
AAFA
0070
0070
0070
ENDCHAR
STARTCHAR five
ENCODING 53
SWIDTH 495 0
DWIDTH 8 0
BBX 6 11 1 0
BITMAP
2FE0
2540
2000
6000
7E40
16E0
0070
0030
0030
5090
BA40
ENDCHAR
STARTCHAR six
ENCODING 54
SWIDTH 495 0
DWIDTH 8 0
BBX 8 11 0 0
BITMAP
00A4
0740
1D00
2800
36A0
7828
741D
740D
341D
2828
0AA0
ENDCHAR
STARTCHAR seven
ENCODING 55
SWIDTH 495 0
DWIDTH 8 0
BBX 7 10 1 0
BITMAP
BFF4
9570
0060
0090
01C0
0240
0300
0A00
0D00
1C00
ENDCHAR
STARTCHAR eight
ENCODING 56
SWIDTH 495 0
DWIDTH 8 0
BBX 7 11 0 0
BITMAP
0AA0
2428
3418
3824
1E50
07D0
18B4
302C
701C
341C
1AA0
ENDCHAR
STARTCHAR nine
ENCODING 57
SWIDTH 495 0
DWIDTH 8 0
BBX 8 11 0 0
BITMAP
0AA0
3834
701C
701C
701D
382C
0AAC
0028
0074
01D0
1A40
ENDCHAR
STARTCHAR colon
ENCODING 58
SWIDTH 245 0
DWIDTH 4 0
BBX 2 8 1 0
BITMAP
A0
A0
00
00
00
00
A0
A0
ENDCHAR
STARTCHAR semicolon
ENCODING 59
SWIDTH 245 0
DWIDTH 4 0
BBX 2 10 1 -2
BITMAP
A0
A0
00
00
00
00
A0
F0
20
50
ENDCHAR
STARTCHAR less
ENCODING 60
SWIDTH 720 0
DWIDTH 12 0
BBX 10 9 1 0
BITMAP
000050
000690
007900
079000
790000
2E0000
02E000
002E00
0001D0
ENDCHAR
STARTCHAR equal
ENCODING 61
SWIDTH 720 0
DWIDTH 12 0
BBX 10 5 1 2
BITMAP
AAAA90
000000
000000
000000
AAAA90
ENDCHAR
STARTCHAR greater
ENCODING 62
SWIDTH 720 0
DWIDTH 12 0
BBX 9 10 1 -1
BITMAP
400000
780000
0B8000
00B800
000B80
001B40
01A400
1A4000
A40000
400000
ENDCHAR
STARTCHAR question
ENCODING 63
SWIDTH 411 0
DWIDTH 7 0
BBX 6 11 0 0
BITMAP
1A90
60B0
7070
1070
0090
0180
0200
0200
0000
0600
0700
ENDCHAR
STARTCHAR at
ENCODING 64
SWIDTH 905 0
DWIDTH 14 0
BBX 13 14 1 -3
BITMAP
01AA9000
0A406400
28000900
70698700
91C2C240
D281C240
C341C240
C341C240
D341C240
A282C600
70A8A800
28000000
0A401400
01AA9000
ENDCHAR
STARTCHAR A
ENCODING 65
SWIDTH 718 0
DWIDTH 11 0
BBX 12 11 0 0
BITMAP
003400
007800
00AC00
009D00
024F00
030740
060380
0BABD0
1C01E0
2400F4
BD02FD
ENDCHAR
STARTCHAR B
ENCODING 66
SWIDTH 618 0
DWIDTH 10 0
BBX 10 11 0 0
BITMAP
6FBE00
0E0780
0E0380
0E0380
0E0600
0FBD00
0E0780
0E01D0
0E01D0
0E02C0
6FAE00
ENDCHAR
STARTCHAR C
ENCODING 67
SWIDTH 670 0
DWIDTH 11 0
BBX 10 11 0 0
BITMAP
01ABE0
0A00E0
1D0060
380020
380000
740000
380000
380000
2C0000
0B4060
01EA40
ENDCHAR
STARTCHAR D
ENCODING 68
SWIDTH 730 0
DWIDTH 12 0
BBX 11 11 0 0
BITMAP
6FAE40
0E02D0
0E00B4
0E0038
0E0038
0E002C
0E0038
0E0038
0E0074
0E01D0
6FAE40
ENDCHAR
STARTCHAR E
ENCODING 69
SWIDTH 626 0
DWIDTH 10 0
BBX 10 11 0 0
BITMAP
6FABC0
0E0080
0E0040
0E0200
0E0200
0FAE00
0E0200
0E0000
0E0050
0E0090
6FABD0
ENDCHAR
STARTCHAR F
ENCODING 70
SWIDTH 588 0
DWIDTH 9 0
BBX 9 11 0 0
BITMAP
6FABC0
0E0080
0E0040
0E0200
0E0200
0FAE00
0E0200
0E0000
0E0000
0E0000
7F9000
ENDCHAR
STARTCHAR G
ENCODING 71
SWIDTH 720 0
DWIDTH 12 0
BBX 11 11 0 0
BITMAP
01ABE0
0A00E0
1D0060
380020
380000
7402F8
3800B0
3800B0
2C00B0
0E00B0
02EA80
ENDCHAR
STARTCHAR H
ENCODING 72
SWIDTH 777 0
DWIDTH 12 0
BBX 11 11 1 0
BITMAP
BF47F8
2C00E0
2800E0
2800E0
2800E0
2EAAE0
2800E0
2800E0
2800E0
2C00E0
BF47F8
ENDCHAR
STARTCHAR I
ENCODING 73
SWIDTH 357 0
DWIDTH 6 0
BBX 5 11 0 0
BITMAP
7F80
0E00
0E00
0E00
0E00
0E00
0E00
0E00
0E00
0E00
7F80
ENDCHAR
STARTCHAR J
ENCODING 74
SWIDTH 396 0
DWIDTH 6 0
BBX 6 11 0 0
BITMAP
1FE0
0380
0380
0380
0380
0380
0380
0380
0380
E340
BA00
ENDCHAR
STARTCHAR K
ENCODING 75
SWIDTH 702 0
DWIDTH 11 0
BBX 11 11 0 0
BITMAP
7F87F4
0E0280
0E0600
0E1800
0E5000
0FD000
0EB400
0E2D00
0E0B40
0E02D0
7F87FC
ENDCHAR
STARTCHAR L
ENCODING 76
SWIDTH 585 0
DWIDTH 9 0
BBX 9 11 0 0
BITMAP
7FC000
0E0000
0E0000
0E0000
0E0000
0E0000
0E0000
0E0000
0E0080
0E0180
6FAB80
ENDCHAR
STARTCHAR M
ENCODING 77
SWIDTH 895 0
DWIDTH 14 0
BBX 14 11 0 0
BITMAP
7F000BD0
0F400F40
0B801B40
0AD03740
09E06740
08B09740
08748740
08394740
081F0740
0C0E0740
7F092FD0
ENDCHAR
STARTCHAR N
ENCODING 78
SWIDTH 742 0
DWIDTH 12 0
BBX 12 11 0 0
BITMAP
7E01FD
1F4034
0FC020
09E020
08B820
082D20
080F20
0807A0
0801F0
0C00B0
7F0030
ENDCHAR
STARTCHAR O
ENCODING 79
SWIDTH 738 0
DWIDTH 12 0
BBX 10 11 1 0
BITMAP
06A900
280780
7401D0
E000E0
E000B0
E000B0
E000B0
E000E0
B001D0
280380
06A900
ENDCHAR
STARTCHAR P
ENCODING 80
SWIDTH 569 0
DWIDTH 9 0
BBX 9 11 0 0
BITMAP
2FA900
0E0740
0E0380
0E0380
0E0700
0FA400
0E0000
0E0000
0E0000
0E0000
7F8000
ENDCHAR
STARTCHAR Q
ENCODING 81
SWIDTH 737 0
DWIDTH 12 0
BBX 12 14 0 -3
BITMAP
01AA40
0A01E0
1C0074
380038
38002C
78002C
38002C
380038
2C0074
0E00E0
02EA40
001E00
000B90
0001AD
ENDCHAR
STARTCHAR R
ENCODING 82
SWIDTH 659 0
DWIDTH 11 0
BBX 11 11 0 0
BITMAP
2FA900
0E0740
0E0380
0E0380
0E0B00
0FB400
0E2C00
0E1E00
0E0B40
0E03C0
7F81F4
ENDCHAR
STARTCHAR S
ENCODING 83
SWIDTH 504 0
DWIDTH 8 0
BBX 8 11 0 0
BITMAP
1AFC
341C
7408
3800
1F40
07E0
007C
001D
500D
601D
7EA4
ENDCHAR
STARTCHAR T
ENCODING 84
SWIDTH 603 0
DWIDTH 10 0
BBX 10 11 0 0
BITMAP
BAFBD0
90E090
80E050
00E000
00E000
00E000
00E000
00E000
00E000
00E000
07F800
ENDCHAR
STARTCHAR U
ENCODING 85
SWIDTH 752 0
DWIDTH 12 0
BBX 12 11 0 0
BITMAP
BF80FE
1D0024
0D0024
0D0024
0D0024
0D0024
0D0024
0D0024
0E0030
0740A0
01AA40
ENDCHAR
STARTCHAR V
ENCODING 86
SWIDTH 680 0
DWIDTH 11 0
BBX 11 11 0 0
BITMAP
FF01FC
3C0060
1D0090
0E0080
0B4140
038200
02C600
01D900
00E800
007400
003000
ENDCHAR
STARTCHAR W
ENCODING 87
SWIDTH 944 0
DWIDTH 15 0
BBX 15 11 0 0
BITMAP
FE2FD0FC
3C074070
1D038060
0E02C090
0B03D080
0745E180
03887200
01D83600
00F42D00
00B01C00
00600800
ENDCHAR
STARTCHAR X
ENCODING 88
SWIDTH 664 0
DWIDTH 11 0
BBX 11 11 0 0
BITMAP
BF87F4
1F0180
074200
02C900
00E400
00B400
01AC00
020E00
090740
2803C0
BD0BF4
ENDCHAR
STARTCHAR Y
ENCODING 89
SWIDTH 647 0
DWIDTH 10 0
BBX 11 11 0 0
BITMAP
FF03F4
2D00C0
0E0240
074600
02C800
00F400
00B000
00B000
00B000
00B000
02FD00
ENDCHAR
STARTCHAR Z
ENCODING 90
SWIDTH 594 0
DWIDTH 10 0
BBX 9 11 0 0
BITMAP
3EABC0
300B40
201E00
003C00
00B400
01E000
02C000
0B4000
1E0080
2C0180
7EAB80
ENDCHAR
STARTCHAR bracketleft
ENCODING 91
SWIDTH 349 0
DWIDTH 6 0
BBX 4 16 1 -4
BITMAP
7A
A0
A0
A0
A0
A0
A0
A0
A0
A0
A0
A0
A0
A0
A0
BA
ENDCHAR
STARTCHAR backslash
ENCODING 92
SWIDTH 385 0
DWIDTH 6 0
BBX 6 13 0 -2
BITMAP
6000
3000
2400
1800
0C00
0900
0600
0200
0200
0140
0080
0080
0050
ENDCHAR
STARTCHAR bracketright
ENCODING 93
SWIDTH 349 0
DWIDTH 6 0
BBX 3 16 1 -4
BITMAP
AC
0C
0C
0C
0C
0C
0C
0C
0C
0C
0C
0C
0C
0C
0C
AC
ENDCHAR
STARTCHAR asciicircum
ENCODING 94
SWIDTH 480 0
DWIDTH 8 0
BBX 7 6 0 5
BITMAP
0380
06C0
0850
1830
2424
600C
ENDCHAR
STARTCHAR underscore
ENCODING 95
SWIDTH 512 0
DWIDTH 8 0
BBX 8 1 0 -2
BITMAP
AAAA
ENDCHAR
STARTCHAR grave
ENCODING 96
SWIDTH 222 0
DWIDTH 4 0
BBX 3 3 0 9
BITMAP
50
34
08
ENDCHAR
STARTCHAR a
ENCODING 97
SWIDTH 480 0
DWIDTH 8 0
BBX 8 8 0 0
BITMAP
1AD0
3470
2070
01B0
1970
7070
7070
2E79
ENDCHAR
STARTCHAR b
ENCODING 98
SWIDTH 522 0
DWIDTH 8 0
BBX 8 11 0 0
BITMAP
7800
2800
2800
29B4
2C1D
280A
280A
280A
280D
281C
1BA0
ENDCHAR
STARTCHAR c
ENCODING 99
SWIDTH 446 0
DWIDTH 7 0
BBX 7 8 0 0
BITMAP
0AE0
2474
7014
6000
7000
7000
3804
0B90
ENDCHAR
STARTCHAR d
ENCODING 100
SWIDTH 539 0
DWIDTH 9 0
BBX 8 11 0 0
BITMAP
002C
001C
001C
0AAC
282C
301C
701C
701C
701C
381C
1EAE
ENDCHAR
STARTCHAR e
ENCODING 101
SWIDTH 464 0
DWIDTH 7 0
BBX 7 8 0 0
BITMAP
0AD0
2434
7028
7AA8
7000
7000
2804
0BA0
ENDCHAR
STARTCHAR f
ENCODING 102
SWIDTH 307 0
DWIDTH 5 0
BBX 6 11 0 0
BITMAP
06E0
0C50
1C00
7E80
1C00
1C00
1C00
1C00
1C00
1C00
BF40
ENDCHAR
STARTCHAR g
ENCODING 103
SWIDTH 484 0
DWIDTH 8 0
BBX 8 12 0 -4
BITMAP
1AF9
3874
3438
3438
1834
2A90
7400
2FF8
2009
A005
B008
2E90
ENDCHAR
STARTCHAR h
ENCODING 104
SWIDTH 577 0
DWIDTH 9 0
BBX 9 11 0 0
BITMAP
6C0000
1C0000
1C0000
1DB800
1D0D00
1C0A00
1C0A00
1C0A00
1C0A00
1C0A00
7F2F80
ENDCHAR
STARTCHAR i
ENCODING 105
SWIDTH 285 0
DWIDTH 5 0
BBX 4 11 0 0
BITMAP
1C
18
00
6C
1C
1C
1C
1C
1C
1C
7F
ENDCHAR
STARTCHAR j
ENCODING 106
SWIDTH 263 0
DWIDTH 4 0
BBX 5 15 -2 -4
BITMAP
01C0
0180
0000
06C0
01C0
01C0
01C0
01C0
01C0
01C0
01C0
01C0
0180
6280
7A00
ENDCHAR
STARTCHAR k
ENCODING 107
SWIDTH 542 0
DWIDTH 9 0
BBX 9 11 0 0
BITMAP
6C0000
1C0000
1C0000
1C7F00
1C2400
1C9000
1E4000
1DD000
1CB400
1C2D00
7F2F40
ENDCHAR
STARTCHAR l
ENCODING 108
SWIDTH 283 0
DWIDTH 5 0
BBX 4 11 0 0
BITMAP
6C
1C
1C
1C
1C
1C
1C
1C
1C
1C
7F
ENDCHAR
STARTCHAR m
ENCODING 109
SWIDTH 852 0
DWIDTH 14 0
BBX 14 8 0 0
BITMAP
6DB86D00
1D0E0700
1C0A0700
1C0A0700
1C0A0700
1C0A0700
1C0E0740
7F2F9FD0
ENDCHAR
STARTCHAR n
ENCODING 110
SWIDTH 576 0
DWIDTH 9 0
BBX 9 8 0 0
BITMAP
6DB800
1D0D00
1C0A00
1C0A00
1C0A00
1C0A00
1C0A00
7F2F80
ENDCHAR
STARTCHAR o
ENCODING 111
SWIDTH 514 0
DWIDTH 8 0
BBX 8 8 0 0
BITMAP
0AA4
282C
740D
700E
700A
740D
281C
0BA0
ENDCHAR
STARTCHAR p
ENCODING 112
SWIDTH 537 0
DWIDTH 9 0
BBX 8 12 0 -4
BITMAP
69B8
1D0E
1C0B
1C07
1C07
1C0A
1D0D
1EA4
1C00
1C00
2C00
BF40
ENDCHAR
STARTCHAR q
ENCODING 113
SWIDTH 521 0
DWIDTH 8 0
BBX 8 12 0 -4
BITMAP
0AA8
282C
301C
701C
701C
701C
381C
1AAC
001C
001C
001C
00BF
ENDCHAR
STARTCHAR r
ENCODING 114
SWIDTH 380 0
DWIDTH 6 0
BBX 6 8 0 0
BITMAP
6CA0
1E60
1C00
1C00
1C00
1C00
1C00
7F40
ENDCHAR
STARTCHAR s
ENCODING 115
SWIDTH 395 0
DWIDTH 6 0
BBX 6 8 0 0
BITMAP
2A90
7090
7410
2E00
06D0
40A0
60A0
6A90
ENDCHAR
STARTCHAR t
ENCODING 116
SWIDTH 315 0
DWIDTH 5 0
BBX 5 10 0 0
BITMAP
0800
2800
7E40
2800
2800
2800
2800
2800
1C40
0E40
ENDCHAR
STARTCHAR u
ENCODING 117
SWIDTH 570 0
DWIDTH 9 0
BBX 9 8 0 0
BITMAP
782E00
280E00
280A00
280A00
280A00
280A00
1C1E00
0B9A40
ENDCHAR
STARTCHAR v
ENCODING 118
SWIDTH 481 0
DWIDTH 8 0
BBX 8 8 0 0
BITMAP
FC2F
340C
2814
1C20
0E20
0B50
0380
0240
ENDCHAR
STARTCHAR w
ENCODING 119
SWIDTH 749 0
DWIDTH 12 0
BBX 13 8 -1 0
BITMAP
7F2F47C0
0D0B0240
0A074200
070B8500
0389C800
02D4D800
00E0B400
00906000
ENDCHAR
STARTCHAR x
ENCODING 120
SWIDTH 479 0
DWIDTH 8 0
BBX 8 8 0 0
BITMAP
BD3D
2C24
0A50
0780
02C0
08A0
2438
F87E
ENDCHAR
STARTCHAR y
ENCODING 121
SWIDTH 483 0
DWIDTH 8 0
BBX 8 12 0 -4
BITMAP
FD2E
740C
2814
1D20
0A20
0750
03C0
0280
0240
0200
A900
B800
ENDCHAR
STARTCHAR z
ENCODING 122
SWIDTH 458 0
DWIDTH 7 0
BBX 7 8 0 0
BITMAP
7AB8
60B0
01D0
0380
0B00
1D04
2818
7AB8
ENDCHAR
STARTCHAR braceleft
ENCODING 123
SWIDTH 327 0
DWIDTH 5 0
BBX 5 16 0 -4
BITMAP
0640
1C00
1800
1800
1C00
1C00
1C00
6400
6000
1800
1C00
1C00
1800
1800
1C00
0640
ENDCHAR
STARTCHAR bar
ENCODING 124
SWIDTH 267 0
DWIDTH 4 0
BBX 2 15 1 -4
BITMAP
60
60
60
60
60
60
60
60
60
60
60
60
60
60
60
ENDCHAR
STARTCHAR braceright
ENCODING 125
SWIDTH 327 0
DWIDTH 5 0
BBX 5 16 0 -4
BITMAP
6400
0900
0A00
0A00
0A00
0900
0900
0240
0240
0900
0900
0A00
0A00
0A00
0A00
6800
ENDCHAR
STARTCHAR asciitilde
ENCODING 126
SWIDTH 557 0
DWIDTH 9 0
BBX 9 2 0 3
BITMAP
1A5740
606900
ENDCHAR
STARTCHAR uni00A0
ENCODING 160
SWIDTH 235 0
DWIDTH 4 0
BBX 1 1 0 0
BITMAP
00
ENDCHAR
STARTCHAR exclamdown
ENCODING 161
SWIDTH 282 0
DWIDTH 5 0
BBX 2 12 1 -4
BITMAP
70
70
00
20
20
60
60
70
70
B0
B0
70
ENDCHAR
STARTCHAR cent
ENCODING 162
SWIDTH 495 0
DWIDTH 8 0
BBX 7 11 0 0
BITMAP
0080
0080
0AB4
24AC
3084
7180
7140
3540
2E48
07A0
0140
ENDCHAR
STARTCHAR sterling
ENCODING 163
SWIDTH 495 0
DWIDTH 8 0
BBX 8 11 0 0
BITMAP
01B8
061D
0A00
0A00
0A00
2FA0
0B00
0600
0600
6A01
AAA8
ENDCHAR
STARTCHAR currency
ENCODING 164
SWIDTH 617 0
DWIDTH 10 0
BBX 8 9 1 0
BITMAP
8002
AAA9
341C
6009
5009
6008
342C
AAAA
4002
ENDCHAR
STARTCHAR yen
ENCODING 165
SWIDTH 495 0
DWIDTH 8 0
BBX 8 11 0 0
BITMAP
FD2E
780C
2C14
1E20
0B20
0380
2BE8
0280
2BE8
02C0
0BE0
ENDCHAR
STARTCHAR brokenbar
ENCODING 166
SWIDTH 267 0
DWIDTH 4 0
BBX 2 12 1 -1
BITMAP
60
60
60
60
60
00
00
60
60
60
60
60
ENDCHAR
STARTCHAR section
ENCODING 167
SWIDTH 491 0
DWIDTH 8 0
BBX 6 15 1 -4
BITMAP
1A80
6090
6090
3400
1E00
1B80
91D0
90A0
7460
2D80
0B40
02C0
90C0
90C0
2A40
ENDCHAR
STARTCHAR dieresis
ENCODING 168
SWIDTH 392 0
DWIDTH 6 0
BBX 6 2 0 9
BITMAP
6090
70A0
ENDCHAR
STARTCHAR copyright
ENCODING 169
SWIDTH 781 0
DWIDTH 13 0
BBX 11 12 1 0
BITMAP
019900
180180
200060
81AA20
860214
8A0008
8A0008
874114
81A820
200020
180180
01A900
ENDCHAR
STARTCHAR ordfeminine
ENCODING 170
SWIDTH 410 0
DWIDTH 7 0
BBX 6 6 0 4
BITMAP
2680
30D0
05D0
24D0
70D0
39A0
ENDCHAR
STARTCHAR guillemotleft
ENCODING 171
SWIDTH 517 0
DWIDTH 8 0
BBX 8 7 0 0
BITMAP
0209
0824
34A0
74E0
1824
0608
0100
ENDCHAR
STARTCHAR logicalnot
ENCODING 172
SWIDTH 720 0
DWIDTH 12 0
BBX 10 6 1 1
BITMAP
AAAAD0
0000D0
0000D0
0000D0
0000D0
000040
ENDCHAR
STARTCHAR uni00AD
ENCODING 173
SWIDTH 315 0
DWIDTH 5 0
BBX 5 1 0 4
BITMAP
6A40
ENDCHAR
STARTCHAR registered
ENCODING 174
SWIDTH 413 0
DWIDTH 7 0
BBX 6 6 0 6
BITMAP
0540
1950
4A50
4950
1890
0540
ENDCHAR
STARTCHAR macron
ENCODING 175
SWIDTH 350 0
DWIDTH 6 0
BBX 5 1 0 9
BITMAP
6A80
ENDCHAR
STARTCHAR degree
ENCODING 176
SWIDTH 409 0
DWIDTH 7 0
BBX 5 5 1 6
BITMAP
6A00
C240
8180
C240
6A00
ENDCHAR
STARTCHAR plusminus
ENCODING 177
SWIDTH 720 0
DWIDTH 12 0
BBX 10 10 1 0
BITMAP
009000
009000
009000
AAEA90
009000
009000
009000
009000
000000
AAAA90
ENDCHAR
STARTCHAR twosuperior
ENCODING 178
SWIDTH 373 0
DWIDTH 6 0
BBX 6 7 0 4
BITMAP
2F80
41D0
00C0
0140
0500
2410
7FD0
ENDCHAR
STARTCHAR threesuperior
ENCODING 179
SWIDTH 374 0
DWIDTH 6 0
BBX 6 7 0 4
BITMAP
2F80
0180
0B40
01D0
0090
00C0
7A40
ENDCHAR
STARTCHAR acute
ENCODING 180
SWIDTH 222 0
DWIDTH 4 0
BBX 3 3 0 9
BITMAP
14
34
60
ENDCHAR
STARTCHAR uni00B5
ENCODING 181
SWIDTH 556 0
DWIDTH 9 0
BBX 9 12 0 -4
BITMAP
280D00
280C00
241C00
241800
201800
242800
385C00
3A8A40
300000
700000
700000
100000
ENDCHAR
STARTCHAR paragraph
ENCODING 182
SWIDTH 605 0
DWIDTH 10 0
BBX 8 14 1 -3
BITMAP
2BBD
A364
D364
D364
D364
6364
1B64
0364
0364
0364
0364
0364
0769
0515
ENDCHAR
STARTCHAR periodcentered
ENCODING 183
SWIDTH 282 0
DWIDTH 5 0
BBX 2 2 1 3
BITMAP
70
70
ENDCHAR
STARTCHAR cedilla
ENCODING 184
SWIDTH 247 0
DWIDTH 4 0
BBX 4 4 0 -4
BITMAP
10
28
09
68
ENDCHAR
STARTCHAR onesuperior
ENCODING 185
SWIDTH 343 0
DWIDTH 5 0
BBX 4 7 1 4
BITMAP
B4
24
24
24
24
24
79
ENDCHAR
STARTCHAR ordmasculine
ENCODING 186
SWIDTH 432 0
DWIDTH 7 0
BBX 7 6 0 4
BITMAP
1A90
7030
6034
6034
7030
1A90
ENDCHAR
STARTCHAR guillemotright
ENCODING 187
SWIDTH 517 0
DWIDTH 8 0
BBX 7 7 1 0
BITMAP
8140
6090
1834
1D28
34A0
9180
4100
ENDCHAR
STARTCHAR onequarter
ENCODING 188
SWIDTH 861 0
DWIDTH 14 0
BBX 14 12 0 0
BITMAP
18002400
5D002000
0D009000
0D018000
0D020000
0D050340
0D080B40
2A542740
00205340
0090EB90
01800340
02000200
ENDCHAR
STARTCHAR onehalf
ENCODING 189
SWIDTH 889 0
DWIDTH 14 0
BBX 13 13 1 -1
BITMAP
00005000
B4008000
34014000
34020000
34090000
34086E00
34244340
A9600340
00800700
01400800
02006080
0500EA40
04000000
ENDCHAR
STARTCHAR threequarters
ENCODING 190
SWIDTH 861 0
DWIDTH 14 0
BBX 14 12 0 0
BITMAP
1A402400
51C02000
02409000
0B418000
01C20100
00D50740
10C80F40
6A142740
00205340
0090EB90
01800340
02000200
ENDCHAR
STARTCHAR questiondown
ENCODING 191
SWIDTH 411 0
DWIDTH 7 0
BBX 6 12 0 -4
BITMAP
0700
0700
0000
0200
0600
0800
2800
3400
7020
7070
7430
1E90
ENDCHAR
STARTCHAR Agrave
ENCODING 192
SWIDTH 718 0
DWIDTH 11 0
BBX 12 14 0 0
BITMAP
00B000
001800
000000
003400
007800
00AC00
009D00
024F00
030740
060380
0BABD0
1C01E0
2400F4
BD02FD
ENDCHAR
STARTCHAR Aacute
ENCODING 193
SWIDTH 718 0
DWIDTH 11 0
BBX 12 14 0 0
BITMAP
002D00
006000
000000
003400
007800
00AC00
009D00
024F00
030740
060380
0BABD0
1C01E0
2400F4
BD02FD
ENDCHAR
STARTCHAR Acircumflex
ENCODING 194
SWIDTH 718 0
DWIDTH 11 0
BBX 12 15 0 0
BITMAP
001400
00AC00
018600
000000
003400
007800
00AC00
009D00
024F00
030740
060380
0BABD0
1C01E0
2400F4
BD02FD
ENDCHAR
STARTCHAR Atilde
ENCODING 195
SWIDTH 718 0
DWIDTH 11 0
BBX 12 14 0 0
BITMAP
01A540
011A00
000000
003400
007800
00AC00
009D00
024F00
030740
060380
0BABD0
1C01E0
2400F4
BD02FD
ENDCHAR
STARTCHAR Adieresis
ENCODING 196
SWIDTH 718 0
DWIDTH 11 0
BBX 12 14 0 0
BITMAP
024600
028700
000000
003400
007800
00AC00
009D00
024F00
030740
060380
0BABD0
1C01E0
2400F4
BD02FD
ENDCHAR
STARTCHAR Aring
ENCODING 197
SWIDTH 718 0
DWIDTH 11 0
BBX 12 14 0 0
BITMAP
006800
008900
006800
003400
007800
00AC00
009D00
024F00
030740
060380
0BABD0
1C01E0
2400F4
BD02FD
ENDCHAR
STARTCHAR AE
ENCODING 198
SWIDTH 894 0
DWIDTH 14 0
BBX 15 11 -1 0
BITMAP
001BEAF4
000AC024
0019C014
0021C000
0051C080
00ABEBC0
0181C080
0201C040
0501C004
0C01C018
7F0BEAF4
ENDCHAR
STARTCHAR Ccedilla
ENCODING 199
SWIDTH 670 0
DWIDTH 11 0
BBX 10 15 0 -4
BITMAP
01ABE0
0A00E0
1D0060
380020
380000
740000
380000
380000
2C0000
0B4060
01EA40
001000
002800
000900
006800
ENDCHAR
STARTCHAR Egrave
ENCODING 200
SWIDTH 626 0
DWIDTH 10 0
BBX 10 14 0 0
BITMAP
01D000
002400
000000
6FABC0
0E0080
0E0040
0E0200
0E0200
0FAE00
0E0200
0E0000
0E0050
0E0090
6FABD0
ENDCHAR
STARTCHAR Eacute
ENCODING 201
SWIDTH 626 0
DWIDTH 10 0
BBX 10 14 0 0
BITMAP
007800
009000
000000
6FABC0
0E0080
0E0040
0E0200
0E0200
0FAE00
0E0200
0E0000
0E0050
0E0090
6FABD0
ENDCHAR
STARTCHAR Ecircumflex
ENCODING 202
SWIDTH 626 0
DWIDTH 10 0
BBX 10 15 0 0
BITMAP
005000
01F400
020800
000000
6FABC0
0E0080
0E0040
0E0200
0E0200
0FAE00
0E0200
0E0000
0E0050
0E0090
6FABD0
ENDCHAR
STARTCHAR Edieresis
ENCODING 203
SWIDTH 626 0
DWIDTH 10 0
BBX 10 14 0 0
BITMAP
060900
070A00
000000
6FABC0
0E0080
0E0040
0E0200
0E0200
0FAE00
0E0200
0E0000
0E0050
0E0090
6FABD0
ENDCHAR
STARTCHAR Igrave
ENCODING 204
SWIDTH 357 0
DWIDTH 6 0
BBX 5 14 0 0
BITMAP
2D00
0600
0000
7F80
0E00
0E00
0E00
0E00
0E00
0E00
0E00
0E00
0E00
7F80
ENDCHAR
STARTCHAR Iacute
ENCODING 205
SWIDTH 357 0
DWIDTH 6 0
BBX 5 14 0 0
BITMAP
0740
1800
0000
7F80
0E00
0E00
0E00
0E00
0E00
0E00
0E00
0E00
0E00
7F80
ENDCHAR
STARTCHAR Icircumflex
ENCODING 206
SWIDTH 357 0
DWIDTH 6 0
BBX 5 15 0 0
BITMAP
0500
1B40
2080
0000
7F80
0E00
0E00
0E00
0E00
0E00
0E00
0E00
0E00
0E00
7F80
ENDCHAR
STARTCHAR Idieresis
ENCODING 207
SWIDTH 357 0
DWIDTH 6 0
BBX 6 14 0 0
BITMAP
6090
A0D0
0000
7F80
0E00
0E00
0E00
0E00
0E00
0E00
0E00
0E00
0E00
7F80
ENDCHAR
STARTCHAR Eth
ENCODING 208
SWIDTH 737 0
DWIDTH 12 0
BBX 11 11 0 0
BITMAP
6FAE40
0E02E0
0A00B4
0A0038
0A003C
6FA42C
0A003C
0A0038
0A0074
0E01E0
6FAE40
ENDCHAR
STARTCHAR Ntilde
ENCODING 209
SWIDTH 742 0
DWIDTH 12 0
BBX 12 14 0 0
BITMAP
00A540
010A00
000000
7E01FD
1F4034
0FC020
09E020
08B820
082D20
080F20
0807A0
0801F0
0C00B0
7F0030
ENDCHAR
STARTCHAR Ograve
ENCODING 210
SWIDTH 738 0
DWIDTH 12 0
BBX 10 14 1 0
BITMAP
02D000
006000
000000
06A900
280780
7401D0
E000E0
E000B0
E000B0
E000B0
E000E0
B001D0
280380
06A900
ENDCHAR
STARTCHAR Oacute
ENCODING 211
SWIDTH 738 0
DWIDTH 12 0
BBX 10 14 1 0
BITMAP
007400
018000
000000
06A900
280780
7401D0
E000E0
E000B0
E000B0
E000B0
E000E0
B001D0
280380
06A900
ENDCHAR
STARTCHAR Ocircumflex
ENCODING 212
SWIDTH 738 0
DWIDTH 12 0
BBX 10 15 1 0
BITMAP
005000
01F400
020800
000000
06A900
280780
7401D0
E000E0
E000B0
E000B0
E000B0
E000E0
B001D0
280380
06A900
ENDCHAR
STARTCHAR Otilde
ENCODING 213
SWIDTH 738 0
DWIDTH 12 0
BBX 10 14 1 0
BITMAP
029500
046800
000000
06A900
280780
7401D0
E000E0
E000B0
E000B0
E000B0
E000E0
B001D0
280380
06A900
ENDCHAR
STARTCHAR Odieresis
ENCODING 214
SWIDTH 738 0
DWIDTH 12 0
BBX 10 14 1 0
BITMAP
060900
0A0D00
000000
06A900
280780
7401D0
E000E0
E000B0
E000B0
E000B0
E000E0
B001D0
280380
06A900
ENDCHAR
STARTCHAR multiply
ENCODING 215
SWIDTH 720 0
DWIDTH 12 0
BBX 9 10 1 -1
BITMAP
500040
740280
1D0A00
076800
01F000
02F400
0A1D00
280740
6001C0
000040
ENDCHAR
STARTCHAR Oslash
ENCODING 216
SWIDTH 737 0
DWIDTH 12 0
BBX 11 11 0 0
BITMAP
01AA60
0A01E0
2C01B4
380238
38082C
78202C
38502C
394038
2E0074
0E00E0
25AA40
ENDCHAR
STARTCHAR Ugrave
ENCODING 217
SWIDTH 752 0
DWIDTH 12 0
BBX 12 14 0 0
BITMAP
003800
000A00
000000
BF80FE
1D0024
0D0024
0D0024
0D0024
0D0024
0D0024
0D0024
0E0030
0740A0
01AA40
ENDCHAR
STARTCHAR Uacute
ENCODING 218
SWIDTH 752 0
DWIDTH 12 0
BBX 12 14 0 0
BITMAP
000A00
002400
000000
BF80FE
1D0024
0D0024
0D0024
0D0024
0D0024
0D0024
0D0024
0E0030
0740A0
01AA40
ENDCHAR
STARTCHAR Ucircumflex
ENCODING 219
SWIDTH 752 0
DWIDTH 12 0
BBX 12 15 0 0
BITMAP
001400
003A00
009240
000000
BF80FE
1D0024
0D0024
0D0024
0D0024
0D0024
0D0024
0D0024
0E0030
0740A0
01AA40
ENDCHAR
STARTCHAR Udieresis
ENCODING 220
SWIDTH 752 0
DWIDTH 12 0
BBX 12 14 0 0
BITMAP
009180
00D280
000000
BF80FE
1D0024
0D0024
0D0024
0D0024
0D0024
0D0024
0D0024
0E0030
0740A0
01AA40
ENDCHAR
STARTCHAR Yacute
ENCODING 221
SWIDTH 647 0
DWIDTH 10 0
BBX 11 14 0 0
BITMAP
002800
009000
000000
FF03F4
2D00C0
0E0240
074600
02C800
00F400
00B000
00B000
00B000
00B000
02FD00
ENDCHAR
STARTCHAR Thorn
ENCODING 222
SWIDTH 572 0
DWIDTH 9 0
BBX 9 11 0 0
BITMAP
7FD000
0E0000
0FA900
0E0B40
0E0380
0E0380
0E0B00
0FA800
0E0000
0E0000
7FD000
ENDCHAR
STARTCHAR germandbls
ENCODING 223
SWIDTH 563 0
DWIDTH 9 0
BBX 9 11 0 0
BITMAP
06A800
0C0D00
1C0D00
7C6400
1C6400
1C0E00
1C0740
1C0340
1C0340
1DC700
7CA900
ENDCHAR
STARTCHAR agrave
ENCODING 224
SWIDTH 480 0
DWIDTH 8 0
BBX 8 12 0 0
BITMAP
0500
0700
0240
0000
1AD0
3470
2070
01B0
1970
7070
7070
2E79
ENDCHAR
STARTCHAR aacute
ENCODING 225
SWIDTH 480 0
DWIDTH 8 0
BBX 8 12 0 0
BITMAP
0090
0180
0200
0000
1AD0
3470
2070
01B0
1970
7070
7070
2E79
ENDCHAR
STARTCHAR acircumflex
ENCODING 226
SWIDTH 480 0
DWIDTH 8 0
BBX 8 12 0 0
BITMAP
0140
0A80
1860
0000
1AD0
3470
2070
01B0
1970
7070
7070
2E79
ENDCHAR
STARTCHAR atilde
ENCODING 227
SWIDTH 480 0
DWIDTH 8 0
BBX 8 11 0 0
BITMAP
1A54
11A0
0000
1AD0
3470
2070
01B0
1970
7070
7070
2E79
ENDCHAR
STARTCHAR adieresis
ENCODING 228
SWIDTH 480 0
DWIDTH 8 0
BBX 8 11 0 0
BITMAP
2860
2870
0000
1AD0
3470
2070
01B0
1970
7070
7070
2E79
ENDCHAR
STARTCHAR aring
ENCODING 229
SWIDTH 480 0
DWIDTH 8 0
BBX 8 13 0 0
BITMAP
0680
0890
0890
0680
0000
1AD0
3470
2070
01B0
1970
7070
7070
2E79
ENDCHAR
STARTCHAR ae
ENCODING 230
SWIDTH 709 0
DWIDTH 11 0
BBX 11 8 0 0
BITMAP
1A9AD0
34B474
207028
01BAB8
197000
707400
707804
2E5BA0
ENDCHAR
STARTCHAR ccedilla
ENCODING 231
SWIDTH 446 0
DWIDTH 7 0
BBX 7 12 0 -4
BITMAP
0AE0
2474
7014
6000
7000
7000
3804
1BA0
0100
0290
0090
0680
ENDCHAR
STARTCHAR egrave
ENCODING 232
SWIDTH 464 0
DWIDTH 7 0
BBX 7 12 0 0
BITMAP
0500
0700
0180
0000
0AD0
2434
7028
7AA8
7000
7000
2804
0BA0
ENDCHAR
STARTCHAR eacute
ENCODING 233
SWIDTH 464 0
DWIDTH 7 0
BBX 7 12 0 0
BITMAP
0050
01C0
0200
0000
0AD0
2434
7028
7AA8
7000
7000
2804
0BA0
ENDCHAR
STARTCHAR ecircumflex
ENCODING 234
SWIDTH 464 0
DWIDTH 7 0
BBX 7 12 0 0
BITMAP
0140
06C0
0820
0000
0AD0
2434
7028
7AA8
7000
7000
2804
0BA0
ENDCHAR
STARTCHAR edieresis
ENCODING 235
SWIDTH 464 0
DWIDTH 7 0
BBX 7 11 0 0
BITMAP
1824
2834
0000
0AD0
2434
7028
7AA8
7000
7000
2804
0BA0
ENDCHAR
STARTCHAR igrave
ENCODING 236
SWIDTH 285 0
DWIDTH 5 0
BBX 4 12 0 0
BITMAP
50
74
18
00
6C
1C
1C
1C
1C
1C
1C
7F
ENDCHAR
STARTCHAR iacute
ENCODING 237
SWIDTH 285 0
DWIDTH 5 0
BBX 4 12 0 0
BITMAP
05
1D
24
00
6C
1C
1C
1C
1C
1C
1C
7F
ENDCHAR
STARTCHAR icircumflex
ENCODING 238
SWIDTH 285 0
DWIDTH 5 0
BBX 4 11 0 0
BITMAP
28
96
41
6C
1C
1C
1C
1C
1C
1C
7F
ENDCHAR
STARTCHAR idieresis
ENCODING 239
SWIDTH 285 0
DWIDTH 5 0
BBX 6 11 -1 0
BITMAP
74D0
6090
0000
1B00
0700
0700
0700
0700
0700
0700
1FC0
ENDCHAR
STARTCHAR eth
ENCODING 240
SWIDTH 532 0
DWIDTH 9 0
BBX 8 11 0 0
BITMAP
1B95
01B8
011C
0AAD
281E
740E
700E
700E
740D
281C
0BA0
ENDCHAR
STARTCHAR ntilde
ENCODING 241
SWIDTH 576 0
DWIDTH 9 0
BBX 9 11 0 0
BITMAP
029500
046800
000000
6DB800
1D0D00
1C0A00
1C0A00
1C0A00
1C0A00
1C0A00
7F2F80
ENDCHAR
STARTCHAR ograve
ENCODING 242
SWIDTH 514 0
DWIDTH 8 0
BBX 8 12 0 0
BITMAP
0500
0340
0080
0000
0AA4
282C
740D
700E
700A
740D
281C
0BA0
ENDCHAR
STARTCHAR oacute
ENCODING 243
SWIDTH 514 0
DWIDTH 8 0
BBX 8 12 0 0
BITMAP
0050
00D0
0140
0000
0AA4
282C
740D
700E
700A
740D
281C
0BA0
ENDCHAR
STARTCHAR ocircumflex
ENCODING 244
SWIDTH 514 0
DWIDTH 8 0
BBX 8 12 0 0
BITMAP
0140
0390
0820
0000
0AA4
282C
740D
700E
700A
740D
281C
0BA0
ENDCHAR
STARTCHAR otilde
ENCODING 245
SWIDTH 514 0
DWIDTH 8 0
BBX 8 11 0 0
BITMAP
0A54
04A4
0000
0AA4
282C
740D
700E
700A
740D
281C
0BA0
ENDCHAR
STARTCHAR odieresis
ENCODING 246
SWIDTH 514 0
DWIDTH 8 0
BBX 8 11 0 0
BITMAP
1824
1C28
0000
0AA4
282C
740D
700E
700A
740D
281C
0BA0
ENDCHAR
STARTCHAR divide
ENCODING 247
SWIDTH 720 0
DWIDTH 12 0
BBX 10 9 1 0
BITMAP
009000
00D000
000000
000000
AAAA90
000000
000000
009000
00D000
ENDCHAR
STARTCHAR oslash
ENCODING 248
SWIDTH 514 0
DWIDTH 8 0
BBX 8 8 0 0
BITMAP
0AA8
282C
745D
718E
720A
780D
281C
5AA4
ENDCHAR
STARTCHAR ugrave
ENCODING 249
SWIDTH 570 0
DWIDTH 9 0
BBX 9 12 0 0
BITMAP
020000
028000
008000
000000
782E00
280E00
280A00
280A00
280A00
280A00
1C1E00
0B9A40
ENDCHAR
STARTCHAR uacute
ENCODING 250
SWIDTH 570 0
DWIDTH 9 0
BBX 9 12 0 0
BITMAP
005000
00A000
018000
000000
782E00
280E00
280A00
280A00
280A00
280A00
1C1E00
0B9A40
ENDCHAR
STARTCHAR ucircumflex
ENCODING 251
SWIDTH 570 0
DWIDTH 9 0
BBX 9 12 0 0
BITMAP
004000
02A000
051400
000000
782E00
280E00
280A00
280A00
280A00
280A00
1C1E00
0B9A40
ENDCHAR
STARTCHAR udieresis
ENCODING 252
SWIDTH 570 0
DWIDTH 9 0
BBX 9 11 0 0
BITMAP
091800
0D2800
000000
782E00
280E00
280A00
280A00
280A00
280A00
1C1E00
0B9A40
ENDCHAR
STARTCHAR yacute
ENCODING 253
SWIDTH 483 0
DWIDTH 8 0
BBX 8 16 0 -4
BITMAP
0050
00D0
0140
0000
FD2E
740C
2814
1D20
0A20
0750
03C0
0280
0240
0200
A900
B800
ENDCHAR
STARTCHAR thorn
ENCODING 254
SWIDTH 524 0
DWIDTH 8 0
BBX 8 15 0 -4
BITMAP
6800
2800
2800
29B4
2C1D
280A
280A
280A
280E
2C1C
2EA0
2800
2800
2800
BE00
ENDCHAR
STARTCHAR ydieresis
ENCODING 255
SWIDTH 483 0
DWIDTH 8 0
BBX 8 15 0 -4
BITMAP
1824
1C28
0000
FD2E
740C
2814
1D20
0A20
0750
03C0
0280
0240
0200
A900
B800
ENDCHAR
STARTCHAR Amacron
ENCODING 256
SWIDTH 718 0
DWIDTH 11 0
BBX 12 13 0 0
BITMAP
02AA00
000000
003400
007800
00AC00
009D00
024F00
030740
060380
0BABD0
1C01E0
2400F4
BD02FD
ENDCHAR
STARTCHAR amacron
ENCODING 257
SWIDTH 480 0
DWIDTH 8 0
BBX 8 10 0 0
BITMAP
1AA0
0000
1AD0
3470
2070
01B0
1970
7070
7070
2E79
ENDCHAR
STARTCHAR Abreve
ENCODING 258
SWIDTH 718 0
DWIDTH 11 0
BBX 12 15 0 0
BITMAP
010100
014200
00A800
000000
003400
007800
00AC00
009D00
024F00
030740
060380
0BABD0
1C01E0
2400F4
BD02FD
ENDCHAR
STARTCHAR abreve
ENCODING 259
SWIDTH 480 0
DWIDTH 8 0
BBX 8 12 0 0
BITMAP
1010
1420
0A80
0000
1AD0
3470
2070
01B0
1970
7070
7070
2E79
ENDCHAR
STARTCHAR Aogonek
ENCODING 260
SWIDTH 719 0
DWIDTH 12 0
BBX 12 15 0 -4
BITMAP
003400
007800
00AC00
009E00
024F00
030740
060380
0BABD0
1C01E0
2400F4
BD00FD
000500
000800
001800
000E40
ENDCHAR
STARTCHAR aogonek
ENCODING 261
SWIDTH 480 0
DWIDTH 8 0
BBX 8 12 0 -4
BITMAP
1AD0
3470
2070
01B0
1970
7070
7070
2E7D
0024
0060
0090
0079
ENDCHAR
STARTCHAR Cacute
ENCODING 262
SWIDTH 670 0
DWIDTH 11 0
BBX 10 14 0 0
BITMAP
001D00
002400
000000
01ABE0
0A00E0
1D0060
380020
380000
740000
380000
380000
2C0000
0B4060
01EA40
ENDCHAR
STARTCHAR cacute
ENCODING 263
SWIDTH 446 0
DWIDTH 7 0
BBX 7 12 0 0
BITMAP
0050
01C0
0200
0000
0AE0
2474
7014
6000
7000
7000
3804
0B90
ENDCHAR
STARTCHAR Ccircumflex
ENCODING 264
SWIDTH 670 0
DWIDTH 11 0
BBX 10 15 0 0
BITMAP
001400
007D00
008200
000000
01ABE0
0A00E0
1D0060
380020
380000
740000
380000
380000
2C0000
0B4060
01EA40
ENDCHAR
STARTCHAR ccircumflex
ENCODING 265
SWIDTH 446 0
DWIDTH 7 0
BBX 7 12 0 0
BITMAP
0140
06C0
0820
0000
0AE0
2474
7014
6000
7000
7000
3804
0B90
ENDCHAR
STARTCHAR Cdotaccent
ENCODING 266
SWIDTH 670 0
DWIDTH 11 0
BBX 10 14 0 0
BITMAP
002800
002800
000000
01ABE0
0A00E0
1D0060
380020
380000
740000
380000
380000
2C0000
0B4060
01EA40
ENDCHAR
STARTCHAR cdotaccent
ENCODING 267
SWIDTH 446 0
DWIDTH 7 0
BBX 7 11 0 0
BITMAP
0240
0380
0000
0AE0
2474
7014
6000
7000
7000
3804
0B90
ENDCHAR
STARTCHAR Ccaron
ENCODING 268
SWIDTH 670 0
DWIDTH 11 0
BBX 10 15 0 0
BITMAP
004100
00A600
003C00
000000
01ABE0
0A00E0
1D0060
380020
380000
740000
380000
380000
2C0000
0B4060
01EA40
ENDCHAR
STARTCHAR ccaron
ENCODING 269
SWIDTH 446 0
DWIDTH 7 0
BBX 7 12 0 0
BITMAP
0410
0990
0380
0000
0AE0
2474
7014
6000
7000
7000
3804
0B90
ENDCHAR
STARTCHAR Dcaron
ENCODING 270
SWIDTH 730 0
DWIDTH 12 0
BBX 11 15 0 0
BITMAP
010100
019800
007400
000000
6FAE40
0E02D0
0E00B4
0E0038
0E0038
0E002C
0E0038
0E0038
0E0074
0E01D0
6FAE40
ENDCHAR
STARTCHAR dcaron
ENCODING 271
SWIDTH 626 0
DWIDTH 10 0
BBX 10 12 0 0
BITMAP
0000A0
002C90
001C80
001C00
0AAC00
282C00
301C00
701C00
701C00
701C00
381C00
1EAE00
ENDCHAR
STARTCHAR Dcroat
ENCODING 272
SWIDTH 733 0
DWIDTH 12 0
BBX 11 11 0 0
BITMAP
6FAE40
0E02D0
0E00B4
0E0078
0E0038
6FA43C
0E0038
0E0038
0E0074
0E01D0
6FAE40
ENDCHAR
STARTCHAR dcroat
ENCODING 273
SWIDTH 540 0
DWIDTH 9 0
BBX 8 11 0 0
BITMAP
002C
01AE
001C
0AAC
282C
301C
701C
701C
701C
381C
1EAE
ENDCHAR
STARTCHAR Emacron
ENCODING 274
SWIDTH 626 0
DWIDTH 10 0
BBX 10 13 0 0
BITMAP
06A900
000000
6FABC0
0E0080
0E0040
0E0200
0E0200
0FAE00
0E0200
0E0000
0E0050
0E0090
6FABD0
ENDCHAR
STARTCHAR emacron
ENCODING 275
SWIDTH 464 0
DWIDTH 7 0
BBX 7 10 0 0
BITMAP
1AA0
0000
0AD0
2434
7028
7AA8
7000
7000
2804
0BA0
ENDCHAR
STARTCHAR Ebreve
ENCODING 276
SWIDTH 626 0
DWIDTH 10 0
BBX 10 15 0 0
BITMAP
010100
020900
01A400
000000
6FABC0
0E0080
0E0040
0E0200
0E0200
0FAE00
0E0200
0E0000
0E0050
0E0090
6FABD0
ENDCHAR
STARTCHAR ebreve
ENCODING 277
SWIDTH 464 0
DWIDTH 7 0
BBX 7 12 0 0
BITMAP
1010
1420
0690
0000
0AD0
2434
7028
7AA8
7000
7000
2804
0BA0
ENDCHAR
STARTCHAR Edotaccent
ENCODING 278
SWIDTH 626 0
DWIDTH 10 0
BBX 10 14 0 0
BITMAP
006000
00A000
000000
6FABC0
0E0080
0E0040
0E0200
0E0200
0FAE00
0E0200
0E0000
0E0050
0E0090
6FABD0
ENDCHAR
STARTCHAR edotaccent
ENCODING 279
SWIDTH 464 0
DWIDTH 7 0
BBX 7 11 0 0
BITMAP
0240
0280
0000
0AD0
2434
7028
7AA8
7000
7000
2804
0BA0
ENDCHAR
STARTCHAR Eogonek
ENCODING 280
SWIDTH 625 0
DWIDTH 10 0
BBX 10 15 0 -4
BITMAP
6FABC0
0E0080
0E0040
0E0200
0E0200
0FAE00
0E0200
0E0000
0E0010
0E0090
6FABD0
000200
000900
000D00
000B80
ENDCHAR
STARTCHAR eogonek
ENCODING 281
SWIDTH 464 0
DWIDTH 7 0
BBX 7 12 0 -4
BITMAP
0AD0
2434
7028
7AA8
7000
7000
2808
0BB4
0180
0300
0700
0290
ENDCHAR
STARTCHAR Ecaron
ENCODING 282
SWIDTH 626 0
DWIDTH 10 0
BBX 10 15 0 0
BITMAP
010400
029800
00B000
000000
6FABC0
0E0080
0E0040
0E0200
0E0200
0FAE00
0E0200
0E0000
0E0050
0E0090
6FABD0
ENDCHAR
STARTCHAR ecaron
ENCODING 283
SWIDTH 464 0
DWIDTH 7 0
BBX 7 12 0 0
BITMAP
0410
0990
0380
0000
0AD0
2434
7028
7AA8
7000
7000
2804
0BA0
ENDCHAR
STARTCHAR Gcircumflex
ENCODING 284
SWIDTH 720 0
DWIDTH 12 0
BBX 11 15 0 0
BITMAP
001400
007D00
008200
000000
01ABE0
0A00E0
1D0060
380020
380000
7402F8
3800B0
3800B0
2C00B0
0E00B0
02EA80
ENDCHAR
STARTCHAR gcircumflex
ENCODING 285
SWIDTH 484 0
DWIDTH 8 0
BBX 8 16 0 -4
BITMAP
0140
06C0
0820
0000
1AF9
3874
3438
3438
1834
2A90
7400
2FF8
2009
A005
B008
2E90
ENDCHAR
STARTCHAR Gbreve
ENCODING 286
SWIDTH 720 0
DWIDTH 12 0
BBX 11 15 0 0
BITMAP
010040
008200
006900
000000
01ABE0
0A00E0
1D0060
380020
380000
7402F8
3800B0
3800B0
2C00B0
0E00B0
02EA80
ENDCHAR
STARTCHAR gbreve
ENCODING 287
SWIDTH 484 0
DWIDTH 8 0
BBX 8 16 0 -4
BITMAP
1010
1420
0690
0000
1AF9
3874
3438
3438
1834
2A90
7400
2FF8
2009
A005
B008
2E90
ENDCHAR
STARTCHAR Gdotaccent
ENCODING 288
SWIDTH 720 0
DWIDTH 12 0
BBX 11 14 0 0
BITMAP
002800
002800
000000
01ABE0
0A00E0
1D0060
380020
380000
7402F8
3800B0
3800B0
2C00B0
0E00B0
02EA80
ENDCHAR
STARTCHAR gdotaccent
ENCODING 289
SWIDTH 484 0
DWIDTH 8 0
BBX 8 15 0 -4
BITMAP
0240
0280
0000
1AF9
3874
3438
3438
1834
2A90
7400
2FF8
2009
A005
B008
2E90
ENDCHAR
STARTCHAR Gcommaaccent
ENCODING 290
SWIDTH 720 0
DWIDTH 12 0
BBX 11 16 0 -5
BITMAP
01ABE0
0A00E0
1D0060
380020
380000
7402F8
3800B0
3800B0
2C00B0
0E00B0
02EA80
000000
002400
003800
000800
002000
ENDCHAR
STARTCHAR gcommaaccent
ENCODING 291
SWIDTH 484 0
DWIDTH 8 0
BBX 8 17 0 -4
BITMAP
0040
0200
0780
0380
0000
1AF9
3874
3438
3438
1834
2A90
7400
2FF8
2009
A005
B008
2E90
ENDCHAR
STARTCHAR Hcircumflex
ENCODING 292
SWIDTH 777 0
DWIDTH 12 0
BBX 12 15 0 0
BITMAP
001400
003A00
009240
000000
7F82FE
0E0074
0E0034
0E0034
0E0034
0FAAB4
0E0034
0E0034
0E0034
0E0074
7F82FE
ENDCHAR
STARTCHAR hcircumflex
ENCODING 293
SWIDTH 577 0
DWIDTH 9 0
BBX 9 16 0 0
BITMAP
014000
03A000
092400
000000
000000
6C0000
1C0000
1C0000
1DB800
1D0D00
1C0A00
1C0A00
1C0A00
1C0A00
1C0A00
7F2F80
ENDCHAR
STARTCHAR Hbar
ENCODING 294
SWIDTH 788 0
DWIDTH 13 0
BBX 12 11 0 0
BITMAP
7FD1FE
0E0078
0A0034
6FAABE
0A0034
0BAAB4
0A0034
0A0034
0A0034
0E0074
7F91FE
ENDCHAR
STARTCHAR hbar
ENCODING 295
SWIDTH 579 0
DWIDTH 9 0
BBX 9 11 0 0
BITMAP
6C0000
7E9000
1C0000
1DB800
1D0E00
1C0A00
1C0A00
1C0A00
1C0A00
1C0A00
7F2F80
ENDCHAR
STARTCHAR Itilde
ENCODING 296
SWIDTH 357 0
DWIDTH 6 0
BBX 6 14 0 0
BITMAP
2950
4680
0000
7F80
0E00
0E00
0E00
0E00
0E00
0E00
0E00
0E00
0E00
7F80
ENDCHAR
STARTCHAR itilde
ENCODING 297
SWIDTH 285 0
DWIDTH 5 0
BBX 5 11 0 0
BITMAP
A540
4A00
0000
6C00
1C00
1C00
1C00
1C00
1C00
1C00
7F00
ENDCHAR
STARTCHAR Imacron
ENCODING 298
SWIDTH 357 0
DWIDTH 6 0
BBX 5 13 0 0
BITMAP
6A80
0000
7F80
0E00
0E00
0E00
0E00
0E00
0E00
0E00
0E00
0E00
7F80
ENDCHAR
STARTCHAR imacron
ENCODING 299
SWIDTH 285 0
DWIDTH 5 0
BBX 4 10 0 0
BITMAP
AA
00
6C
1C
1C
1C
1C
1C
1C
7F
ENDCHAR
STARTCHAR Ibreve
ENCODING 300
SWIDTH 357 0
DWIDTH 6 0
BBX 5 15 0 0
BITMAP
4040
5080
1A40
0000
7F80
0E00
0E00
0E00
0E00
0E00
0E00
0E00
0E00
0E00
7F80
ENDCHAR
STARTCHAR ibreve
ENCODING 301
SWIDTH 285 0
DWIDTH 5 0
BBX 4 11 0 0
BITMAP
82
69
00
6C
1C
1C
1C
1C
1C
1C
7F
ENDCHAR
STARTCHAR Iogonek
ENCODING 302
SWIDTH 357 0
DWIDTH 6 0
BBX 5 15 0 -4
BITMAP
7F80
0E00
0E00
0E00
0E00
0E00
0E00
0E00
0E00
0E00
7F80
0900
1800
2800
1E40
ENDCHAR
STARTCHAR iogonek
ENCODING 303
SWIDTH 285 0
DWIDTH 5 0
BBX 4 15 0 -4
BITMAP
1C
18
00
6C
1C
1C
1C
1C
1C
1C
7F
18
30
70
29
ENDCHAR
STARTCHAR Idotaccent
ENCODING 304
SWIDTH 357 0
DWIDTH 6 0
BBX 5 14 0 0
BITMAP
0900
0A00
0000
7F80
0E00
0E00
0E00
0E00
0E00
0E00
0E00
0E00
0E00
7F80
ENDCHAR
STARTCHAR dotlessi
ENCODING 305
SWIDTH 285 0
DWIDTH 5 0
BBX 4 8 0 0
BITMAP
6C
1C
1C
1C
1C
1C
1C
7F
ENDCHAR
STARTCHAR IJ
ENCODING 306
SWIDTH 753 0
DWIDTH 12 0
BBX 12 11 0 0
BITMAP
7F82FE
0E0074
0E0074
0E0074
0E0074
0E0074
0E0074
0E0074
0E0074
0E1D70
7F8B90
ENDCHAR
STARTCHAR ij
ENCODING 307
SWIDTH 548 0
DWIDTH 9 0
BBX 8 15 0 -4
BITMAP
1C0E
1809
0000
6C2D
1C0D
1C0D
1C0D
1C0D
1C0D
1C0D
7F0D
000D
000D
024C
02E4
ENDCHAR
STARTCHAR Jcircumflex
ENCODING 308
SWIDTH 396 0
DWIDTH 6 0
BBX 6 15 0 0
BITMAP
0140
06C0
1860
0000
1FE0
0380
0380
0380
0380
0380
0380
0380
0380
E340
BA00
ENDCHAR
STARTCHAR jcircumflex
ENCODING 309
SWIDTH 263 0
DWIDTH 4 0
BBX 6 16 -2 -4
BITMAP
0140
0790
0820
0000
06C0
01C0
01C0
01C0
01C0
01C0
01C0
01C0
01C0
0180
6280
7A00
ENDCHAR
STARTCHAR Kcommaaccent
ENCODING 310
SWIDTH 702 0
DWIDTH 11 0
BBX 11 16 0 -5
BITMAP
7F87F4
0E0280
0E0600
0E1800
0E5000
0FD000
0EB400
0E2D00
0E0B40
0E02D0
7F87FC
000000
002400
007800
001800
002000
ENDCHAR
STARTCHAR kcommaaccent
ENCODING 311
SWIDTH 542 0
DWIDTH 9 0
BBX 9 16 0 -5
BITMAP
6C0000
1C0000
1C0000
1C7F00
1C2400
1C9000
1E4000
1DD000
1CB400
1C2D00
7F2F40
000000
018000
01D000
005000
014000
ENDCHAR
STARTCHAR kgreenlandic
ENCODING 312
SWIDTH 542 0
DWIDTH 9 0
BBX 9 8 0 0
BITMAP
6C3F00
1C2400
1C9000
1E4000
1ED000
1CB400
1C2D00
7F2F80
ENDCHAR
STARTCHAR Lacute
ENCODING 313
SWIDTH 585 0
DWIDTH 9 0
BBX 9 14 0 0
BITMAP
028000
090000
000000
7FC000
0E0000
0E0000
0E0000
0E0000
0E0000
0E0000
0E0000
0E0080
0E0180
6FAB80
ENDCHAR
STARTCHAR lacute
ENCODING 314
SWIDTH 283 0
DWIDTH 5 0
BBX 4 15 0 0
BITMAP
0A
24
00
00
6C
1C
1C
1C
1C
1C
1C
1C
1C
1C
7F
ENDCHAR
STARTCHAR Lcommaaccent
ENCODING 315
SWIDTH 585 0
DWIDTH 9 0
BBX 9 16 0 -5
BITMAP
7FC000
0E0000
0E0000
0E0000
0E0000
0E0000
0E0000
0E0000
0E0080
0E0180
6FAB80
000000
009000
01E000
006000
008000
ENDCHAR
STARTCHAR lcommaaccent
ENCODING 316
SWIDTH 283 0
DWIDTH 5 0
BBX 4 16 0 -5
BITMAP
6C
1C
1C
1C
1C
1C
1C
1C
1C
1C
7F
00
18
2D
08
14
ENDCHAR
STARTCHAR Lcaron
ENCODING 317
SWIDTH 585 0
DWIDTH 9 0
BBX 9 11 0 0
BITMAP
7FC700
0E0700
0E0500
0E0000
0E0000
0E0000
0E0000
0E0000
0E0080
0E0180
6FAB80
ENDCHAR
STARTCHAR lcaron
ENCODING 318
SWIDTH 366 0
DWIDTH 6 0
BBX 6 12 0 0
BITMAP
0090
6CD0
1C80
1C00
1C00
1C00
1C00
1C00
1C00
1C00
1C00
7F00
ENDCHAR
STARTCHAR Ldot
ENCODING 319
SWIDTH 605 0
DWIDTH 10 0
BBX 9 11 0 0
BITMAP
7FC000
0E0000
0E0000
0E0000
0E0240
0E0340
0E0000
0E0000
0E0080
0E0180
6FAB80
ENDCHAR
STARTCHAR ldot
ENCODING 320
SWIDTH 357 0
DWIDTH 6 0
BBX 6 11 0 0
BITMAP
6C00
1C00
1C00
1C00
1C60
1CA0
1C00
1C00
1C00
1C00
7F00
ENDCHAR
STARTCHAR Lslash
ENCODING 321
SWIDTH 590 0
DWIDTH 9 0
BBX 9 11 0 0
BITMAP
7FD000
0E0000
0A0000
0A1400
0A9000
0E0000
6E0000
0A0000
0A0080
0E01C0
2FAB80
ENDCHAR
STARTCHAR lslash
ENCODING 322
SWIDTH 290 0
DWIDTH 5 0
BBX 5 11 0 0
BITMAP
6C00
1C00
1C00
1C00
1E00
2C00
5C00
1C00
1C00
1C00
7F40
ENDCHAR
STARTCHAR Nacute
ENCODING 323
SWIDTH 742 0
DWIDTH 12 0
BBX 12 14 0 0
BITMAP
001E00
002400
000000
7E01FD
1F4034
0FC020
09E020
08B820
082D20
080F20
0807A0
0801F0
0C00B0
7F0030
ENDCHAR
STARTCHAR nacute
ENCODING 324
SWIDTH 576 0
DWIDTH 9 0
BBX 9 12 0 0
BITMAP
001400
007000
008000
000000
6DB800
1D0D00
1C0A00
1C0A00
1C0A00
1C0A00
1C0A00
7F2F80
ENDCHAR
STARTCHAR Ncommaaccent
ENCODING 325
SWIDTH 742 0
DWIDTH 12 0
BBX 12 16 0 -5
BITMAP
7E01FD
1F4034
0FC020
09E020
08B820
082D20
080F20
0807A0
0801F0
0C00B0
7F0030
000000
002400
003800
000800
002000
ENDCHAR
STARTCHAR ncommaaccent
ENCODING 326
SWIDTH 576 0
DWIDTH 9 0
BBX 9 13 0 -5
BITMAP
6DB800
1D0D00
1C0A00
1C0A00
1C0A00
1C0A00
1C0A00
7F2F80
000000
019000
01E000
005000
014000
ENDCHAR
STARTCHAR Ncaron
ENCODING 327
SWIDTH 742 0
DWIDTH 12 0
BBX 12 15 0 0
BITMAP
004100
00A600
002C00
000000
7E01FD
1F4034
0FC020
09E020
08B820
082D20
080F20
0807A0
0801F0
0C00B0
7F0030
ENDCHAR
STARTCHAR ncaron
ENCODING 328
SWIDTH 576 0
DWIDTH 9 0
BBX 9 12 0 0
BITMAP
010400
026400
00E000
000000
6DB800
1D0D00
1C0A00
1C0A00
1C0A00
1C0A00
1C0A00
7F2F80
ENDCHAR
STARTCHAR napostrophe
ENCODING 329
SWIDTH 576 0
DWIDTH 9 0
BBX 12 11 -3 0
BITMAP
740000
780000
180000
21B6E0
007434
007028
007028
007028
007028
007028
01FCBE
ENDCHAR
STARTCHAR Eng
ENCODING 330
SWIDTH 742 0
DWIDTH 12 0
BBX 12 15 0 -4
BITMAP
7E01FD
1F4034
0FC020
09E020
08B420
083D20
081F20
0807A0
0802F0
0C00F0
7F0070
000020
000020
001860
001F80
ENDCHAR
STARTCHAR eng
ENCODING 331
SWIDTH 559 0
DWIDTH 9 0
BBX 8 12 0 -4
BITMAP
6DB8
1D0D
1C0A
1C0A
1C0A
1C0A
1C0A
7F0A
000A
000A
0289
01E4
ENDCHAR
STARTCHAR Omacron
ENCODING 332
SWIDTH 738 0
DWIDTH 12 0
BBX 10 13 1 0
BITMAP
06A900
000000
06A900
280780
7401D0
E000E0
E000B0
E000B0
E000B0
E000E0
B001D0
280380
06A900
ENDCHAR
STARTCHAR omacron
ENCODING 333
SWIDTH 514 0
DWIDTH 8 0
BBX 8 10 0 0
BITMAP
0AA4
0000
0AA4
282C
740D
700E
700A
740D
281C
0BA0
ENDCHAR
STARTCHAR Obreve
ENCODING 334
SWIDTH 738 0
DWIDTH 12 0
BBX 10 15 1 0
BITMAP
040400
060800
01A400
000000
06A900
280780
7401D0
E000E0
E000B0
E000B0
E000B0
E000E0
B001D0
280380
06A900
ENDCHAR
STARTCHAR obreve
ENCODING 335
SWIDTH 514 0
DWIDTH 8 0
BBX 8 12 0 0
BITMAP
0404
0814
0690
0000
0AA4
282C
740D
700E
700A
740D
281C
0BA0
ENDCHAR
STARTCHAR Ohungarumlaut
ENCODING 336
SWIDTH 738 0
DWIDTH 12 0
BBX 10 14 1 0
BITMAP
00AB00
015800
000000
06A900
280780
7401D0
E000E0
E000B0
E000B0
E000B0
E000E0
B001D0
280380
06A900
ENDCHAR
STARTCHAR ohungarumlaut
ENCODING 337
SWIDTH 514 0
DWIDTH 8 0
BBX 8 12 0 0
BITMAP
019C
0268
0220
0000
0AA4
282C
740D
700E
700A
740D
281C
0BA0
ENDCHAR
STARTCHAR OE
ENCODING 338
SWIDTH 945 0
DWIDTH 15 0
BBX 15 11 0 0
BITMAP
01AFEAF0
0A02C020
1C02C010
3802C080
3802C080
7802EBC0
3802C080
3802C000
2C02C008
0A02C024
01AFEAF4
ENDCHAR
STARTCHAR oe
ENCODING 339
SWIDTH 807 0
DWIDTH 13 0
BBX 13 8 0 0
BITMAP
0AA1A800
282A0A00
740E0700
700FAB40
700D0000
740E0000
281F4140
0BA5E900
ENDCHAR
STARTCHAR Racute
ENCODING 340
SWIDTH 659 0
DWIDTH 11 0
BBX 11 14 0 0
BITMAP
007400
019000
000000
2FA900
0E0740
0E0380
0E0380
0E0B00
0FB400
0E2C00
0E1E00
0E0B40
0E03C0
7F81F4
ENDCHAR
STARTCHAR racute
ENCODING 341
SWIDTH 380 0
DWIDTH 6 0
BBX 6 12 0 0
BITMAP
0140
0340
0500
0000
6CA0
1E60
1C00
1C00
1C00
1C00
1C00
7F40
ENDCHAR
STARTCHAR Rcommaaccent
ENCODING 342
SWIDTH 659 0
DWIDTH 11 0
BBX 11 16 0 -5
BITMAP
2FA900
0E0740
0E0380
0E0380
0E0B00
0FB400
0E2C00
0E1E00
0E0B40
0E03C0
7F81F4
000000
006000
00B400
002400
005000
ENDCHAR
STARTCHAR rcommaaccent
ENCODING 343
SWIDTH 380 0
DWIDTH 6 0
BBX 6 13 0 -5
BITMAP
6CA0
1E60
1C00
1C00
1C00
1C00
1C00
7F40
0000
1900
1E00
0500
1400
ENDCHAR
STARTCHAR Rcaron
ENCODING 344
SWIDTH 659 0
DWIDTH 11 0
BBX 11 15 0 0
BITMAP
010400
025800
00F000
000000
2FA900
0E0740
0E0380
0E0380
0E0B00
0FB400
0E2C00
0E1E00
0E0B40
0E03C0
7F81F4
ENDCHAR
STARTCHAR rcaron
ENCODING 345
SWIDTH 380 0
DWIDTH 6 0
BBX 6 12 0 0
BITMAP
1040
1980
0B00
0000
6CA0
1E60
1C00
1C00
1C00
1C00
1C00
7F40
ENDCHAR
STARTCHAR Sacute
ENCODING 346
SWIDTH 504 0
DWIDTH 8 0
BBX 8 14 0 0
BITMAP
01D0
0240
0000
1AFC
341C
7408
3800
1F40
07E0
007C
001D
500D
601D
7EA4
ENDCHAR
STARTCHAR sacute
ENCODING 347
SWIDTH 394 0
DWIDTH 6 0
BBX 6 12 0 0
BITMAP
0140
0340
0500
0000
2A90
7090
7410
2E00
06D0
40A0
60A0
6A90
ENDCHAR
STARTCHAR Scircumflex
ENCODING 348
SWIDTH 504 0
DWIDTH 8 0
BBX 8 15 0 0
BITMAP
0140
07D0
0820
0000
1AFC
341C
7408
3800
1F40
07E0
007C
001D
500D
601D
7EA4
ENDCHAR
STARTCHAR scircumflex
ENCODING 349
SWIDTH 394 0
DWIDTH 6 0
BBX 6 12 0 0
BITMAP
0500
0E40
2480
0000
2A90
7090
7410
2E00
06D0
40A0
60A0
6A90
ENDCHAR
STARTCHAR uni015E
ENCODING 350
SWIDTH 504 0
DWIDTH 8 0
BBX 8 15 0 -4
BITMAP
1AFC
341C
7408
3800
1F40
07E0
007C
001D
500D
601D
7EA4
0100
0280
0090
0680
ENDCHAR
STARTCHAR uni015F
ENCODING 351
SWIDTH 394 0
DWIDTH 6 0
BBX 6 12 0 -4
BITMAP
2A90
7090
7410
2E00
06D0
40A0
60A0
6A90
0400
0640
0180
0A40
ENDCHAR
STARTCHAR Scaron
ENCODING 352
SWIDTH 504 0
DWIDTH 8 0
BBX 8 15 0 0
BITMAP
0410
0A60
02C0
0000
1AFC
341C
7408
3800
1F40
07E0
007C
001D
500D
601D
7EA4
ENDCHAR
STARTCHAR scaron
ENCODING 353
SWIDTH 394 0
DWIDTH 6 0
BBX 6 12 0 0
BITMAP
1040
1980
0B00
0000
2A90
7090
7410
2E00
06D0
40A0
60A0
6A90
ENDCHAR
STARTCHAR uni0162
ENCODING 354
SWIDTH 603 0
DWIDTH 10 0
BBX 10 15 0 -4
BITMAP
BAFBD0
90E090
80E050
00E000
00E000
00E000
00E000
00E000
00E000
00E000
07F800
004000
00A000
002400
01A000
ENDCHAR
STARTCHAR uni0163
ENCODING 355
SWIDTH 315 0
DWIDTH 5 0
BBX 5 14 0 -4
BITMAP
0800
2800
7E40
2800
2800
2800
2800
2800
1C40
0E40
0400
0A40
0180
0A00
ENDCHAR
STARTCHAR Tcaron
ENCODING 356
SWIDTH 603 0
DWIDTH 10 0
BBX 10 15 0 0
BITMAP
050400
026400
00E000
000000
BAFBD0
90E090
80E050
00E000
00E000
00E000
00E000
00E000
00E000
00E000
07F800
ENDCHAR
STARTCHAR tcaron
ENCODING 357
SWIDTH 353 0
DWIDTH 6 0
BBX 6 12 0 0
BITMAP
00D0
00D0
0880
2800
7E40
2800
2800
2800
2800
2800
1C40
0E40
ENDCHAR
STARTCHAR Tbar
ENCODING 358
SWIDTH 603 0
DWIDTH 10 0
BBX 10 11 0 0
BITMAP
BAFBD0
90E090
80E050
00E000
00E000
0AF900
00E000
00E000
00E000
00E000
07F800
ENDCHAR
STARTCHAR tbar
ENCODING 359
SWIDTH 328 0
DWIDTH 5 0
BBX 5 10 0 0
BITMAP
0800
1C00
7E40
1C00
7E40
1C00
1C00
1C00
1C40
0E40
ENDCHAR
STARTCHAR Utilde
ENCODING 360
SWIDTH 752 0
DWIDTH 12 0
BBX 12 14 0 0
BITMAP
006940
004A40
000000
BF80FE
1D0024
0D0024
0D0024
0D0024
0D0024
0D0024
0D0024
0E0030
0740A0
01AA40
ENDCHAR
STARTCHAR utilde
ENCODING 361
SWIDTH 570 0
DWIDTH 9 0
BBX 9 11 0 0
BITMAP
069800
04A400
000000
782E00
280E00
280A00
280A00
280A00
280A00
1C1E00
0B9A40
ENDCHAR
STARTCHAR Umacron
ENCODING 362
SWIDTH 752 0
DWIDTH 12 0
BBX 12 13 0 0
BITMAP
00AA80
000000
BF80FE
1D0024
0D0024
0D0024
0D0024
0D0024
0D0024
0D0024
0E0030
0740A0
01AA40
ENDCHAR
STARTCHAR umacron
ENCODING 363
SWIDTH 570 0
DWIDTH 9 0
BBX 9 10 0 0
BITMAP
0AA800
000000
782E00
280E00
280A00
280A00
280A00
280A00
1C1E00
0B9A40
ENDCHAR
STARTCHAR Ubreve
ENCODING 364
SWIDTH 752 0
DWIDTH 12 0
BBX 12 15 0 0
BITMAP
004040
008140
002A00
000000
BF80FE
1D0024
0D0024
0D0024
0D0024
0D0024
0D0024
0D0024
0E0030
0740A0
01AA40
ENDCHAR
STARTCHAR ubreve
ENCODING 365
SWIDTH 570 0
DWIDTH 9 0
BBX 9 12 0 0
BITMAP
040400
081400
02A000
000000
782E00
280E00
280A00
280A00
280A00
280A00
1C1E00
0B9A40
ENDCHAR
STARTCHAR Uring
ENCODING 366
SWIDTH 752 0
DWIDTH 12 0
BBX 12 14 0 0
BITMAP
002900
006200
002900
BF80FE
1D0024
0D0024
0D0024
0D0024
0D0024
0D0024
0D0024
0E0030
0740A0
01AA40
ENDCHAR
STARTCHAR uring
ENCODING 367
SWIDTH 570 0
DWIDTH 9 0
BBX 9 13 0 0
BITMAP
019000
022000
022000
019000
000000
782E00
280E00
280A00
280A00
280A00
280A00
1C1E00
0B9A40
ENDCHAR
STARTCHAR Uhungarumlaut
ENCODING 368
SWIDTH 752 0
DWIDTH 12 0
BBX 12 14 0 0
BITMAP
001DD0
002240
000000
BF80FE
1D0024
0D0024
0D0024
0D0024
0D0024
0D0024
0D0024
0E0030
0740A0
01AA40
ENDCHAR
STARTCHAR uhungarumlaut
ENCODING 369
SWIDTH 570 0
DWIDTH 9 0
BBX 9 12 0 0
BITMAP
01DD00
029800
022000
000000
782E00
280E00
280A00
280A00
280A00
280A00
1C1E00
0B9A40
ENDCHAR
STARTCHAR Uogonek
ENCODING 370
SWIDTH 753 0
DWIDTH 12 0
BBX 12 15 0 -4
BITMAP
BF80FE
1D0024
0D0024
0D0024
0D0024
0D0024
0D0024
0D0024
0E0030
0740A0
01ABD0
000A00
001800
002400
001E40
ENDCHAR
STARTCHAR uogonek
ENCODING 371
SWIDTH 570 0
DWIDTH 9 0
BBX 9 12 0 -4
BITMAP
782E00
280E00
280A00
280A00
280A00
280A00
1C1E00
0B9B40
001800
003000
007000
002900
ENDCHAR
STARTCHAR Wcircumflex
ENCODING 372
SWIDTH 944 0
DWIDTH 15 0
BBX 15 15 0 0
BITMAP
00050000
000E8000
00249000
00000000
FE2FD0FC
3C074070
1D038060
0E02C090
0B03D080
0745E180
03887200
01D83600
00F42D00
00B01C00
00600800
ENDCHAR
STARTCHAR wcircumflex
ENCODING 373
SWIDTH 749 0
DWIDTH 12 0
BBX 13 12 -1 0
BITMAP
00050000
001A4000
00208000
00000000
7F2F47C0
0D0B0240
0A074200
070B8500
0389C800
02D4D800
00E0B400
00906000
ENDCHAR
STARTCHAR Ycircumflex
ENCODING 374
SWIDTH 647 0
DWIDTH 10 0
BBX 11 15 0 0
BITMAP
002000
00A800
024500
000000
FF03F4
2D00C0
0E0240
074600
02C800
00F400
00B000
00B000
00B000
00B000
02FD00
ENDCHAR
STARTCHAR ycircumflex
ENCODING 375
SWIDTH 483 0
DWIDTH 8 0
BBX 8 16 0 -4
BITMAP
0140
0390
0820
0000
FD2E
740C
2814
1D20
0A20
0750
03C0
0280
0240
0200
A900
B800
ENDCHAR
STARTCHAR Ydieresis
ENCODING 376
SWIDTH 647 0
DWIDTH 10 0
BBX 11 14 0 0
BITMAP
024600
034700
000000
FF03F4
2D00C0
0E0240
074600
02C800
00F400
00B000
00B000
00B000
00B000
02FD00
ENDCHAR
STARTCHAR Zacute
ENCODING 377
SWIDTH 594 0
DWIDTH 10 0
BBX 9 14 0 0
BITMAP
007400
009000
000000
3EABC0
300B40
201E00
003C00
00B400
01E000
02C000
0B4000
1E0080
2C0180
7EAB80
ENDCHAR
STARTCHAR zacute
ENCODING 378
SWIDTH 458 0
DWIDTH 7 0
BBX 7 12 0 0
BITMAP
0050
01C0
0200
0000
7AB8
60B0
01D0
0380
0B00
1D04
2818
7AB8
ENDCHAR
STARTCHAR Zdotaccent
ENCODING 379
SWIDTH 594 0
DWIDTH 10 0
BBX 9 14 0 0
BITMAP
00A000
00A000
000000
3EABC0
300B40
201E00
003C00
00B400
01E000
02C000
0B4000
1E0080
2C0180
7EAB80
ENDCHAR
STARTCHAR zdotaccent
ENCODING 380
SWIDTH 458 0
DWIDTH 7 0
BBX 7 11 0 0
BITMAP
0240
0380
0000
7AB8
60B0
01D0
0380
0B00
1D04
2818
7AB8
ENDCHAR
STARTCHAR Zcaron
ENCODING 381
SWIDTH 594 0
DWIDTH 10 0
BBX 9 15 0 0
BITMAP
010400
025800
00F000
000000
3EABC0
300B40
201E00
003C00
00B400
01E000
02C000
0B4000
1E0080
2C0180
7EAB80
ENDCHAR
STARTCHAR zcaron
ENCODING 382
SWIDTH 458 0
DWIDTH 7 0
BBX 7 12 0 0
BITMAP
0410
0990
0380
0000
7AB8
60B0
01D0
0380
0B00
1D04
2818
7AB8
ENDCHAR
STARTCHAR longs
ENCODING 383
SWIDTH 285 0
DWIDTH 5 0
BBX 6 11 0 0
BITMAP
06E0
0C50
1C00
7C00
1C00
1C00
1C00
1C00
1C00
1C00
BF40
ENDCHAR
STARTCHAR uni0180
ENCODING 384
SWIDTH 522 0
DWIDTH 8 0
BBX 8 11 0 0
BITMAP
6800
BEA0
2800
29B4
2C1D
280A
280A
280A
280D
281C
1BA0
ENDCHAR
STARTCHAR uni0188
ENCODING 392
SWIDTH 446 0
DWIDTH 7 0
BBX 9 11 0 0
BITMAP
000B40
002140
002000
0AF000
247400
701400
600000
700000
700000
380400
0B9000
ENDCHAR
STARTCHAR uni0190
ENCODING 400
SWIDTH 518 0
DWIDTH 8 0
BBX 8 11 0 0
BITMAP
0AB8
381D
3409
3400
1D00
07E0
2800
7400
7400
3805
1BA4
ENDCHAR
STARTCHAR uni0192
ENCODING 402
SWIDTH 301 0
DWIDTH 5 0
BBX 8 15 -2 -4
BITMAP
006E
01C5
01C0
07E8
01C0
01C0
01C0
01C0
01C0
01C0
01C0
01C0
0180
6280
2E00
ENDCHAR
STARTCHAR uni0195
ENCODING 405
SWIDTH 798 0
DWIDTH 13 0
BBX 12 11 0 0
BITMAP
6C0000
1C0000
1C0000
1DB80D
1D0D0A
1C0A03
1C0A02
1C0A02
1C0A02
1C0A05
7F02A4
ENDCHAR
STARTCHAR uni0199
ENCODING 409
SWIDTH 538 0
DWIDTH 9 0
BBX 9 11 0 0
BITMAP
06F400
0C1400
1C0000
1C7E00
1C2400
1C8000
1F4000
1ED000
1CB000
2C2C00
7E2F40
ENDCHAR
STARTCHAR uni019A
ENCODING 410
SWIDTH 287 0
DWIDTH 5 0
BBX 4 11 0 0
BITMAP
6C
1C
1C
1C
7E
1C
1C
1C
1C
1C
7F
ENDCHAR
STARTCHAR uni019B
ENCODING 411
SWIDTH 495 0
DWIDTH 8 0
BBX 8 11 0 0
BITMAP
7910
0380
1940
00C0
02D0
0360
0B20
0D14
2C08
3808
FD2F
ENDCHAR
STARTCHAR uni019E
ENCODING 414
SWIDTH 559 0
DWIDTH 9 0
BBX 9 12 0 -4
BITMAP
6DB800
1D0D00
1C0A00
1C0A00
1C0A00
1C0A00
1C0A00
7F0A00
000A00
000A00
000A00
000B80
ENDCHAR
STARTCHAR Ohorn
ENCODING 416
SWIDTH 737 0
DWIDTH 12 0
BBX 12 14 0 0
BITMAP
000004
00000D
00000D
01AFE4
0A01E0
1C0074
380038
38002C
78002C
38002C
380038
2C0074
0A00D0
01AA40
ENDCHAR
STARTCHAR ohorn
ENCODING 417
SWIDTH 516 0
DWIDTH 8 0
BBX 8 11 0 0
BITMAP
0001
0007
0003
0AF9
282C
740D
700E
700A
740D
281C
0BA4
ENDCHAR
STARTCHAR uni01A5
ENCODING 421
SWIDTH 522 0
DWIDTH 8 0
BBX 8 15 0 -4
BITMAP
06E0
1820
2800
29B4
2C1D
280A
280A
280A
280D
2C1C
2EA0
2800
2800
2800
BE00
ENDCHAR
STARTCHAR uni01AA
ENCODING 426
SWIDTH 298 0
DWIDTH 5 0
BBX 8 15 -1 -4
BITMAP
6900
8300
8340
6B40
0340
0340
0340
0340
0340
0340
0340
0340
0240
0249
00BC
ENDCHAR
STARTCHAR uni01AB
ENCODING 427
SWIDTH 321 0
DWIDTH 5 0
BBX 5 14 0 -4
BITMAP
0800
2800
7E40
2800
2800
2800
2800
2800
1C40
0EC0
0080
0080
1480
0E40
ENDCHAR
STARTCHAR uni01AD
ENCODING 429
SWIDTH 315 0
DWIDTH 5 0
BBX 7 11 0 0
BITMAP
06F4
1C14
2800
7E40
2800
2800
2800
2800
2800
1C40
0E40
ENDCHAR
STARTCHAR Uhorn
ENCODING 431
SWIDTH 762 0
DWIDTH 12 0
BBX 13 14 0 0
BITMAP
000001C0
000001C0
00000080
BF80F900
1D002400
0D002400
0D002400
0D002400
0D002400
0D002400
0D002000
0E002000
07409000
01BA4000
ENDCHAR
STARTCHAR uhorn
ENCODING 432
SWIDTH 574 0
DWIDTH 9 0
BBX 10 11 0 0
BITMAP
000040
0000D0
000080
682F40
280E00
280A00
280A00
280A00
280A00
1C1E00
0B9A40
ENDCHAR
STARTCHAR uni01B5
ENCODING 437
SWIDTH 594 0
DWIDTH 10 0
BBX 9 11 0 0
BITMAP
3EABC0
300740
200E00
002C00
007400
0AFA00
02D000
074000
0E0080
2C0080
7EAB80
ENDCHAR
STARTCHAR uni01BA
ENCODING 442
SWIDTH 430 0
DWIDTH 7 0
BBX 7 12 0 -4
BITMAP
7AF0
51D0
4340
0A00
1AD0
0070
0074
00A0
0A40
2000
50A0
2B90
ENDCHAR
STARTCHAR uni01BB
ENCODING 443
SWIDTH 508 0
DWIDTH 8 0
BBX 8 11 0 0
BITMAP
0AE0
2038
002C
002C
0034
2AF9
00C0
0240
0901
2819
7FFC
ENDCHAR
STARTCHAR uni01BE
ENCODING 446
SWIDTH 406 0
DWIDTH 7 0
BBX 6 10 0 0
BITMAP
0800
1C00
7E80
1C00
0680
00A0
0070
4070
60A0
6A80
ENDCHAR
STARTCHAR uni01C0
ENCODING 448
SWIDTH 250 0
DWIDTH 4 0
BBX 2 11 1 0
BITMAP
A0
A0
A0
A0
A0
A0
A0
A0
A0
A0
A0
ENDCHAR
STARTCHAR uni01C1
ENCODING 449
SWIDTH 423 0
DWIDTH 7 0
BBX 5 11 1 0
BITMAP
A340
A340
A340
A340
A340
A340
A340
A340
A340
A340
A340
ENDCHAR
STARTCHAR uni01C2
ENCODING 450
SWIDTH 422 0
DWIDTH 7 0
BBX 6 11 0 0
BITMAP
0700
0700
0700
6BA0
0700
6BA0
0700
0700
0700
0700
0700
ENDCHAR
STARTCHAR uni01C3
ENCODING 451
SWIDTH 245 0
DWIDTH 4 0
BBX 2 11 1 0
BITMAP
A0
A0
A0
A0
A0
90
50
50
00
A0
A0
ENDCHAR
STARTCHAR uni01DE
ENCODING 478
SWIDTH 718 0
DWIDTH 11 0
BBX 12 15 0 0
BITMAP
02AA00
024600
028700
000000
003400
007800
00AC00
009D00
024F00
030740
060380
0BABD0
1C01E0
2400F4
BD02FD
ENDCHAR
STARTCHAR uni01DF
ENCODING 479
SWIDTH 480 0
DWIDTH 8 0
BBX 8 13 0 0
BITMAP
1AA0
0000
2860
2870
0000
1AD0
3470
2070
01B0
1970
7070
7070
2E79
ENDCHAR
STARTCHAR uni01F0
ENCODING 496
SWIDTH 263 0
DWIDTH 4 0
BBX 6 16 -2 -4
BITMAP
0410
0560
02C0
0000
06C0
01C0
01C0
01C0
01C0
01C0
01C0
01C0
01C0
0180
6280
7A00
ENDCHAR
STARTCHAR Aringacute
ENCODING 506
SWIDTH 718 0
DWIDTH 11 0
BBX 12 17 0 0
BITMAP
002D00
006000
000000
006800
008900
006800
003400
007800
00AC00
009D00
024F00
030740
060380
0BABD0
1C01E0
2400F4
BD02FD
ENDCHAR
STARTCHAR aringacute
ENCODING 507
SWIDTH 480 0
DWIDTH 8 0
BBX 8 15 0 0
BITMAP
02D0
0600
0680
0890
0890
0680
0000
1AD0
3470
2070
01B0
1970
7070
7070
2E79
ENDCHAR
STARTCHAR AEacute
ENCODING 508
SWIDTH 894 0
DWIDTH 14 0
BBX 15 14 -1 0
BITMAP
00001D00
00006400
00000000
001BEAF4
000AC024
0019C014
0021C000
0051C080
00ABEBC0
0181C080
0201C040
0501C004
0C01C018
7F0BEAF4
ENDCHAR
STARTCHAR aeacute
ENCODING 509
SWIDTH 709 0
DWIDTH 11 0
BBX 11 12 0 0
BITMAP
001400
003400
005000
000000
1A9AD0
34B474
207028
01BAB8
197000
707400
707804
2E5BA0
ENDCHAR
STARTCHAR Oslashacute
ENCODING 510
SWIDTH 737 0
DWIDTH 12 0
BBX 11 14 0 0
BITMAP
001D00
006000
000000
01AA60
0A01E0
2C01B4
380238
38082C
78202C
38502C
394038
2E0074
0E00E0
25AA40
ENDCHAR
STARTCHAR oslashacute
ENCODING 511
SWIDTH 514 0
DWIDTH 8 0
BBX 8 12 0 0
BITMAP
0050
01C0
0200
0000
0AA8
282C
745D
718E
720A
780D
281C
5AA4
ENDCHAR
STARTCHAR uni0218
ENCODING 536
SWIDTH 504 0
DWIDTH 8 0
BBX 8 16 0 -5
BITMAP
1AFC
341C
7408
3800
1F40
07E0
007C
001D
500D
601D
7EA4
0000
0280
03C0
0080
0200
ENDCHAR
STARTCHAR uni0219
ENCODING 537
SWIDTH 394 0
DWIDTH 6 0
BBX 6 13 0 -5
BITMAP
2A90
7090
7410
2E00
06D0
40A0
60A0
6A90
0000
0A00
0B00
0200
0500
ENDCHAR
STARTCHAR uni021A
ENCODING 538
SWIDTH 603 0
DWIDTH 10 0
BBX 10 16 0 -5
BITMAP
BAFBD0
90E090
80E050
00E000
00E000
00E000
00E000
00E000
00E000
00E000
07F800
000000
009000
00F000
002000
008000
ENDCHAR
STARTCHAR uni021B
ENCODING 539
SWIDTH 315 0
DWIDTH 5 0
BBX 5 15 0 -5
BITMAP
0800
2800
7E40
2800
2800
2800
2800
2800
1C40
0E40
0000
0A00
0F00
0200
0800
ENDCHAR
STARTCHAR uni0221
ENCODING 545
SWIDTH 674 0
DWIDTH 11 0
BBX 11 13 0 -2
BITMAP
002C00
001C00
001C00
0AAC00
281C00
301C00
701C00
701C00
701C64
381D48
1E9BA4
000500
000800
ENDCHAR
STARTCHAR uni0228
ENCODING 552
SWIDTH 626 0
DWIDTH 10 0
BBX 10 15 0 -4
BITMAP
6FABC0
0E0080
0E0040
0E0200
0E0200
0FAE00
0E0200
0E0000
0E0050
0E0090
6FABD0
004000
006400
001800
00A400
ENDCHAR
STARTCHAR uni0229
ENCODING 553
SWIDTH 464 0
DWIDTH 7 0
BBX 7 12 0 -4
BITMAP
0AD0
2434
7028
7AA8
7000
7000
2804
0BA0
0100
0280
0090
0680
ENDCHAR
STARTCHAR uni0234
ENCODING 564
SWIDTH 399 0
DWIDTH 6 0
BBX 7 14 0 -3
BITMAP
6800
2800
2800
2800
2800
2800
2800
2800
28A4
2A14
1FA0
0800
1400
1000
ENDCHAR
STARTCHAR uni0235
ENCODING 565
SWIDTH 702 0
DWIDTH 11 0
BBX 12 11 0 -3
BITMAP
6DB800
1D0D00
1C0D00
1C0A00
1C0A00
1C0A28
1C0A85
7F07E4
000200
000500
000400
ENDCHAR
STARTCHAR uni0236
ENCODING 566
SWIDTH 406 0
DWIDTH 7 0
BBX 7 13 0 -2
BITMAP
0400
0800
2800
7E80
2800
2800
2800
2800
28A4
1D48
0BA0
0800
1400
ENDCHAR
STARTCHAR uni0237
ENCODING 567
SWIDTH 263 0
DWIDTH 4 0
BBX 5 12 -2 -4
BITMAP
06C0
01C0
01C0
01C0
01C0
01C0
01C0
01C0
01C0
0180
6280
7A00
ENDCHAR
STARTCHAR uni0250
ENCODING 592
SWIDTH 475 0
DWIDTH 8 0
BBX 7 8 0 0
BITMAP
75B4
2C2C
2828
29A0
2D00
2814
1C28
0BA0
ENDCHAR
STARTCHAR uni0251
ENCODING 593
SWIDTH 542 0
DWIDTH 9 0
BBX 8 8 0 0
BITMAP
0AA8
282C
301C
701C
701C
701C
381C
1EAE
ENDCHAR
STARTCHAR uni0252
ENCODING 594
SWIDTH 544 0
DWIDTH 9 0
BBX 8 8 0 0
BITMAP
6DB8
1C0A
1C07
1C07
1C07
1C06
1D0D
1AA4
ENDCHAR
STARTCHAR uni0253
ENCODING 595
SWIDTH 518 0
DWIDTH 8 0
BBX 7 11 1 0
BITMAP
1B80
6180
A000
A6D0
A074
A038
A028
A028
A034
A070
6E80
ENDCHAR
STARTCHAR uni0254
ENCODING 596
SWIDTH 454 0
DWIDTH 7 0
BBX 7 8 0 0
BITMAP
1F90
25B0
4038
0028
0028
1024
7470
2E80
ENDCHAR
STARTCHAR uni0255
ENCODING 597
SWIDTH 447 0
DWIDTH 7 0
BBX 7 10 0 -2
BITMAP
0AE0
2434
7014
6000
7000
70A4
3A08
0FA0
0800
1000
ENDCHAR
STARTCHAR uni0256
ENCODING 598
SWIDTH 528 0
DWIDTH 8 0
BBX 10 15 0 -4
BITMAP
002C00
001C00
001C00
0AAC00
282C00
301C00
701C00
701C00
701C00
381C00
1EAC00
001C00
000C00
000D70
0006E0
ENDCHAR
STARTCHAR uni0257
ENCODING 599
SWIDTH 542 0
DWIDTH 9 0
BBX 10 11 0 0
BITMAP
0006F0
000D20
000C00
0AAC00
282C00
301C00
701C00
701C00
701C00
381C00
1EAE00
ENDCHAR
STARTCHAR uni0258
ENCODING 600
SWIDTH 466 0
DWIDTH 7 0
BBX 7 8 0 0
BITMAP
0A90
2834
7418
7ABC
001C
0028
5074
1A90
ENDCHAR
STARTCHAR uni0259
ENCODING 601
SWIDTH 464 0
DWIDTH 7 0
BBX 7 8 0 0
BITMAP
1F90
25B4
0028
0018
7AB8
7028
2834
0A90
ENDCHAR
STARTCHAR uni025A
ENCODING 602
SWIDTH 642 0
DWIDTH 10 0
BBX 10 8 0 0
BITMAP
1B9000
25B140
402A50
0018A0
7ABC00
702800
283400
0A9000
ENDCHAR
STARTCHAR uni025B
ENCODING 603
SWIDTH 399 0
DWIDTH 6 0
BBX 6 8 0 0
BITMAP
1AD0
7060
3400
1F40
3400
7000
7410
2E90
ENDCHAR
STARTCHAR uni025C
ENCODING 604
SWIDTH 398 0
DWIDTH 6 0
BBX 6 8 0 0
BITMAP
6A80
60A0
0090
0B40
00D0
00A0
40A0
2A80
ENDCHAR
STARTCHAR uni025D
ENCODING 605
SWIDTH 575 0
DWIDTH 9 0
BBX 9 8 0 0
BITMAP
2A8000
B0A400
00A940
0B8680
009000
00A000
40A000
2A8000
ENDCHAR
STARTCHAR uni025E
ENCODING 606
SWIDTH 500 0
DWIDTH 8 0
BBX 8 8 0 0
BITMAP
0AA4
280D
701C
71F0
701C
700D
281D
0AB4
ENDCHAR
STARTCHAR uni025F
ENCODING 607
SWIDTH 272 0
DWIDTH 4 0
BBX 6 12 -2 -4
BITMAP
06C0
01C0
01C0
06E0
01C0
01C0
01C0
01C0
01C0
01C0
6180
7A00
ENDCHAR
STARTCHAR uni0260
ENCODING 608
SWIDTH 541 0
DWIDTH 9 0
BBX 11 15 0 -4
BITMAP
0006F4
000D14
001C00
0AAC00
282C00
301C00
701C00
701C00
701C00
381C00
1AAC00
001C00
101C00
382800
1EA000
ENDCHAR
STARTCHAR uni0261
ENCODING 609
SWIDTH 521 0
DWIDTH 8 0
BBX 7 12 0 -4
BITMAP
0AA8
282C
301C
701C
701C
701C
381C
1AAC
001C
101C
3828
1EA0
ENDCHAR
STARTCHAR uni0262
ENCODING 610
SWIDTH 535 0
DWIDTH 9 0
BBX 9 8 0 0
BITMAP
0ABD00
280900
740100
700000
702F40
740D00
280D00
0AA800
ENDCHAR
STARTCHAR uni0263
ENCODING 611
SWIDTH 479 0
DWIDTH 8 0
BBX 9 12 -1 -4
BITMAP
7F0BC0
1D0300
0A0500
070800
038800
02D400
00E000
00A000
00F000
017400
022400
01E000
ENDCHAR
STARTCHAR uni0264
ENCODING 612
SWIDTH 466 0
DWIDTH 7 0
BBX 8 8 0 0
BITMAP
69A8
D38D
05C0
08A0
1470
1470
14A0
0A80
ENDCHAR
STARTCHAR uni0265
ENCODING 613
SWIDTH 553 0
DWIDTH 9 0
BBX 9 12 0 -4
BITMAP
681A00
280A00
280A00
280A00
280A00
2C0A00
1C1E00
0B9A00
000A00
000A00
000A00
000B80
ENDCHAR
STARTCHAR uni0266
ENCODING 614
SWIDTH 577 0
DWIDTH 9 0
BBX 9 11 0 0
BITMAP
06F400
0C2400
1C0000
1DB800
1D0D00
1C0A00
1C0A00
1C0A00
1C0A00
1C0A00
7F2F80
ENDCHAR
STARTCHAR uni0267
ENCODING 615
SWIDTH 562 0
DWIDTH 9 0
BBX 8 15 0 -4
BITMAP
06F4
0C24
1C00
1DB8
1D0D
1C0A
1C0A
1C0A
1C0A
1C0A
7F0A
000A
000A
0289
01E4
ENDCHAR
STARTCHAR uni0268
ENCODING 616
SWIDTH 295 0
DWIDTH 5 0
BBX 4 11 0 0
BITMAP
1C
18
00
6C
1C
1C
6E
1C
1C
1C
7F
ENDCHAR
STARTCHAR uni0269
ENCODING 617
SWIDTH 286 0
DWIDTH 5 0
BBX 5 8 0 0
BITMAP
6800
2800
2800
2800
2800
2800
1C00
1E40
ENDCHAR
STARTCHAR uni026A
ENCODING 618
SWIDTH 287 0
DWIDTH 5 0
BBX 4 8 0 0
BITMAP
7F
1C
1C
1C
1C
1C
1C
7F
ENDCHAR
STARTCHAR uni026B
ENCODING 619
SWIDTH 290 0
DWIDTH 5 0
BBX 5 11 0 0
BITMAP
6C00
1C00
1C00
1C00
7C40
5E00
1C00
1C00
1C00
1C00
7F00
ENDCHAR
STARTCHAR uni026C
ENCODING 620
SWIDTH 318 0
DWIDTH 5 0
BBX 5 11 0 0
BITMAP
1D00
0D00
0D00
6D00
CD00
CE80
6E00
0D00
0D00
0D00
3F80
ENDCHAR
STARTCHAR uni026D
ENCODING 621
SWIDTH 248 0
DWIDTH 4 0
BBX 6 15 0 -4
BITMAP
6800
2800
2800
2800
2800
2800
2800
2800
2800
2800
2800
2800
2800
1890
0AD0
ENDCHAR
STARTCHAR uni026E
ENCODING 622
SWIDTH 590 0
DWIDTH 9 0
BBX 10 15 0 -4
BITMAP
6C0000
1C0000
1C0000
1EABC0
1C0740
1C0E00
1C2800
1C7400
1C6A00
1C0380
7F01C0
0001D0
0101C0
074340
02E900
ENDCHAR
STARTCHAR uni026F
ENCODING 623
SWIDTH 846 0
DWIDTH 14 0
BBX 13 8 0 0
BITMAP
682D1B00
280D0700
280D0700
280D0700
280D0700
280D0700
1C1E0B00
0B979780
ENDCHAR
STARTCHAR uni0270
ENCODING 624
SWIDTH 826 0
DWIDTH 13 0
BBX 13 12 0 -4
BITMAP
682D1B00
280D0700
280D0700
280D0700
280D0700
280D0700
1C1E0B00
0B97A700
00000700
00000700
00000700
000007C0
ENDCHAR
STARTCHAR uni0271
ENCODING 625
SWIDTH 835 0
DWIDTH 13 0
BBX 12 12 0 -4
BITMAP
6DB8AD
1D0E07
1C0A07
1C0A07
1C0A07
1C0A07
1C0E07
7F2F87
000007
000007
000186
0000F8
ENDCHAR
STARTCHAR uni0272
ENCODING 626
SWIDTH 574 0
DWIDTH 9 0
BBX 11 12 -2 -4
BITMAP
06DB80
01D0D0
01C0A0
01C0A0
01C0A0
01C0A0
01C0A0
01C2F8
01C000
018000
624000
7A0000
ENDCHAR
STARTCHAR uni0273
ENCODING 627
SWIDTH 563 0
DWIDTH 9 0
BBX 11 12 0 -4
BITMAP
6DB800
1D0D00
1C0A00
1C0A00
1C0A00
1C0A00
1C0A00
7F0A00
000A00
000A00
000628
0001B4
ENDCHAR
STARTCHAR uni0274
ENCODING 628
SWIDTH 568 0
DWIDTH 9 0
BBX 9 8 0 0
BITMAP
BC0F80
2E0200
2B8200
22D200
20B200
203E00
240E00
BD0600
ENDCHAR
STARTCHAR uni0275
ENCODING 629
SWIDTH 514 0
DWIDTH 8 0
BBX 8 8 0 0
BITMAP
0AA4
281C
700D
7AAE
700E
740D
281C
0BA0
ENDCHAR
STARTCHAR uni0276
ENCODING 630
SWIDTH 732 0
DWIDTH 12 0
BBX 11 8 0 0
BITMAP
0ABEB8
282C08
741C10
701EE0
701C20
741C04
282C08
0ABEBC
ENDCHAR
STARTCHAR uni0277
ENCODING 631
SWIDTH 672 0
DWIDTH 11 0
BBX 11 8 0 0
BITMAP
06AA00
1D01C0
3400A0
707470
707074
707070
3860A0
1A8A80
ENDCHAR
STARTCHAR uni0278
ENCODING 632
SWIDTH 658 0
DWIDTH 11 0
BBX 10 15 0 -4
BITMAP
01B000
007000
007000
06BA40
2871D0
3470A0
7070B0
7070B0
7470A0
2871D0
0ABA40
007000
007000
007000
01FC00
ENDCHAR
STARTCHAR uni0279
ENCODING 633
SWIDTH 380 0
DWIDTH 6 0
BBX 6 8 0 0
BITMAP
1FD0
0340
0340
0340
0340
0340
AB80
B290
ENDCHAR
STARTCHAR uni027A
ENCODING 634
SWIDTH 374 0
DWIDTH 6 0
BBX 6 11 0 0
BITMAP
0B40
0340
0340
0340
0340
0340
0340
0340
0340
AB80
B290
ENDCHAR
STARTCHAR uni027B
ENCODING 635
SWIDTH 375 0
DWIDTH 6 0
BBX 8 12 0 -4
BITMAP
1FD0
0380
0340
0340
0340
0340
AB40
B340
0240
0240
0189
00AD
ENDCHAR
STARTCHAR uni027C
ENCODING 636
SWIDTH 378 0
DWIDTH 6 0
BBX 6 12 0 -4
BITMAP
6CE0
2EA0
1C00
1C00
1C00
1C00
1C00
1C00
1C00
1C00
1C00
7F40
ENDCHAR
STARTCHAR uni027D
ENCODING 637
SWIDTH 373 0
DWIDTH 6 0
BBX 6 12 0 -4
BITMAP
69E0
2EA0
1C00
1C00
1C00
1C00
1C00
1C00
1C00
1C00
0C60
06E0
ENDCHAR
STARTCHAR uni027E
ENCODING 638
SWIDTH 371 0
DWIDTH 6 0
BBX 6 8 0 0
BITMAP
06E0
0C50
1C00
1C00
1C00
1C00
2C00
7F40
ENDCHAR
STARTCHAR uni027F
ENCODING 639
SWIDTH 371 0
DWIDTH 6 0
BBX 6 8 0 0
BITMAP
B900
9300
0340
0340
0340
0340
0340
1FD0
ENDCHAR
STARTCHAR uni0280
ENCODING 640
SWIDTH 494 0
DWIDTH 8 0
BBX 8 8 0 0
BITMAP
6EA0
1C28
1C28
1C34
1FD0
1CE0
1C78
7E1F
ENDCHAR
STARTCHAR uni0281
ENCODING 641
SWIDTH 494 0
DWIDTH 8 0
BBX 8 8 0 0
BITMAP
7E1F
1C38
1C74
1CD0
1FD0
1C28
1C28
6EA4
ENDCHAR
STARTCHAR uni0282
ENCODING 642
SWIDTH 395 0
DWIDTH 6 0
BBX 6 12 0 -4
BITMAP
2A90
7050
7410
2E00
07D0
40A0
60A0
6A90
5000
5000
2200
1A00
ENDCHAR
STARTCHAR uni0283
ENCODING 643
SWIDTH 253 0
DWIDTH 4 0
BBX 8 15 -2 -4
BITMAP
006D
018A
0280
0280
0280
0280
0280
0280
0280
0280
0280
0280
0280
6240
7A00
ENDCHAR
STARTCHAR uni0284
ENCODING 644
SWIDTH 286 0
DWIDTH 5 0
BBX 7 15 -1 -4
BITMAP
01B8
0314
0700
0700
0700
0700
0700
0700
0700
0700
1F90
0700
0600
8900
A800
ENDCHAR
STARTCHAR uni0285
ENCODING 645
SWIDTH 361 0
DWIDTH 6 0
BBX 8 12 0 -4
BITMAP
7900
9300
0340
0340
0340
0340
0340
0340
0340
0240
0289
00AC
ENDCHAR
STARTCHAR uni0286
ENCODING 646
SWIDTH 253 0
DWIDTH 4 0
BBX 8 15 -2 -4
BITMAP
00AD
0186
0280
0280
0280
0280
0280
0280
0280
0280
0280
1B80
62A0
5240
2A00
ENDCHAR
STARTCHAR uni0287
ENCODING 647
SWIDTH 315 0
DWIDTH 5 0
BBX 5 11 0 -3
BITMAP
6C00
4E00
0A00
0A00
0A00
0A00
0A00
6F40
0A00
0800
0400
ENDCHAR
STARTCHAR uni0288
ENCODING 648
SWIDTH 309 0
DWIDTH 5 0
BBX 6 14 0 -4
BITMAP
0800
1C00
7E40
1C00
1C00
1C00
1C00
1C00
1C00
1C00
1C00
1C00
0C60
06E0
ENDCHAR
STARTCHAR uni0289
ENCODING 649
SWIDTH 580 0
DWIDTH 9 0
BBX 9 8 0 0
BITMAP
6C2E00
1C0A00
1C0A00
7EAF80
1C0A00
1C0A00
1D1E00
0B9B40
ENDCHAR
STARTCHAR uni028A
ENCODING 650
SWIDTH 548 0
DWIDTH 9 0
BBX 8 8 0 0
BITMAP
2D2E
0808
2409
3407
7407
740B
280E
0AA4
ENDCHAR
STARTCHAR uni028B
ENCODING 651
SWIDTH 530 0
DWIDTH 8 0
BBX 8 8 0 0
BITMAP
781C
280D
2806
2802
2802
1C01
1C08
0BA0
ENDCHAR
STARTCHAR uni028C
ENCODING 652
SWIDTH 495 0
DWIDTH 8 0
BBX 8 8 0 0
BITMAP
0280
03C0
05D0
08A0
1870
2034
202C
F87F
ENDCHAR
STARTCHAR uni028D
ENCODING 653
SWIDTH 764 0
DWIDTH 12 0
BBX 13 8 0 0
BITMAP
02418000
0382D000
05C2E000
08E87000
18783400
20342800
20281D00
F87E3F40
ENDCHAR
STARTCHAR uni028E
ENCODING 654
SWIDTH 492 0
DWIDTH 8 0
BBX 8 11 0 0
BITMAP
002E
00A9
0080
0240
0340
06C0
08D0
18B0
2434
202C
F87F
ENDCHAR
STARTCHAR uni028F
ENCODING 655
SWIDTH 454 0
DWIDTH 7 0
BBX 9 8 -1 0
BITMAP
7E0B40
1D0500
070800
02A000
00E000
00D000
00D000
03F400
ENDCHAR
STARTCHAR uni0290
ENCODING 656
SWIDTH 458 0
DWIDTH 7 0
BBX 9 12 0 -4
BITMAP
7AB800
60B000
01D000
028000
0B0000
1D0400
280800
7AB800
000800
000800
000840
0006C0
ENDCHAR
STARTCHAR uni0291
ENCODING 657
SWIDTH 458 0
DWIDTH 7 0
BBX 7 11 0 -3
BITMAP
7AB8
60B0
01D0
0280
0B00
1D68
2888
7BA4
0500
0800
0400
ENDCHAR
STARTCHAR uni0292
ENCODING 658
SWIDTH 443 0
DWIDTH 7 0
BBX 7 12 0 -4
BITMAP
7AB8
50B0
41D0
0380
0B00
0A90
0074
0028
0028
1028
B070
2E80
ENDCHAR
STARTCHAR uni0293
ENCODING 659
SWIDTH 443 0
DWIDTH 7 0
BBX 7 15 0 -7
BITMAP
7AB8
50B0
41D0
0380
0700
0F40
00B0
0038
0028
6828
5674
2BD0
0080
0050
0010
ENDCHAR
STARTCHAR uni0294
ENCODING 660
SWIDTH 383 0
DWIDTH 6 0
BBX 6 11 0 0
BITMAP
2A80
70A0
5070
0070
00A0
0680
1C00
1C00
1C00
1C00
7F40
ENDCHAR
STARTCHAR uni0295
ENCODING 661
SWIDTH 383 0
DWIDTH 6 0
BBX 6 11 0 0
BITMAP
2A80
A0A0
D050
E000
7000
1900
0280
0280
0280
0380
0BE0
ENDCHAR
STARTCHAR uni0296
ENCODING 662
SWIDTH 408 0
DWIDTH 7 0
BBX 6 11 0 0
BITMAP
6C00
1C00
1C00
1C00
1C00
0680
00A0
0070
1070
60A0
2580
ENDCHAR
STARTCHAR uni0297
ENCODING 663
SWIDTH 437 0
DWIDTH 7 0
BBX 7 11 0 -3
BITMAP
0AE0
1874
3414
7000
7000
6000
7000
7000
3400
2814
0690
ENDCHAR
STARTCHAR uni0298
ENCODING 664
SWIDTH 736 0
DWIDTH 12 0
BBX 12 11 0 0
BITMAP
01AA40
0A01E0
280034
34002C
70381C
70381D
70001C
34002C
280034
0A01E0
01AA40
ENDCHAR
STARTCHAR uni0299
ENCODING 665
SWIDTH 485 0
DWIDTH 8 0
BBX 8 8 0 0
BITMAP
7EA0
1C28
1C28
1EE0
1C28
1C1D
1C1C
7EA4
ENDCHAR
STARTCHAR uni029A
ENCODING 666
SWIDTH 500 0
DWIDTH 8 0
BBX 8 8 0 0
BITMAP
1AA0
7028
340D
1F4D
340D
700D
7428
1EA0
ENDCHAR
STARTCHAR uni029B
ENCODING 667
SWIDTH 536 0
DWIDTH 9 0
BBX 10 11 0 0
BITMAP
0001A0
000220
000500
0ABD00
280900
740100
700000
702F40
740D00
280D00
0AA800
ENDCHAR
STARTCHAR uni029C
ENCODING 668
SWIDTH 599 0
DWIDTH 10 0
BBX 9 8 0 0
BITMAP
7F1FC0
1C0700
1C0700
1EAF00
1C0700
1C0700
1C0700
7F1FC0
ENDCHAR
STARTCHAR uni029D
ENCODING 669
SWIDTH 263 0
DWIDTH 4 0
BBX 5 15 -1 -4
BITMAP
0700
0600
0000
1B00
0700
0700
0700
0700
0700
0700
0700
6F00
8780
8A00
A800
ENDCHAR
STARTCHAR uni029E
ENCODING 670
SWIDTH 542 0
DWIDTH 9 0
BBX 9 12 0 -4
BITMAP
BD7F00
1D1C00
0B5C00
02DC00
00AC00
019C00
0A1C00
7F1C00
001C00
001C00
001C00
001F40
ENDCHAR
STARTCHAR uni029F
ENCODING 671
SWIDTH 440 0
DWIDTH 7 0
BBX 7 8 0 0
BITMAP
BE00
2C00
2800
2800
2800
2804
2808
7EB8
ENDCHAR
STARTCHAR uni02A0
ENCODING 672
SWIDTH 541 0
DWIDTH 9 0
BBX 11 15 0 -4
BITMAP
0006F4
000D14
001C00
0AAC00
282C00
301C00
701C00
701C00
701C00
381C00
1AAC00
001C00
001C00
001C00
00BF00
ENDCHAR
STARTCHAR uni02A1
ENCODING 673
SWIDTH 393 0
DWIDTH 6 0
BBX 6 11 0 0
BITMAP
2A90
70B0
1070
0070
00A0
0640
1C00
6E80
1C00
1C00
7F40
ENDCHAR
STARTCHAR uni02A2
ENCODING 674
SWIDTH 393 0
DWIDTH 6 0
BBX 6 11 0 0
BITMAP
2A90
A0A0
A050
A000
7000
1900
0280
1BE0
0280
0280
0BE0
ENDCHAR
STARTCHAR uni02A3
ENCODING 675
SWIDTH 830 0
DWIDTH 13 0
BBX 13 11 0 0
BITMAP
002C0000
001C0000
001C0000
0ABEAB80
281C0B40
301C1D00
701C2800
701C7000
701DD040
381E8180
1EAFAB80
ENDCHAR
STARTCHAR uni02A4
ENCODING 676
SWIDTH 838 0
DWIDTH 13 0
BBX 13 15 0 -4
BITMAP
002C0000
001C0000
001C0000
0ABEABC0
281C0740
301C0E00
701C2C00
701C7400
701CB900
381C0740
1EAE02C0
000001C0
000101C0
00070240
0002A900
ENDCHAR
STARTCHAR uni02A5
ENCODING 677
SWIDTH 829 0
DWIDTH 13 0
BBX 13 14 0 -3
BITMAP
002C0000
001C0000
001C0000
0ABEAB80
281C0B40
301C1D00
701C2800
701C7000
701DD680
381E9880
1EAFBA40
00005000
00008000
00004000
ENDCHAR
STARTCHAR uni02A6
ENCODING 678
SWIDTH 614 0
DWIDTH 10 0
BBX 9 11 1 0
BITMAP
100000
200000
600000
FBEA00
A24300
A28100
A1F400
A02E00
A00740
740740
1AA900
ENDCHAR
STARTCHAR uni02A7
ENCODING 679
SWIDTH 513 0
DWIDTH 8 0
BBX 10 15 0 -4
BITMAP
0006E0
041C50
181C00
7EBC00
281C00
281C00
281C00
281C00
281C00
1C5C00
0E5C00
001800
001800
062800
07A000
ENDCHAR
STARTCHAR uni02A8
ENCODING 680
SWIDTH 687 0
DWIDTH 11 0
BBX 10 10 1 0
BITMAP
200000
600000
F92B80
A091D0
A18040
A28000
A28000
A1C680
70F450
3A6E80
ENDCHAR
STARTCHAR uni02A9
ENCODING 681
SWIDTH 866 0
DWIDTH 14 0
BBX 13 15 0 -4
BITMAP
06E00000
0C600000
1C000000
6EAF6E00
1C074340
1C070280
1C070280
1C070280
1C070280
1C0B0280
BF5FC280
00000280
00000240
00009300
00007900
ENDCHAR
STARTCHAR uni02AA
ENCODING 682
SWIDTH 595 0
DWIDTH 10 0
BBX 9 11 0 0
BITMAP
680000
280000
280000
286A80
28C180
28D040
287900
280B40
2801C0
2802C0
0AAA00
ENDCHAR
STARTCHAR uni02AB
ENCODING 683
SWIDTH 580 0
DWIDTH 9 0
BBX 9 11 0 0
BITMAP
6C0000
1C0000
1C0000
1EAB40
1C0B00
1C1D00
1C2800
1C7000
1CD040
1E8180
6FAB80
ENDCHAR
STARTCHAR uni02AC
ENCODING 684
SWIDTH 599 0
DWIDTH 10 0
BBX 10 11 0 0
BITMAP
B9F2D0
24A040
1CB600
0A2900
050800
B9F2D0
34A080
28B140
1C7600
0A2900
060C00
ENDCHAR
STARTCHAR uni02AD
ENCODING 685
SWIDTH 479 0
DWIDTH 8 0
BBX 6 11 1 0
BITMAP
EAE0
C060
C060
C060
C060
0000
AA90
C060
C060
C060
C060
ENDCHAR
STARTCHAR uni02AE
ENCODING 686
SWIDTH 595 0
DWIDTH 10 0
BBX 11 12 -1 -4
BITMAP
7902D0
6341D0
0240D0
0280D0
0280D0
0280D0
02C1D0
00A9D0
0000D0
0000D0
0000D0
0000F4
ENDCHAR
STARTCHAR uni02AF
ENCODING 687
SWIDTH 600 0
DWIDTH 10 0
BBX 12 12 -1 -4
BITMAP
7902D0
6341D0
0240D0
0280D0
0280D0
0280D0
02C1D0
00A9D0
0000D0
0000D0
000092
00002E
ENDCHAR
STARTCHAR uni02B0
ENCODING 688
SWIDTH 488 0
DWIDTH 8 0
BBX 8 8 0 4
BITMAP
7800
2800
2AE0
2834
2824
2824
2824
7979
ENDCHAR
STARTCHAR uni02B1
ENCODING 689
SWIDTH 488 0
DWIDTH 8 0
BBX 8 9 0 4
BITMAP
0690
1850
2800
2AE0
2834
2824
2824
2824
7979
ENDCHAR
STARTCHAR uni02B2
ENCODING 690
SWIDTH 222 0
DWIDTH 4 0
BBX 4 11 -1 1
BITMAP
0A
05
1E
0A
0A
0A
0A
0A
0A
49
A8
ENDCHAR
STARTCHAR uni02B3
ENCODING 691
SWIDTH 325 0
DWIDTH 5 0
BBX 5 6 0 4
BITMAP
7AC0
2840
2800
2800
2800
7900
ENDCHAR
STARTCHAR uni02B4
ENCODING 692
SWIDTH 325 0
DWIDTH 5 0
BBX 5 6 0 4
BITMAP
0B80
0300
0300
0300
1700
7780
ENDCHAR
STARTCHAR uni02B5
ENCODING 693
SWIDTH 325 0
DWIDTH 5 0
BBX 7 8 0 2
BITMAP
0B80
0300
0300
0300
1700
7700
0200
01A4
ENDCHAR
STARTCHAR uni02B6
ENCODING 694
SWIDTH 443 0
DWIDTH 7 0
BBX 7 6 0 4
BITMAP
7974
29D0
2A80
28A0
2870
7A90
ENDCHAR
STARTCHAR uni02B7
ENCODING 695
SWIDTH 653 0
DWIDTH 10 0
BBX 11 6 0 4
BITMAP
B4B4B4
343050
186880
0D9C40
0A4E00
070A00
ENDCHAR
STARTCHAR uni02B8
ENCODING 696
SWIDTH 427 0
DWIDTH 7 0
BBX 7 9 0 1
BITMAP
B874
3420
1C50
0D80
0A40
0300
0200
0500
B800
ENDCHAR
STARTCHAR uni02B9
ENCODING 697
SWIDTH 296 0
DWIDTH 5 0
BBX 3 5 1 7
BITMAP
28
34
70
90
80
ENDCHAR
STARTCHAR uni02BA
ENCODING 698
SWIDTH 456 0
DWIDTH 7 0
BBX 5 5 1 7
BITMAP
28C0
35C0
7240
9300
8500
ENDCHAR
STARTCHAR uni02BB
ENCODING 699
SWIDTH 245 0
DWIDTH 4 0
BBX 2 4 1 8
BITMAP
60
80
E0
B0
ENDCHAR
STARTCHAR uni02BC
ENCODING 700
SWIDTH 244 0
DWIDTH 4 0
BBX 2 4 1 8
BITMAP
A0
F0
20
90
ENDCHAR
STARTCHAR uni02BD
ENCODING 701
SWIDTH 244 0
DWIDTH 4 0
BBX 2 4 1 8
BITMAP
A0
F0
80
60
ENDCHAR
STARTCHAR uni02BE
ENCODING 702
SWIDTH 203 0
DWIDTH 3 0
BBX 3 4 0 8
BITMAP
64
08
08
64
ENDCHAR
STARTCHAR uni02BF
ENCODING 703
SWIDTH 203 0
DWIDTH 3 0
BBX 3 4 0 8
BITMAP
28
90
90
28
ENDCHAR
STARTCHAR uni02C0
ENCODING 704
SWIDTH 364 0
DWIDTH 6 0
BBX 6 6 0 6
BITMAP
1A40
60C0
00D0
02C0
1D00
1C00
ENDCHAR
STARTCHAR uni02C1
ENCODING 705
SWIDTH 364 0
DWIDTH 6 0
BBX 5 6 0 6
BITMAP
1A40
70C0
7000
3400
0B00
0300
ENDCHAR
STARTCHAR uni02C2
ENCODING 706
SWIDTH 324 0
DWIDTH 5 0
BBX 5 5 0 7
BITMAP
0280
1900
7400
1A00
0180
ENDCHAR
STARTCHAR uni02C3
ENCODING 707
SWIDTH 324 0
DWIDTH 5 0
BBX 5 5 0 7
BITMAP
6000
1900
0340
1900
5000
ENDCHAR
STARTCHAR uni02C4
ENCODING 708
SWIDTH 324 0
DWIDTH 5 0
BBX 5 4 0 8
BITMAP
0C00
2A00
2240
90C0
ENDCHAR
STARTCHAR uni02C5
ENCODING 709
SWIDTH 324 0
DWIDTH 5 0
BBX 5 4 0 8
BITMAP
90C0
2240
2A00
0C00
ENDCHAR
STARTCHAR circumflex
ENCODING 710
SWIDTH 342 0
DWIDTH 5 0
BBX 5 3 0 9
BITMAP
0500
1B00
6180
ENDCHAR
STARTCHAR caron
ENCODING 711
SWIDTH 342 0
DWIDTH 5 0
BBX 5 3 0 9
BITMAP
5040
2640
1E00
ENDCHAR
STARTCHAR uni02C8
ENCODING 712
SWIDTH 284 0
DWIDTH 5 0
BBX 1 4 2 8
BITMAP
80
80
80
80
ENDCHAR
STARTCHAR uni02C9
ENCODING 713
SWIDTH 350 0
DWIDTH 6 0
BBX 5 1 0 9
BITMAP
6A80
ENDCHAR
STARTCHAR uni02CA
ENCODING 714
SWIDTH 222 0
DWIDTH 4 0
BBX 3 3 0 9
BITMAP
14
34
60
ENDCHAR
STARTCHAR uni02CB
ENCODING 715
SWIDTH 222 0
DWIDTH 4 0
BBX 3 3 0 9
BITMAP
50
34
08
ENDCHAR
STARTCHAR uni02CC
ENCODING 716
SWIDTH 284 0
DWIDTH 5 0
BBX 1 4 2 -3
BITMAP
80
80
80
80
ENDCHAR
STARTCHAR uni02CD
ENCODING 717
SWIDTH 342 0
DWIDTH 5 0
BBX 6 1 0 -3
BITMAP
AA90
ENDCHAR
STARTCHAR uni02CE
ENCODING 718
SWIDTH 222 0
DWIDTH 4 0
BBX 3 3 0 -2
BITMAP
50
34
08
ENDCHAR
STARTCHAR uni02CF
ENCODING 719
SWIDTH 223 0
DWIDTH 4 0
BBX 3 3 0 -2
BITMAP
14
34
60
ENDCHAR
STARTCHAR uni02D0
ENCODING 720
SWIDTH 341 0
DWIDTH 5 0
BBX 3 8 1 0
BITMAP
78
38
24
00
00
24
38
7C
ENDCHAR
STARTCHAR uni02D1
ENCODING 721
SWIDTH 341 0
DWIDTH 5 0
BBX 3 3 1 5
BITMAP
78
38
24
ENDCHAR
STARTCHAR uni02D2
ENCODING 722
SWIDTH 341 0
DWIDTH 5 0
BBX 4 5 1 1
BITMAP
A4
0C
09
0C
A4
ENDCHAR
STARTCHAR uni02D3
ENCODING 723
SWIDTH 341 0
DWIDTH 5 0
BBX 4 5 1 1
BITMAP
29
90
C0
90
29
ENDCHAR
STARTCHAR uni02D4
ENCODING 724
SWIDTH 341 0
DWIDTH 5 0
BBX 4 3 1 3
BITMAP
20
20
A9
ENDCHAR
STARTCHAR uni02D5
ENCODING 725
SWIDTH 341 0
DWIDTH 5 0
BBX 4 4 1 2
BITMAP
A9
20
20
10
ENDCHAR
STARTCHAR uni02D6
ENCODING 726
SWIDTH 341 0
DWIDTH 5 0
BBX 4 3 1 3
BITMAP
20
B9
20
ENDCHAR
STARTCHAR uni02D7
ENCODING 727
SWIDTH 341 0
DWIDTH 5 0
BBX 4 1 1 4
BITMAP
A9
ENDCHAR
STARTCHAR breve
ENCODING 728
SWIDTH 353 0
DWIDTH 6 0
BBX 5 3 0 9
BITMAP
4040
5080
1A40
ENDCHAR
STARTCHAR dotaccent
ENCODING 729
SWIDTH 194 0
DWIDTH 3 0
BBX 3 2 0 9
BITMAP
24
74
ENDCHAR
STARTCHAR ring
ENCODING 730
SWIDTH 265 0
DWIDTH 4 0
BBX 4 4 0 9
BITMAP
28
52
52
28
ENDCHAR
STARTCHAR ogonek
ENCODING 731
SWIDTH 277 0
DWIDTH 4 0
BBX 4 4 0 -4
BITMAP
04
20
61
69
ENDCHAR
STARTCHAR tilde
ENCODING 732
SWIDTH 381 0
DWIDTH 6 0
BBX 6 2 0 9
BITMAP
2950
4680
ENDCHAR
STARTCHAR hungarumlaut
ENCODING 733
SWIDTH 350 0
DWIDTH 6 0
BBX 5 3 0 9
BITMAP
2980
3740
5600
ENDCHAR
STARTCHAR uni02DE
ENCODING 734
SWIDTH 205 0
DWIDTH 3 0
BBX 4 3 -1 3
BITMAP
10
65
1A
ENDCHAR
STARTCHAR uni02DF
ENCODING 735
SWIDTH 302 0
DWIDTH 5 0
BBX 4 4 0 8
BITMAP
51
2A
1D
62
ENDCHAR
STARTCHAR uni02E0
ENCODING 736
SWIDTH 413 0
DWIDTH 7 0
BBX 7 9 0 1
BITMAP
B474
3420
2850
0D80
0A40
0700
0740
0980
0A40
ENDCHAR
STARTCHAR uni02E1
ENCODING 737
SWIDTH 244 0
DWIDTH 4 0
BBX 4 8 0 4
BITMAP
68
28
28
28
28
28
28
79
ENDCHAR
STARTCHAR uni02E2
ENCODING 738
SWIDTH 337 0
DWIDTH 5 0
BBX 5 6 0 4
BITMAP
2A80
6080
3900
0B80
51C0
6A40
ENDCHAR
STARTCHAR uni02E3
ENCODING 739
SWIDTH 445 0
DWIDTH 7 0
BBX 7 6 0 4
BITMAP
7D74
1D40
0740
0680
18D0
74B4
ENDCHAR
STARTCHAR uni02E4
ENCODING 740
SWIDTH 364 0
DWIDTH 6 0
BBX 6 8 0 4
BITMAP
1990
3060
7000
3400
0A40
0280
0280
0790
ENDCHAR
STARTCHAR uni02E5
ENCODING 741
SWIDTH 423 0
DWIDTH 7 0
BBX 5 12 1 -1
BITMAP
AAC0
0080
0080
0080
0080
0080
0080
0080
0080
0080
0080
0040
ENDCHAR
STARTCHAR uni02E6
ENCODING 742
SWIDTH 414 0
DWIDTH 7 0
BBX 6 12 0 -1
BITMAP
0020
0020
0020
6AB0
0020
0020
0020
0020
0020
0020
0020
0010
ENDCHAR
STARTCHAR uni02E7
ENCODING 743
SWIDTH 414 0
DWIDTH 7 0
BBX 6 11 0 0
BITMAP
0020
0020
0020
0020
0020
6AB0
0020
0020
0020
0020
0020
ENDCHAR
STARTCHAR uni02E8
ENCODING 744
SWIDTH 414 0
DWIDTH 7 0
BBX 6 11 0 0
BITMAP
0020
0020
0020
0020
0020
0020
0020
6AB0
0020
0020
0020
ENDCHAR
STARTCHAR uni02E9
ENCODING 745
SWIDTH 414 0
DWIDTH 7 0
BBX 6 11 0 0
BITMAP
0020
0020
0020
0020
0020
0020
0020
0020
0020
0020
6AB0
ENDCHAR
STARTCHAR uni02EC
ENCODING 748
SWIDTH 341 0
DWIDTH 5 0
BBX 5 4 0 -2
BITMAP
5040
3240
1A00
0900
ENDCHAR
STARTCHAR uni02ED
ENCODING 749
SWIDTH 380 0
DWIDTH 6 0
BBX 6 3 0 9
BITMAP
6A90
0000
6A90
ENDCHAR
STARTCHAR uni02F7
ENCODING 759
SWIDTH 381 0
DWIDTH 6 0
BBX 6 2 0 -3
BITMAP
2950
4680
ENDCHAR
STARTCHAR uni0300
ENCODING 768
SWIDTH 0 0
DWIDTH 0 0
BBX 3 3 -6 9
BITMAP
60
28
08
ENDCHAR
STARTCHAR uni0301
ENCODING 769
SWIDTH 0 0
DWIDTH 0 0
BBX 3 3 -5 9
BITMAP
14
34
60
ENDCHAR
STARTCHAR uni0302
ENCODING 770
SWIDTH 0 0
DWIDTH 0 0
BBX 5 3 -6 9
BITMAP
1400
2A00
9240
ENDCHAR
STARTCHAR uni0303
ENCODING 771
SWIDTH 0 0
DWIDTH 0 0
BBX 5 2 -6 9
BITMAP
6940
4A40
ENDCHAR
STARTCHAR uni0304
ENCODING 772
SWIDTH 0 0
DWIDTH 0 0
BBX 5 1 -6 9
BITMAP
AA40
ENDCHAR
STARTCHAR uni0305
ENCODING 773
SWIDTH 0 0
DWIDTH 0 0
BBX 7 1 -7 9
BITMAP
6AA8
ENDCHAR
STARTCHAR uni0306
ENCODING 774
SWIDTH 0 0
DWIDTH 0 0
BBX 5 3 -6 9
BITMAP
4040
8140
6A00
ENDCHAR
STARTCHAR uni0307
ENCODING 775
SWIDTH 0 0
DWIDTH 0 0
BBX 2 2 -5 9
BITMAP
60
70
ENDCHAR
STARTCHAR uni0308
ENCODING 776
SWIDTH 0 0
DWIDTH 0 0
BBX 5 2 -6 9
BITMAP
9280
D280
ENDCHAR
STARTCHAR uni0309
ENCODING 777
SWIDTH 0 0
DWIDTH 0 0
BBX 3 4 -5 9
BITMAP
64
4C
08
20
ENDCHAR
STARTCHAR uni030A
ENCODING 778
SWIDTH 0 0
DWIDTH 0 0
BBX 4 4 -6 9
BITMAP
29
62
62
29
ENDCHAR
STARTCHAR uni030B
ENCODING 779
SWIDTH 0 0
DWIDTH 0 0
BBX 5 3 -5 9
BITMAP
7740
AA00
8800
ENDCHAR
STARTCHAR uni030C
ENCODING 780
SWIDTH 0 0
DWIDTH 0 0
BBX 5 3 -6 9
BITMAP
4040
6600
2D00
ENDCHAR
STARTCHAR uni030D
ENCODING 781
SWIDTH 0 0
DWIDTH 0 0
BBX 1 3 -4 8
BITMAP
80
80
80
ENDCHAR
STARTCHAR uni030E
ENCODING 782
SWIDTH 0 0
DWIDTH 0 0
BBX 4 3 -6 8
BITMAP
63
63
63
ENDCHAR
STARTCHAR uni030F
ENCODING 783
SWIDTH 0 0
DWIDTH 0 0
BBX 5 3 -7 9
BITMAP
A600
3740
1980
ENDCHAR
STARTCHAR uni0310
ENCODING 784
SWIDTH 0 0
DWIDTH 0 0
BBX 5 4 -6 9
BITMAP
1800
5C40
8140
2A00
ENDCHAR
STARTCHAR uni0311
ENCODING 785
SWIDTH 0 0
DWIDTH 0 0
BBX 5 3 -6 8
BITMAP
6A00
8140
4040
ENDCHAR
STARTCHAR uni0312
ENCODING 786
SWIDTH 0 0
DWIDTH 0 0
BBX 2 4 -5 9
BITMAP
10
90
A0
B0
ENDCHAR
STARTCHAR uni0313
ENCODING 787
SWIDTH 0 0
DWIDTH 0 0
BBX 3 4 -5 8
BITMAP
60
B4
24
50
ENDCHAR
STARTCHAR uni0314
ENCODING 788
SWIDTH 0 0
DWIDTH 0 0
BBX 3 4 -5 8
BITMAP
60
B4
90
20
ENDCHAR
STARTCHAR uni0315
ENCODING 789
SWIDTH 0 0
DWIDTH 0 0
BBX 2 3 -4 9
BITMAP
A0
90
80
ENDCHAR
STARTCHAR uni0316
ENCODING 790
SWIDTH 0 0
DWIDTH 0 0
BBX 3 3 -6 -3
BITMAP
60
28
08
ENDCHAR
STARTCHAR uni0317
ENCODING 791
SWIDTH 0 0
DWIDTH 0 0
BBX 2 3 -4 -3
BITMAP
60
A0
80
ENDCHAR
STARTCHAR uni0318
ENCODING 792
SWIDTH 0 0
DWIDTH 0 0
BBX 3 3 -5 -4
BITMAP
14
A4
14
ENDCHAR
STARTCHAR uni0319
ENCODING 793
SWIDTH 0 0
DWIDTH 0 0
BBX 3 3 -5 -4
BITMAP
80
A4
80
ENDCHAR
STARTCHAR uni031A
ENCODING 794
SWIDTH 0 0
DWIDTH 0 0
BBX 4 4 -6 8
BITMAP
6B
03
03
01
ENDCHAR
STARTCHAR uni031B
ENCODING 795
SWIDTH 0 0
DWIDTH 0 0
BBX 3 3 -3 7
BITMAP
18
18
60
ENDCHAR
STARTCHAR uni031C
ENCODING 796
SWIDTH 0 0
DWIDTH 0 0
BBX 2 4 -5 -4
BITMAP
60
80
80
60
ENDCHAR
STARTCHAR uni031D
ENCODING 797
SWIDTH 0 0
DWIDTH 0 0
BBX 3 3 -5 -4
BITMAP
10
20
A8
ENDCHAR
STARTCHAR uni031E
ENCODING 798
SWIDTH 0 0
DWIDTH 0 0
BBX 4 3 -6 -4
BITMAP
6E
08
08
ENDCHAR
STARTCHAR uni031F
ENCODING 799
SWIDTH 0 0
DWIDTH 0 0
BBX 3 3 -5 -4
BITMAP
20
B8
20
ENDCHAR
STARTCHAR uni0320
ENCODING 800
SWIDTH 0 0
DWIDTH 0 0
BBX 3 1 -5 -3
BITMAP
A8
ENDCHAR
STARTCHAR uni0321
ENCODING 801
SWIDTH 0 0
DWIDTH 0 0
BBX 5 5 -7 -4
BITMAP
0140
0280
0240
A300
6900
ENDCHAR
STARTCHAR uni0322
ENCODING 802
SWIDTH 0 0
DWIDTH 0 0
BBX 5 5 -4 -4
BITMAP
5000
A000
A000
6280
1A40
ENDCHAR
STARTCHAR uni0323
ENCODING 803
SWIDTH 0 0
DWIDTH 0 0
BBX 2 2 -5 -3
BITMAP
60
70
ENDCHAR
STARTCHAR uni0324
ENCODING 804
SWIDTH 0 0
DWIDTH 0 0
BBX 6 2 -7 -3
BITMAP
2460
74A0
ENDCHAR
STARTCHAR uni0325
ENCODING 805
SWIDTH 0 0
DWIDTH 0 0
BBX 4 4 -6 -4
BITMAP
29
62
62
29
ENDCHAR
STARTCHAR uni0326
ENCODING 806
SWIDTH 0 0
DWIDTH 0 0
BBX 3 4 -5 -5
BITMAP
60
B4
24
50
ENDCHAR
STARTCHAR uni0327
ENCODING 807
SWIDTH 0 0
DWIDTH 0 0
BBX 3 4 -5 -4
BITMAP
10
64
0C
A4
ENDCHAR
STARTCHAR uni0328
ENCODING 808
SWIDTH 0 0
DWIDTH 0 0
BBX 4 4 -6 -4
BITMAP
04
20
70
2D
ENDCHAR
STARTCHAR uni0329
ENCODING 809
SWIDTH 0 0
DWIDTH 0 0
BBX 1 3 -4 -4
BITMAP
80
80
80
ENDCHAR
STARTCHAR uni032A
ENCODING 810
SWIDTH 0 0
DWIDTH 0 0
BBX 5 3 -6 -4
BITMAP
AA40
8140
4000
ENDCHAR
STARTCHAR uni032B
ENCODING 811
SWIDTH 0 0
DWIDTH 0 0
BBX 5 2 -6 -3
BITMAP
8880
AA40
ENDCHAR
STARTCHAR uni032C
ENCODING 812
SWIDTH 0 0
DWIDTH 0 0
BBX 5 3 -6 -3
BITMAP
4040
6600
2D00
ENDCHAR
STARTCHAR uni032D
ENCODING 813
SWIDTH 0 0
DWIDTH 0 0
BBX 5 3 -6 -3
BITMAP
1400
2A00
9240
ENDCHAR
STARTCHAR uni032E
ENCODING 814
SWIDTH 0 0
DWIDTH 0 0
BBX 5 3 -6 -3
BITMAP
4040
8140
6A00
ENDCHAR
STARTCHAR uni032F
ENCODING 815
SWIDTH 0 0
DWIDTH 0 0
BBX 5 3 -6 -4
BITMAP
6A00
8140
4040
ENDCHAR
STARTCHAR uni0330
ENCODING 816
SWIDTH 0 0
DWIDTH 0 0
BBX 6 2 -7 -3
BITMAP
2950
5290
ENDCHAR
STARTCHAR uni0331
ENCODING 817
SWIDTH 0 0
DWIDTH 0 0
BBX 5 1 -6 -2
BITMAP
AA40
ENDCHAR
STARTCHAR uni0332
ENCODING 818
SWIDTH 0 0
DWIDTH 0 0
BBX 9 1 -8 -2
BITMAP
AAAA40
ENDCHAR
STARTCHAR uni0333
ENCODING 819
SWIDTH 0 0
DWIDTH 0 0
BBX 9 3 -8 -4
BITMAP
AAAA40
000000
AAAA40
ENDCHAR
STARTCHAR uni0334
ENCODING 820
SWIDTH 0 0
DWIDTH 0 0
BBX 6 2 -7 3
BITMAP
2960
5290
ENDCHAR
STARTCHAR uni0335
ENCODING 821
SWIDTH 0 0
DWIDTH 0 0
BBX 5 1 -6 4
BITMAP
AA80
ENDCHAR
STARTCHAR uni0336
ENCODING 822
SWIDTH 0 0
DWIDTH 0 0
BBX 9 1 -8 4
BITMAP
AAAA40
ENDCHAR
STARTCHAR uni0337
ENCODING 823
SWIDTH 0 0
DWIDTH 0 0
BBX 5 4 -6 4
BITMAP
0140
0600
2400
4000
ENDCHAR
STARTCHAR uni0338
ENCODING 824
SWIDTH 0 0
DWIDTH 0 0
BBX 7 14 -7 -3
BITMAP
0018
0024
0020
0090
0080
0180
0200
0600
0900
0800
1400
2000
6000
9000
ENDCHAR
STARTCHAR uni0339
ENCODING 825
SWIDTH 0 0
DWIDTH 0 0
BBX 3 4 -5 -4
BITMAP
60
14
14
60
ENDCHAR
STARTCHAR uni033A
ENCODING 826
SWIDTH 0 0
DWIDTH 0 0
BBX 5 2 -6 -3
BITMAP
8140
AA40
ENDCHAR
STARTCHAR uni033B
ENCODING 827
SWIDTH 0 0
DWIDTH 0 0
BBX 3 3 -5 -4
BITMAP
A8
88
A8
ENDCHAR
STARTCHAR uni033C
ENCODING 828
SWIDTH 0 0
DWIDTH 0 0
BBX 5 2 -6 -3
BITMAP
A640
0800
ENDCHAR
STARTCHAR uni033D
ENCODING 829
SWIDTH 0 0
DWIDTH 0 0
BBX 3 3 -5 9
BITMAP
44
64
A4
ENDCHAR
STARTCHAR uni033E
ENCODING 830
SWIDTH 0 0
DWIDTH 0 0
BBX 2 6 -5 8
BITMAP
10
60
60
30
20
50
ENDCHAR
STARTCHAR uni033F
ENCODING 831
SWIDTH 0 0
DWIDTH 0 0
BBX 7 3 -7 8
BITMAP
AAA4
0000
AAA4
ENDCHAR
STARTCHAR uni0346
ENCODING 838
SWIDTH 0 0
DWIDTH 0 0
BBX 5 3 -6 8
BITMAP
EA80
C180
4040
ENDCHAR
STARTCHAR uni0347
ENCODING 839
SWIDTH 0 0
DWIDTH 0 0
BBX 6 3 -7 -4
BITMAP
6AA0
0000
6AA0
ENDCHAR
STARTCHAR uni034C
ENCODING 844
SWIDTH 0 0
DWIDTH 0 0
BBX 5 4 -6 9
BITMAP
6440
4A40
6940
4A40
ENDCHAR
STARTCHAR uni034D
ENCODING 845
SWIDTH 0 0
DWIDTH 0 0
BBX 8 3 -8 -4
BITMAP
1408
7EAF
1408
ENDCHAR
STARTCHAR uni0359
ENCODING 857
SWIDTH 0 0
DWIDTH 0 0
BBX 5 5 -6 -6
BITMAP
0800
9A40
2900
9A40
0800
ENDCHAR
STARTCHAR uni035C
ENCODING 860
SWIDTH 0 0
DWIDTH 0 0
BBX 12 3 -6 -4
BITMAP
400001
240018
06AA90
ENDCHAR
STARTCHAR uni0360
ENCODING 864
SWIDTH 0 0
DWIDTH 0 0
BBX 8 2 -4 9
BITMAP
6A41
41A9
ENDCHAR
STARTCHAR uni0361
ENCODING 865
SWIDTH 0 0
DWIDTH 0 0
BBX 8 3 -4 8
BITMAP
1AA4
9006
4001
ENDCHAR
STARTCHAR uni0362
ENCODING 866
SWIDTH 0 0
DWIDTH 0 0
BBX 12 3 -6 -4
BITMAP
000004
AAAAAF
000009
ENDCHAR
STARTCHAR uni037E
ENCODING 894
SWIDTH 261 0
DWIDTH 4 0
BBX 3 10 1 -2
BITMAP
B0
50
00
00
00
00
10
B4
24
60
ENDCHAR
STARTCHAR tonos
ENCODING 900
SWIDTH 165 0
DWIDTH 3 0
BBX 2 3 0 9
BITMAP
70
60
50
ENDCHAR
STARTCHAR dieresistonos
ENCODING 901
SWIDTH 426 0
DWIDTH 7 0
BBX 7 3 0 9
BITMAP
0340
7774
1610
ENDCHAR
STARTCHAR Alphatonos
ENCODING 902
SWIDTH 718 0
DWIDTH 11 0
BBX 12 11 0 0
BITMAP
343400
307800
60AC00
009D00
024F00
030740
060380
0BABD0
1C01E0
2400F4
BD02FD
ENDCHAR
STARTCHAR anoteleia
ENCODING 903
SWIDTH 261 0
DWIDTH 4 0
BBX 2 2 1 6
BITMAP
B0
50
ENDCHAR
STARTCHAR Epsilontonos
ENCODING 904
SWIDTH 745 0
DWIDTH 12 0
BBX 13 11 -1 0
BITMAP
35BEAF00
30380200
60380100
00380800
00380800
003EB800
00380800
00380000
00380140
00380240
01BEAF00
ENDCHAR
STARTCHAR Etatonos
ENCODING 905
SWIDTH 896 0
DWIDTH 14 0
BBX 15 11 -1 0
BITMAP
35FE0BF8
303801D0
603801D0
003801D0
003801D0
003EAAD0
003801D0
003801D0
003801D0
003801D0
01FE0BF8
ENDCHAR
STARTCHAR Iotatonos
ENCODING 906
SWIDTH 478 0
DWIDTH 8 0
BBX 8 11 -1 0
BITMAP
35FE
3038
6038
0038
0038
0038
0038
0038
0038
0038
01FE
ENDCHAR
STARTCHAR Omicrontonos
ENCODING 908
SWIDTH 806 0
DWIDTH 13 0
BBX 13 11 -1 0
BITMAP
341AA400
30B01E00
61D00740
02C00380
038002C0
038002C0
038002C0
02C00280
01D00340
00B00A00
001AA400
ENDCHAR
STARTCHAR Upsilontonos
ENCODING 910
SWIDTH 787 0
DWIDTH 13 0
BBX 14 11 -1 0
BITMAP
72FD0BE0
60780340
502C0500
000E0800
00076400
0002E000
0001D000
0001D000
0001D000
0001D000
000BF800
ENDCHAR
STARTCHAR Omegatonos
ENCODING 911
SWIDTH 830 0
DWIDTH 13 0
BBX 14 11 -1 0
BITMAP
341BE400
30BA6E00
61E00B80
02C003C0
03C002C0
02C002C0
02C00380
00D00740
04700910
06682990
03FC3FD0
ENDCHAR
STARTCHAR iotadieresistonos
ENCODING 912
SWIDTH 259 0
DWIDTH 4 0
BBX 6 12 -1 0
BITMAP
0700
AAA0
5850
0000
0E00
0D00
0D00
0D00
0C00
0C00
0D40
0780
ENDCHAR
STARTCHAR Alpha
ENCODING 913
SWIDTH 718 0
DWIDTH 11 0
BBX 12 11 0 0
BITMAP
003400
007800
00AC00
009D00
024F00
030740
060380
0BABD0
1C01E0
2400F4
BD02FD
ENDCHAR
STARTCHAR Beta
ENCODING 914
SWIDTH 618 0
DWIDTH 10 0
BBX 10 11 0 0
BITMAP
6FBE00
0E0780
0E0380
0E0380
0E0600
0FBD00
0E0780
0E01D0
0E01D0
0E02C0
6FAE00
ENDCHAR
STARTCHAR Gamma
ENCODING 915
SWIDTH 569 0
DWIDTH 9 0
BBX 9 11 0 0
BITMAP
2FAB80
0E0180
0E0080
0E0000
0E0000
0E0000
0E0000
0E0000
0E0000
2F4000
7FD000
ENDCHAR
STARTCHAR Delta
ENCODING 916
SWIDTH 667 0
DWIDTH 11 0
BBX 10 11 0 0
BITMAP
003000
00B400
00B800
015C00
020E00
060B00
080740
180380
2402D0
3555E0
7FFFF0
ENDCHAR
STARTCHAR Epsilon
ENCODING 917
SWIDTH 626 0
DWIDTH 10 0
BBX 10 11 0 0
BITMAP
6FABC0
0E0080
0E0040
0E0200
0E0200
0FAE00
0E0200
0E0000
0E0050
0E0090
6FABD0
ENDCHAR
STARTCHAR Zeta
ENCODING 918
SWIDTH 594 0
DWIDTH 10 0
BBX 9 11 0 0
BITMAP
3EABC0
300B40
201E00
003C00
00B400
01E000
02C000
0B4000
1E0080
2C0180
7EAB80
ENDCHAR
STARTCHAR Eta
ENCODING 919
SWIDTH 777 0
DWIDTH 12 0
BBX 12 11 0 0
BITMAP
7F82FE
0E0074
0E0034
0E0034
0E0034
0FAAB4
0E0034
0E0034
0E0034
0E0074
7F82FE
ENDCHAR
STARTCHAR Theta
ENCODING 920
SWIDTH 738 0
DWIDTH 12 0
BBX 11 11 0 0
BITMAP
01BE40
0B96E0
1D00B4
3C0038
38823C
78FF2C
38963C
3C0038
2D00B4
0B96E0
01BE40
ENDCHAR
STARTCHAR Iota
ENCODING 921
SWIDTH 357 0
DWIDTH 6 0
BBX 5 11 0 0
BITMAP
7F80
0E00
0E00
0E00
0E00
0E00
0E00
0E00
0E00
0E00
7F80
ENDCHAR
STARTCHAR Kappa
ENCODING 922
SWIDTH 702 0
DWIDTH 11 0
BBX 11 11 0 0
BITMAP
7F87F4
0E0280
0E0600
0E1800
0E5000
0FD000
0EB400
0E2D00
0E0B40
0E02D0
7F87FC
ENDCHAR
STARTCHAR Lambda
ENCODING 923
SWIDTH 710 0
DWIDTH 11 0
BBX 12 11 0 0
BITMAP
003000
007800
00AC00
018D00
020B00
020740
090380
0801D0
1400E0
7901F8
FD03FD
ENDCHAR
STARTCHAR Mu
ENCODING 924
SWIDTH 895 0
DWIDTH 14 0
BBX 14 11 0 0
BITMAP
7F000BD0
0F400F40
0B801B40
0AD03740
09E06740
08B09740
08748740
08394740
081F0740
0C0E0740
7F092FD0
ENDCHAR
STARTCHAR Nu
ENCODING 925
SWIDTH 742 0
DWIDTH 12 0
BBX 12 11 0 0
BITMAP
7E01FD
1F4034
0FC020
09E020
08B820
082D20
080F20
0807A0
0801F0
0C00B0
7F0030
ENDCHAR
STARTCHAR Xi
ENCODING 926
SWIDTH 648 0
DWIDTH 10 0
BBX 10 11 0 0
BITMAP
3FFFD0
355590
100010
040200
050600
07FE00
055600
000000
500020
3555A0
3FFFD0
ENDCHAR
STARTCHAR Omicron
ENCODING 927
SWIDTH 738 0
DWIDTH 12 0
BBX 10 11 1 0
BITMAP
06A900
280780
7401D0
E000E0
E000B0
E000B0
E000B0
E000E0
B001D0
280380
06A900
ENDCHAR
STARTCHAR Pi
ENCODING 928
SWIDTH 759 0
DWIDTH 12 0
BBX 12 11 0 0
BITMAP
7FFFFE
6E55B9
0E0070
0E0070
0E0070
0E0070
0E0070
0E0070
0E0070
2F41F9
7FC3FE
ENDCHAR
STARTCHAR Rho
ENCODING 929
SWIDTH 569 0
DWIDTH 9 0
BBX 9 11 0 0
BITMAP
2FA900
0E0740
0E0380
0E0380
0E0700
0FA400
0E0000
0E0000
0E0000
0E0000
7F8000
ENDCHAR
STARTCHAR Sigma
ENCODING 931
SWIDTH 604 0
DWIDTH 10 0
BBX 9 11 0 0
BITMAP
7FFF80
3D5680
0E0080
074000
01D000
00A000
018000
020000
090080
2956C0
7FFF80
ENDCHAR
STARTCHAR Tau
ENCODING 932
SWIDTH 603 0
DWIDTH 10 0
BBX 10 11 0 0
BITMAP
BAFBD0
90E090
80E050
00E000
00E000
00E000
00E000
00E000
00E000
00E000
07F800
ENDCHAR
STARTCHAR Upsilon
ENCODING 933
SWIDTH 647 0
DWIDTH 10 0
BBX 11 11 0 0
BITMAP
FF03F4
2D00C0
0E0240
074600
02C800
00F400
00B000
00B000
00B000
00B000
02FD00
ENDCHAR
STARTCHAR Phi
ENCODING 934
SWIDTH 718 0
DWIDTH 11 0
BBX 11 11 0 0
BITMAP
02FF00
01BE00
1A7AE0
383478
74342C
74342C
743438
2D3474
06BA80
01B900
02FF00
ENDCHAR
STARTCHAR Chi
ENCODING 935
SWIDTH 664 0
DWIDTH 11 0
BBX 11 11 0 0
BITMAP
BF87F4
1F0180
074200
02C900
00E400
00B400
01AC00
020E00
090740
2803C0
BD0BF4
ENDCHAR
STARTCHAR Psi
ENCODING 936
SWIDTH 720 0
DWIDTH 12 0
BBX 12 11 0 0
BITMAP
E2FF1D
75BD3D
383834
383834
383834
383874
1E79F0
0BFF90
007800
017900
02FF00
ENDCHAR
STARTCHAR Omega
ENCODING 937
SWIDTH 777 0
DWIDTH 12 0
BBX 11 11 1 0
BITMAP
06FE00
2F9BC0
7801E0
B400B0
B000B4
B000B0
7400A0
3800D0
5C0284
9B0A68
FF4FF4
ENDCHAR
STARTCHAR Iotadieresis
ENCODING 938
SWIDTH 357 0
DWIDTH 6 0
BBX 6 14 0 0
BITMAP
6090
A0D0
0000
7F80
0E00
0E00
0E00
0E00
0E00
0E00
0E00
0E00
0E00
7F80
ENDCHAR
STARTCHAR Upsilondieresis
ENCODING 939
SWIDTH 647 0
DWIDTH 10 0
BBX 11 14 0 0
BITMAP
024600
034700
000000
FF03F4
2D00C0
0E0240
074600
02C800
00F400
00B000
00B000
00B000
00B000
02FD00
ENDCHAR
STARTCHAR alphatonos
ENCODING 940
SWIDTH 561 0
DWIDTH 9 0
BBX 9 12 0 0
BITMAP
00D000
00C000
018000
000000
0BD740
296A00
601D00
501800
502800
502800
358D40
1F4B40
ENDCHAR
STARTCHAR epsilontonos
ENCODING 941
SWIDTH 381 0
DWIDTH 6 0
BBX 6 12 0 0
BITMAP
01C0
0180
0240
0000
1BD0
3990
2000
1600
2500
6000
79A0
1F90
ENDCHAR
STARTCHAR etatonos
ENCODING 942
SWIDTH 510 0
DWIDTH 8 0
BBX 7 16 0 -4
BITMAP
00A0
0090
0080
0000
74B4
A9A8
0A0C
0D08
0C08
1C08
180C
280C
000C
001C
001C
0014
ENDCHAR
STARTCHAR iotatonos
ENCODING 943
SWIDTH 259 0
DWIDTH 4 0
BBX 3 12 1 0
BITMAP
70
60
50
00
E0
D0
D0
D0
C0
C0
D4
78
ENDCHAR
STARTCHAR upsilondieresistonos
ENCODING 944
SWIDTH 491 0
DWIDTH 8 0
BBX 7 12 0 0
BITMAP
0380
3774
1210
0000
7820
A818
180C
240C
240C
241C
19B4
0BD0
ENDCHAR
STARTCHAR alpha
ENCODING 945
SWIDTH 561 0
DWIDTH 9 0
BBX 9 8 0 0
BITMAP
0BD740
296A00
601D00
501800
502800
502800
358D40
1F4B40
ENDCHAR
STARTCHAR beta
ENCODING 946
SWIDTH 530 0
DWIDTH 8 0
BBX 8 16 0 -4
BITMAP
01F8
075D
0C05
1805
1414
26E0
2408
3006
3406
3806
3A6E
36F8
3400
7400
7400
1000
ENDCHAR
STARTCHAR gamma
ENCODING 947
SWIDTH 466 0
DWIDTH 7 0
BBX 7 12 0 -4
BITMAP
782C
AC38
0970
05A0
0590
0280
0340
0300
0600
0A00
0E00
0900
ENDCHAR
STARTCHAR delta
ENCODING 948
SWIDTH 479 0
DWIDTH 8 0
BBX 7 12 0 0
BITMAP
0BD0
0DB8
0814
0740
02D0
1EB4
2428
500C
500C
501C
39B4
1F90
ENDCHAR
STARTCHAR epsilon
ENCODING 949
SWIDTH 381 0
DWIDTH 6 0
BBX 6 8 0 0
BITMAP
1BD0
3990
2000
1600
2500
6000
79A0
1F90
ENDCHAR
STARTCHAR zeta
ENCODING 950
SWIDTH 386 0
DWIDTH 6 0
BBX 7 16 0 -4
BITMAP
0500
0924
06B4
0380
0D00
2800
3000
5000
5000
5000
3900
1FE0
0174
0020
0690
0640
ENDCHAR
STARTCHAR eta
ENCODING 951
SWIDTH 510 0
DWIDTH 8 0
BBX 7 12 0 -4
BITMAP
74B4
A9A8
0A0C
0D08
0C08
1C08
180C
280C
000C
001C
001C
0014
ENDCHAR
STARTCHAR theta
ENCODING 952
SWIDTH 514 0
DWIDTH 8 0
BBX 8 12 0 0
BITMAP
07E0
0E78
240C
2009
2005
3FFD
6559
2005
3009
240C
1E74
07E0
ENDCHAR
STARTCHAR iota
ENCODING 953
SWIDTH 259 0
DWIDTH 4 0
BBX 3 8 1 0
BITMAP
E0
D0
D0
D0
C0
C0
D4
78
ENDCHAR
STARTCHAR kappa
ENCODING 954
SWIDTH 495 0
DWIDTH 8 0
BBX 8 8 0 0
BITMAP
7819
AC7C
0CD0
0A40
0E40
1C80
1CA5
282D
ENDCHAR
STARTCHAR lambda
ENCODING 955
SWIDTH 506 0
DWIDTH 8 0
BBX 8 12 0 0
BITMAP
0F00
1640
0080
0080
00C0
02C0
0350
0A50
0C60
2830
343A
B01D
ENDCHAR
STARTCHAR mu
ENCODING 956
SWIDTH 552 0
DWIDTH 9 0
BBX 9 12 0 -4
BITMAP
280D00
241C00
241C00
241800
202800
242800
399D40
378B40
700000
700000
700000
100000
ENDCHAR
STARTCHAR nu
ENCODING 957
SWIDTH 453 0
DWIDTH 7 0
BBX 7 8 0 0
BITMAP
7424
AC28
0C2C
0828
0834
08A0
09C0
0B00
ENDCHAR
STARTCHAR xi
ENCODING 958
SWIDTH 390 0
DWIDTH 6 0
BBX 7 16 0 -4
BITMAP
1800
28B0
0BA0
1D00
2400
2400
0AD0
2440
5000
5000
7900
1FE0
01B4
0014
0560
0780
ENDCHAR
STARTCHAR omicron
ENCODING 959
SWIDTH 475 0
DWIDTH 8 0
BBX 7 8 0 0
BITMAP
0BE0
2974
600C
5008
5008
6008
39B4
1BD0
ENDCHAR
STARTCHAR pi
ENCODING 960
SWIDTH 591 0
DWIDTH 9 0
BBX 9 8 0 0
BITMAP
2FFFC0
665940
020800
020800
051800
091800
1C1D40
280F40
ENDCHAR
STARTCHAR rho
ENCODING 961
SWIDTH 515 0
DWIDTH 8 0
BBX 7 12 1 -4
BITMAP
1BD0
39B0
6014
8008
C018
D024
E9B0
DB80
D000
D000
D000
4000
ENDCHAR
STARTCHAR uni03C2
ENCODING 962
SWIDTH 377 0
DWIDTH 6 0
BBX 6 12 0 -4
BITMAP
0BE0
2950
6000
5000
5000
7400
2E40
0BD0
0070
0020
0590
0740
ENDCHAR
STARTCHAR sigma
ENCODING 963
SWIDTH 545 0
DWIDTH 9 0
BBX 9 8 0 0
BITMAP
0BFF80
2E6940
200800
500800
500900
600C00
39B800
1BE000
ENDCHAR
STARTCHAR tau
ENCODING 964
SWIDTH 392 0
DWIDTH 6 0
BBX 7 8 0 0
BITMAP
2FF4
9650
0600
0500
0900
0900
0B50
0780
ENDCHAR
STARTCHAR upsilon
ENCODING 965
SWIDTH 491 0
DWIDTH 8 0
BBX 7 8 0 0
BITMAP
7820
A818
180C
240C
240C
241C
19B4
0BD0
ENDCHAR
STARTCHAR phi
ENCODING 966
SWIDTH 603 0
DWIDTH 10 0
BBX 9 12 0 -3
BITMAP
010000
0B1E00
297680
609080
508080
50C080
30C280
2EEF00
06E400
00C000
00D000
01D000
ENDCHAR
STARTCHAR chi
ENCODING 967
SWIDTH 462 0
DWIDTH 7 0
BBX 9 12 -1 -4
BITMAP
2D0380
2B0B00
024D00
01A800
00B000
00D000
01D000
035000
0A2000
1C2000
382940
B00F00
ENDCHAR
STARTCHAR psi
ENCODING 968
SWIDTH 620 0
DWIDTH 10 0
BBX 10 16 0 -4
BITMAP
005000
007000
006000
006000
786200
A86180
1860C0
1460D0
2460C0
2462C0
1EAB40
07F900
00A000
00A000
00A000
004000
ENDCHAR
STARTCHAR omega
ENCODING 969
SWIDTH 660 0
DWIDTH 11 0
BBX 10 8 0 0
BITMAP
060140
2D0090
307060
507070
506030
606070
39A6E0
1F4F80
ENDCHAR
STARTCHAR iotadieresis
ENCODING 970
SWIDTH 259 0
DWIDTH 4 0
BBX 6 11 -1 0
BITMAP
70D0
1040
0000
0E00
0D00
0D00
0D00
0C00
0C00
0D40
0780
ENDCHAR
STARTCHAR upsilondieresis
ENCODING 971
SWIDTH 491 0
DWIDTH 8 0
BBX 7 11 0 0
BITMAP
3870
1010
0000
7820
A818
180C
240C
240C
241C
19B4
0BD0
ENDCHAR
STARTCHAR omicrontonos
ENCODING 972
SWIDTH 475 0
DWIDTH 8 0
BBX 7 12 0 0
BITMAP
00D0
00C0
0080
0000
0BE0
2974
600C
5008
5008
6008
39B4
1BD0
ENDCHAR
STARTCHAR upsilontonos
ENCODING 973
SWIDTH 491 0
DWIDTH 8 0
BBX 7 12 0 0
BITMAP
01C0
0180
0140
0000
7820
A818
180C
240C
240C
241C
19B4
0BD0
ENDCHAR
STARTCHAR omegatonos
ENCODING 974
SWIDTH 660 0
DWIDTH 11 0
BBX 10 12 0 0
BITMAP
003400
003000
002000
000000
060140
2D0090
307060
507070
506030
606070
39A6E0
1F4F80
ENDCHAR
STARTCHAR uni03D0
ENCODING 976
SWIDTH 438 0
DWIDTH 7 0
BBX 6 12 1 0
BITMAP
0780
1990
2020
6450
9FC0
C100
EF80
E590
D010
A010
79D0
2F40
ENDCHAR
STARTCHAR uni03D1
ENCODING 977
SWIDTH 541 0
DWIDTH 9 0
BBX 8 12 0 0
BITMAP
06E0
0A74
0818
0808
0809
0646
01FF
3C15
5D05
0809
0A68
06E0
ENDCHAR
STARTCHAR uni03D2
ENCODING 978
SWIDTH 616 0
DWIDTH 10 0
BBX 10 11 0 0
BITMAP
2E02D0
5B8AA0
0298A0
01E400
00F000
00E000
00E000
00E000
00E000
06F400
07FD00
ENDCHAR
STARTCHAR uni03D5
ENCODING 981
SWIDTH 575 0
DWIDTH 9 0
BBX 9 15 0 -4
BITMAP
00A000
00A000
00A000
01A000
0BFD00
299740
60D180
50C080
50C180
34C740
1FFD00
06D000
01C000
01C000
02C000
ENDCHAR
STARTCHAR uni03D6
ENCODING 982
SWIDTH 821 0
DWIDTH 13 0
BBX 13 8 0 0
BITMAP
2FFFFFC0
97955D40
05050900
080A0900
08090A00
09090900
076A6C00
02E1F400
ENDCHAR
STARTCHAR uni03D8
ENCODING 984
SWIDTH 627 0
DWIDTH 10 0
BBX 10 11 0 0
BITMAP
06F900
2E5B80
3802D0
7401D0
7401D0
7401D0
280280
0A5A00
00A000
00A000
02F800
ENDCHAR
STARTCHAR uni03D9
ENCODING 985
SWIDTH 475 0
DWIDTH 8 0
BBX 7 12 0 -4
BITMAP
0BE0
2974
600C
5008
5008
6018
3EB4
0B90
0300
0340
0340
0100
ENDCHAR
STARTCHAR uni03DA
ENCODING 986
SWIDTH 578 0
DWIDTH 9 0
BBX 9 11 0 0
BITMAP
06FF40
1E5B40
380240
740140
740000
780000
2E4000
0BF800
007800
003800
01BE00
ENDCHAR
STARTCHAR uni03DB
ENCODING 987
SWIDTH 490 0
DWIDTH 8 0
BBX 8 12 0 -4
BITMAP
06FE
2A55
2000
5000
5000
7400
2E40
0BD0
00A0
0020
0590
0A40
ENDCHAR
STARTCHAR uni03DC
ENCODING 988
SWIDTH 588 0
DWIDTH 9 0
BBX 9 11 0 0
BITMAP
6FABC0
0E0080
0E0040
0E0200
0E0200
0FAE00
0E0200
0E0000
0E0000
0E0000
7F9000
ENDCHAR
STARTCHAR uni03DD
ENCODING 989
SWIDTH 386 0
DWIDTH 6 0
BBX 8 13 -2 -5
BITMAP
02FF
0295
0240
0240
0240
02FC
0254
0200
0200
0200
4900
7C00
1000
ENDCHAR
STARTCHAR uni03DE
ENCODING 990
SWIDTH 525 0
DWIDTH 8 0
BBX 8 11 0 0
BITMAP
0FD0
0790
0600
0800
2400
7FFF
1559
0014
0020
01E4
03F4
ENDCHAR
STARTCHAR uni03DF
ENCODING 991
SWIDTH 434 0
DWIDTH 7 0
BBX 8 11 -1 0
BITMAP
2D00
5900
0500
0500
0818
0BF4
1A54
0020
0030
0036
002D
ENDCHAR
STARTCHAR uni03E0
ENCODING 992
SWIDTH 697 0
DWIDTH 11 0
BBX 12 11 0 0
BITMAP
01E000
00B000
007800
00AC00
019E00
020F00
062780
0822C0
1890E0
3082F8
6243FD
ENDCHAR
STARTCHAR uni03E1
ENCODING 993
SWIDTH 458 0
DWIDTH 7 0
BBX 8 15 -1 -4
BITMAP
7400
2E00
0780
00E0
0074
06A8
1E0C
0009
01BA
0286
0006
0006
0005
0005
0004
ENDCHAR
STARTCHAR uni03F0
ENCODING 1008
SWIDTH 504 0
DWIDTH 8 0
BBX 8 8 0 0
BITMAP
740E
AC2C
0874
08E0
0AD0
0F50
1D35
781E
ENDCHAR
STARTCHAR uni03F1
ENCODING 1009
SWIDTH 467 0
DWIDTH 7 0
BBX 6 12 1 -4
BITMAP
1F80
75D0
8020
8020
C020
E5A0
AF80
9500
3900
0700
1600
2900
ENDCHAR
STARTCHAR uni03F4
ENCODING 1012
SWIDTH 737 0
DWIDTH 12 0
BBX 11 11 0 0
BITMAP
01BE40
0B9AE0
1D00B4
380038
38002C
7FFFFC
39557C
380038
2D0074
0B96E0
01BE40
ENDCHAR
STARTCHAR uni03F5
ENCODING 1013
SWIDTH 380 0
DWIDTH 6 0
BBX 6 8 0 0
BITMAP
0BD0
2990
5000
7F80
6500
6000
39A0
0B90
ENDCHAR
STARTCHAR uni03F6
ENCODING 1014
SWIDTH 382 0
DWIDTH 6 0
BBX 6 8 0 0
BITMAP
7E00
6580
0050
2FD0
0590
0090
66C0
2E40
ENDCHAR
STARTCHAR uni0400
ENCODING 1024
SWIDTH 626 0
DWIDTH 10 0
BBX 10 14 0 0
BITMAP
01D000
002400
000000
6FABC0
0E0080
0E0040
0E0200
0E0200
0FAE00
0E0200
0E0000
0E0050
0E0090
6FABD0
ENDCHAR
STARTCHAR uni0401
ENCODING 1025
SWIDTH 626 0
DWIDTH 10 0
BBX 10 14 0 0
BITMAP
060900
070A00
000000
6FABC0
0E0080
0E0040
0E0200
0E0200
0FAE00
0E0200
0E0000
0E0050
0E0090
6FABD0
ENDCHAR
STARTCHAR uni0402
ENCODING 1026
SWIDTH 731 0
DWIDTH 12 0
BBX 11 11 0 0
BITMAP
BAFAD0
90E060
80E020
00E000
00E000
00EAA0
00E038
00E01C
00E01C
00E61C
06E7A0
ENDCHAR
STARTCHAR uni0403
ENCODING 1027
SWIDTH 548 0
DWIDTH 9 0
BBX 9 14 0 0
BITMAP
007400
018000
000000
2FAF40
0E0240
0E0140
0E0000
0E0000
0E0000
0E0000
0E0000
0E0000
0E0000
7FD000
ENDCHAR
STARTCHAR uni0404
ENCODING 1028
SWIDTH 668 0
DWIDTH 11 0
BBX 10 11 0 0
BITMAP
01AFE0
0A01E0
2C0060
380020
340000
7EA900
340000
380000
2C0000
0A0060
02AA40
ENDCHAR
STARTCHAR uni0405
ENCODING 1029
SWIDTH 504 0
DWIDTH 8 0
BBX 8 11 0 0
BITMAP
1AFC
341C
7408
3800
1F40
07E0
007C
001D
500D
601D
7EA4
ENDCHAR
STARTCHAR uni0406
ENCODING 1030
SWIDTH 357 0
DWIDTH 6 0
BBX 5 11 0 0
BITMAP
7F80
0E00
0E00
0E00
0E00
0E00
0E00
0E00
0E00
0E00
7F80
ENDCHAR
STARTCHAR uni0407
ENCODING 1031
SWIDTH 357 0
DWIDTH 6 0
BBX 6 14 0 0
BITMAP
6090
A0D0
0000
7F80
0E00
0E00
0E00
0E00
0E00
0E00
0E00
0E00
0E00
7F80
ENDCHAR
STARTCHAR uni0408
ENCODING 1032
SWIDTH 396 0
DWIDTH 6 0
BBX 6 11 0 0
BITMAP
1FE0
0380
0380
0380
0380
0380
0380
0380
0380
E340
BA00
ENDCHAR
STARTCHAR uni0409
ENCODING 1033
SWIDTH 924 0
DWIDTH 15 0
BBX 15 11 0 0
BITMAP
06EBE000
01828000
01828000
01428000
01428000
0202EA80
020281E0
02028074
05028074
AC0380E0
F40BEA80
ENDCHAR
STARTCHAR uni040A
ENCODING 1034
SWIDTH 1013 0
DWIDTH 16 0
BBX 16 11 0 0
BITMAP
7F82FE00
0E007400
0E007000
0E007000
0E007000
0FAAFAA4
0E00702D
0E00700E
0E00700E
0E00702D
7F82FAA4
ENDCHAR
STARTCHAR uni040B
ENCODING 1035
SWIDTH 761 0
DWIDTH 12 0
BBX 12 11 0 0
BITMAP
BAFAD0
90E060
80E020
00E000
00E000
00EAA0
00E078
00E028
00E028
00E038
07F8BE
ENDCHAR
STARTCHAR uni040C
ENCODING 1036
SWIDTH 658 0
DWIDTH 11 0
BBX 11 14 0 0
BITMAP
001D00
006000
000000
7F80F4
0E0260
0E0200
0E0500
0E0800
0FB800
0E2D00
0E0E00
0E0740
0E02C0
7F81F8
ENDCHAR
STARTCHAR uni040D
ENCODING 1037
SWIDTH 780 0
DWIDTH 12 0
BBX 12 14 0 0
BITMAP
01D000
002400
000000
7F82FE
0E0074
0E00B4
0E01B4
0E0634
0E0834
0E2034
0E8034
0F4034
0E0074
7F82FE
ENDCHAR
STARTCHAR uni040E
ENCODING 1038
SWIDTH 625 0
DWIDTH 10 0
BBX 11 15 0 0
BITMAP
010500
070700
01A900
000000
FF03F4
2C01C0
0D0140
0B0200
034500
02C800
00E800
007000
006000
198000
1F4000
ENDCHAR
STARTCHAR uni040F
ENCODING 1039
SWIDTH 759 0
DWIDTH 12 0
BBX 12 15 0 -4
BITMAP
7F82FD
0E00B0
0E0070
0E0070
0E0070
0E0070
0E0070
0E0070
0E0070
0E0070
6FAAF9
001400
002800
002C00
002800
ENDCHAR
STARTCHAR uni0410
ENCODING 1040
SWIDTH 718 0
DWIDTH 11 0
BBX 12 11 0 0
BITMAP
003400
007800
00AC00
009D00
024F00
030740
060380
0BABD0
1C01E0
2400F4
BD02FD
ENDCHAR
STARTCHAR uni0411
ENCODING 1041
SWIDTH 617 0
DWIDTH 10 0
BBX 9 11 0 0
BITMAP
2FAB80
0E0180
0E0080
0E0000
0E0000
0FAA00
0E0780
0E02C0
0E01C0
0E0380
6FA900
ENDCHAR
STARTCHAR uni0412
ENCODING 1042
SWIDTH 618 0
DWIDTH 10 0
BBX 10 11 0 0
BITMAP
6FBE00
0E0780
0E0380
0E0380
0E0600
0FBD00
0E0780
0E01D0
0E01D0
0E02C0
6FAE00
ENDCHAR
STARTCHAR uni0413
ENCODING 1043
SWIDTH 548 0
DWIDTH 9 0
BBX 9 11 0 0
BITMAP
2FAF40
0E0240
0E0140
0E0000
0E0000
0E0000
0E0000
0E0000
0E0000
0E0000
7FD000
ENDCHAR
STARTCHAR uni0414
ENCODING 1044
SWIDTH 663 0
DWIDTH 11 0
BBX 10 14 0 -3
BITMAP
0BABE0
020340
020340
020340
020340
060340
050340
080340
180340
240380
FAABE0
D00070
C00030
800020
ENDCHAR
STARTCHAR uni0415
ENCODING 1045
SWIDTH 626 0
DWIDTH 10 0
BBX 10 11 0 0
BITMAP
6FABC0
0E0080
0E0040
0E0200
0E0200
0FAE00
0E0200
0E0000
0E0050
0E0090
6FABD0
ENDCHAR
STARTCHAR uni0416
ENCODING 1046
SWIDTH 937 0
DWIDTH 15 0
BBX 15 11 0 0
BITMAP
B82FE0B4
55074154
02074200
02074200
01474500
00FBBC00
02C74E00
07474740
0B074380
1D0741D0
B82FE0B8
ENDCHAR
STARTCHAR uni0417
ENCODING 1047
SWIDTH 545 0
DWIDTH 9 0
BBX 7 11 1 0
BITMAP
AAE0
D074
C038
8034
0090
0BD0
0078
002C
002C
8078
2A90
ENDCHAR
STARTCHAR uni0418
ENCODING 1048
SWIDTH 780 0
DWIDTH 12 0
BBX 12 11 0 0
BITMAP
7F82FE
0E0074
0E00B4
0E01B4
0E0634
0E0834
0E2034
0E8034
0F4034
0E0074
7F82FE
ENDCHAR
STARTCHAR uni0419
ENCODING 1049
SWIDTH 780 0
DWIDTH 12 0
BBX 12 15 0 0
BITMAP
004140
01C2C0
01C280
006A00
7F82FE
0E0074
0E00B4
0E01B4
0E0634
0E0834
0E2034
0E8034
0F4034
0E0074
7F82FE
ENDCHAR
STARTCHAR uni041A
ENCODING 1050
SWIDTH 658 0
DWIDTH 11 0
BBX 11 11 0 0
BITMAP
7F80F4
0E0260
0E0200
0E0500
0E0800
0FB800
0E2D00
0E0E00
0E0740
0E02C0
7F81F8
ENDCHAR
STARTCHAR uni041B
ENCODING 1051
SWIDTH 684 0
DWIDTH 11 0
BBX 11 11 0 0
BITMAP
06EBE4
0182C0
018280
014280
014280
020280
020280
020280
050280
AC02C0
F40BF4
ENDCHAR
STARTCHAR uni041C
ENCODING 1052
SWIDTH 895 0
DWIDTH 14 0
BBX 14 11 0 0
BITMAP
7F000BD0
0F400F40
0B801B40
0AD03740
09E06740
08B09740
08748740
08394740
081F0740
0C0E0740
7F092FD0
ENDCHAR
STARTCHAR uni041D
ENCODING 1053
SWIDTH 777 0
DWIDTH 12 0
BBX 12 11 0 0
BITMAP
7F82FE
0E0074
0E0034
0E0034
0E0034
0FAAB4
0E0034
0E0034
0E0034
0E0074
7F82FE
ENDCHAR
STARTCHAR uni041E
ENCODING 1054
SWIDTH 738 0
DWIDTH 12 0
BBX 10 11 1 0
BITMAP
06A900
280780
7401D0
E000E0
E000B0
E000B0
E000B0
E000E0
B001D0
280380
06A900
ENDCHAR
STARTCHAR uni041F
ENCODING 1055
SWIDTH 759 0
DWIDTH 12 0
BBX 12 11 0 0
BITMAP
7FFFFE
6E55B9
0E0070
0E0070
0E0070
0E0070
0E0070
0E0070
0E0070
2F41F9
7FC3FE
ENDCHAR
STARTCHAR uni0420
ENCODING 1056
SWIDTH 569 0
DWIDTH 9 0
BBX 9 11 0 0
BITMAP
2FA900
0E0740
0E0380
0E0380
0E0700
0FA400
0E0000
0E0000
0E0000
0E0000
7F8000
ENDCHAR
STARTCHAR uni0421
ENCODING 1057
SWIDTH 670 0
DWIDTH 11 0
BBX 10 11 0 0
BITMAP
01ABE0
0A00E0
1D0060
380020
380000
740000
380000
380000
2C0000
0B4060
01EA40
ENDCHAR
STARTCHAR uni0422
ENCODING 1058
SWIDTH 603 0
DWIDTH 10 0
BBX 10 11 0 0
BITMAP
BAFBD0
90E090
80E050
00E000
00E000
00E000
00E000
00E000
00E000
00E000
07F800
ENDCHAR
STARTCHAR uni0423
ENCODING 1059
SWIDTH 625 0
DWIDTH 10 0
BBX 11 11 0 0
BITMAP
FF03F4
2C01C0
0D0140
0B0200
034500
02C800
00E800
007000
006000
198000
1F4000
ENDCHAR
STARTCHAR uni0424
ENCODING 1060
SWIDTH 725 0
DWIDTH 12 0
BBX 11 11 0 0
BITMAP
01FE00
007800
0BBAD0
383478
74342C
70342C
74342C
283474
0ABA90
003800
01FE00
ENDCHAR
STARTCHAR uni0425
ENCODING 1061
SWIDTH 664 0
DWIDTH 11 0
BBX 11 11 0 0
BITMAP
BF87F4
1F0180
074200
02C900
00E400
00B400
01AC00
020E00
090740
2803C0
BD0BF4
ENDCHAR
STARTCHAR uni0426
ENCODING 1062
SWIDTH 756 0
DWIDTH 12 0
BBX 12 14 0 -3
BITMAP
7F82FD
0E00B0
0E00B0
0E00B0
0E00B0
0E00B0
0E00B0
0E00B0
0E00B0
0E00B0
6FAAFD
00000D
000005
000005
ENDCHAR
STARTCHAR uni0427
ENCODING 1063
SWIDTH 650 0
DWIDTH 10 0
BBX 10 11 0 0
BITMAP
BF1FE0
2C0740
2C0740
2C0740
2C0740
1D0740
0AAB40
000740
000740
000740
002FE0
ENDCHAR
STARTCHAR uni0428
ENCODING 1064
SWIDTH 1053 0
DWIDTH 17 0
BBX 17 11 0 0
BITMAP
7F8BF4FF40
0E01D02800
0E01C02800
0E01C02800
0E01C02800
0E01C02800
0E01C02800
0E01C02800
0E01C02800
0E01C02800
6FAAEABE00
ENDCHAR
STARTCHAR uni0429
ENCODING 1065
SWIDTH 1044 0
DWIDTH 17 0
BBX 16 14 0 -3
BITMAP
7F8BF5FE
0E02C038
0E01C038
0E01C038
0E01C038
0E01C038
0E01C038
0E01C038
0E01C038
0E01C038
6FABEABE
00000007
00000003
00000002
ENDCHAR
STARTCHAR uni042A
ENCODING 1066
SWIDTH 723 0
DWIDTH 12 0
BBX 11 11 0 0
BITMAP
BAF800
90E000
80E000
00E000
00E000
00FA90
00E078
00E02C
00E02C
00E078
02FA90
ENDCHAR
STARTCHAR uni042B
ENCODING 1067
SWIDTH 887 0
DWIDTH 14 0
BBX 14 11 0 0
BITMAP
7F802FD0
0E000B00
0E000700
0E000700
0E000700
0FB90700
0E074700
0E028700
0E02C700
0E074B40
7FA92FD0
ENDCHAR
STARTCHAR uni042C
ENCODING 1068
SWIDTH 606 0
DWIDTH 10 0
BBX 9 11 0 0
BITMAP
7F8000
0E0000
0E0000
0E0000
0E0000
0FA900
0E0780
0E02C0
0E02C0
0E0380
6FA900
ENDCHAR
STARTCHAR uni042D
ENCODING 1069
SWIDTH 667 0
DWIDTH 11 0
BBX 9 11 1 0
BITMAP
FEA400
E01E00
C00740
800380
000380
0AABC0
000280
000340
000700
901D00
2AA400
ENDCHAR
STARTCHAR uni042E
ENCODING 1070
SWIDTH 1042 0
DWIDTH 17 0
BBX 16 11 0 0
BITMAP
7F806A90
0E02D078
0E07401D
0E0B000E
0E0E000A
0FAE000B
0E0E000A
0E0B000E
0E07401C
0E02C034
7F806A90
ENDCHAR
STARTCHAR uni042F
ENCODING 1071
SWIDTH 654 0
DWIDTH 10 0
BBX 10 11 0 0
BITMAP
06ABD0
0E0340
1D0340
1D0340
0B0340
01FB40
02C340
074340
0E0340
2D0740
FC2FE0
ENDCHAR
STARTCHAR uni0430
ENCODING 1072
SWIDTH 480 0
DWIDTH 8 0
BBX 8 8 0 0
BITMAP
1AD0
3470
2070
01B0
1970
7070
7070
2E79
ENDCHAR
STARTCHAR uni0431
ENCODING 1073
SWIDTH 520 0
DWIDTH 8 0
BBX 8 12 0 0
BITMAP
0005
02F8
0F90
2400
26B4
681C
740E
740A
740A
340E
281C
0BA4
ENDCHAR
STARTCHAR uni0432
ENCODING 1074
SWIDTH 505 0
DWIDTH 8 0
BBX 8 8 0 0
BITMAP
7EA4
1C1C
1C1D
1C28
1EF4
1C1D
1C0D
7EB8
ENDCHAR
STARTCHAR uni0433
ENCODING 1075
SWIDTH 429 0
DWIDTH 7 0
BBX 7 8 0 0
BITMAP
6EB4
1C18
1C04
1C00
1C00
1C00
1C00
7F40
ENDCHAR
STARTCHAR uni0434
ENCODING 1076
SWIDTH 530 0
DWIDTH 8 0
BBX 8 10 0 -2
BITMAP
1EBE
0528
0528
0828
0828
0828
2428
FABE
D007
8002
ENDCHAR
STARTCHAR uni0435
ENCODING 1077
SWIDTH 464 0
DWIDTH 7 0
BBX 7 8 0 0
BITMAP
0AD0
2434
7028
7AA8
7000
7000
2804
0BA0
ENDCHAR
STARTCHAR uni0436
ENCODING 1078
SWIDTH 754 0
DWIDTH 12 0
BBX 12 8 0 0
BITMAP
B47E1E
582825
052810
022880
03FEC0
0B28A0
1D2878
B87E1E
ENDCHAR
STARTCHAR uni0437
ENCODING 1079
SWIDTH 435 0
DWIDTH 7 0
BBX 7 8 0 0
BITMAP
6A90
60B0
50B0
0B80
00A0
0074
5070
2A90
ENDCHAR
STARTCHAR uni0438
ENCODING 1080
SWIDTH 609 0
DWIDTH 10 0
BBX 9 8 0 0
BITMAP
7F1FC0
1C0700
1C0B00
1C2700
1C8700
1E0700
1C0700
7F1FC0
ENDCHAR
STARTCHAR uni0439
ENCODING 1081
SWIDTH 609 0
DWIDTH 10 0
BBX 9 12 0 0
BITMAP
050400
0A0D00
0A0D00
02A400
7F1FC0
1C0700
1C0B00
1C2700
1C8700
1E0700
1C0700
7F1FC0
ENDCHAR
STARTCHAR uni043A
ENCODING 1082
SWIDTH 521 0
DWIDTH 8 0
BBX 9 8 0 0
BITMAP
7F0F00
1C2500
1C2000
1C5000
1ED000
1CB000
1C3800
7E1F40
ENDCHAR
STARTCHAR uni043B
ENCODING 1083
SWIDTH 553 0
DWIDTH 9 0
BBX 9 8 0 0
BITMAP
0BAE00
020D00
020D00
020D00
050D00
080D00
980D00
F47F40
ENDCHAR
STARTCHAR uni043C
ENCODING 1084
SWIDTH 697 0
DWIDTH 11 0
BBX 11 8 0 0
BITMAP
BD01F8
2E02E0
2B42A0
2785A0
26C8A0
24E4A0
24B0E0
BD22F8
ENDCHAR
STARTCHAR uni043D
ENCODING 1085
SWIDTH 605 0
DWIDTH 10 0
BBX 9 8 0 0
BITMAP
7F1FC0
1C0700
1C0700
1EAB00
1C0700
1C0700
1C0700
7F1FC0
ENDCHAR
STARTCHAR uni043E
ENCODING 1086
SWIDTH 514 0
DWIDTH 8 0
BBX 8 8 0 0
BITMAP
0AA4
282C
740D
700E
700A
740D
281C
0BA0
ENDCHAR
STARTCHAR uni043F
ENCODING 1087
SWIDTH 591 0
DWIDTH 9 0
BBX 9 8 0 0
BITMAP
6EAB80
1C0B00
1C0A00
1C0A00
1C0A00
1C0A00
1C0B00
7F1F80
ENDCHAR
STARTCHAR uni0440
ENCODING 1088
SWIDTH 537 0
DWIDTH 9 0
BBX 8 12 0 -4
BITMAP
69B8
1D0E
1C0B
1C07
1C07
1C0A
1D0D
1EA4
1C00
1C00
2C00
BF40
ENDCHAR
STARTCHAR uni0441
ENCODING 1089
SWIDTH 446 0
DWIDTH 7 0
BBX 7 8 0 0
BITMAP
0AE0
2474
7014
6000
7000
7000
3804
0B90
ENDCHAR
STARTCHAR uni0442
ENCODING 1090
SWIDTH 456 0
DWIDTH 7 0
BBX 7 8 0 0
BITMAP
BBBC
8348
4344
0340
0340
0340
0340
1FD0
ENDCHAR
STARTCHAR uni0443
ENCODING 1091
SWIDTH 483 0
DWIDTH 8 0
BBX 8 12 0 -4
BITMAP
FD2E
740C
2814
1D20
0A20
0750
03C0
0280
0240
0200
A900
B800
ENDCHAR
STARTCHAR uni0444
ENCODING 1092
SWIDTH 710 0
DWIDTH 11 0
BBX 11 16 0 -4
BITMAP
001000
00B400
003400
003400
0ABAD0
287834
743428
703428
703428
743428
387830
1ABAD0
003400
003400
003400
00FD00
ENDCHAR
STARTCHAR uni0445
ENCODING 1093
SWIDTH 479 0
DWIDTH 8 0
BBX 8 8 0 0
BITMAP
BD3D
2C24
0A50
0780
02C0
08A0
2438
F87E
ENDCHAR
STARTCHAR uni0446
ENCODING 1094
SWIDTH 590 0
DWIDTH 9 0
BBX 9 10 0 -2
BITMAP
7F2F80
1C0A00
1C0A00
1C0A00
1C0A00
1C0A00
1C0A00
7EAF80
0001C0
000080
ENDCHAR
STARTCHAR uni0447
ENCODING 1095
SWIDTH 535 0
DWIDTH 9 0
BBX 8 8 0 0
BITMAP
BD7F
341C
341C
382C
1AAC
001C
001C
007F
ENDCHAR
STARTCHAR uni0448
ENCODING 1096
SWIDTH 812 0
DWIDTH 13 0
BBX 13 8 0 0
BITMAP
7E3F2F40
1C1D0D00
1C0C0D00
1C0C0D00
1C0C0D00
1C0C0D00
1C1C0D00
7EBFAF40
ENDCHAR
STARTCHAR uni0449
ENCODING 1097
SWIDTH 814 0
DWIDTH 13 0
BBX 13 10 0 -2
BITMAP
7E3F2F40
1C1C0D00
1C1C0D00
1C1C0D00
1C1C0D00
1C1C0D00
1C1C0D00
7EBFAF40
00000280
00000080
ENDCHAR
STARTCHAR uni044A
ENCODING 1098
SWIDTH 568 0
DWIDTH 9 0
BBX 9 8 0 0
BITMAP
AB9000
834000
434000
03A900
034740
034380
034340
0BAA00
ENDCHAR
STARTCHAR uni044B
ENCODING 1099
SWIDTH 728 0
DWIDTH 12 0
BBX 11 8 0 0
BITMAP
7F01FC
1C0070
1C0070
1EA470
1C2C70
1C1D70
1C2C70
7EA5FC
ENDCHAR
STARTCHAR uni044C
ENCODING 1100
SWIDTH 489 0
DWIDTH 8 0
BBX 8 8 0 0
BITMAP
7F00
1C00
1C00
1EA4
1C2D
1C0D
1C1C
7EA4
ENDCHAR
STARTCHAR uni044D
ENCODING 1101
SWIDTH 467 0
DWIDTH 7 0
BBX 7 8 0 0
BITMAP
6A90
6034
5028
0ABC
002C
0028
5074
1A90
ENDCHAR
STARTCHAR uni044E
ENCODING 1102
SWIDTH 774 0
DWIDTH 12 0
BBX 12 8 0 0
BITMAP
7F06A4
1C2C1D
1C340A
1EB40A
1C340A
1C280A
1C1C0C
7F07A4
ENDCHAR
STARTCHAR uni044F
ENCODING 1103
SWIDTH 518 0
DWIDTH 8 0
BBX 8 8 0 0
BITMAP
1ABE
3828
3428
2C28
07F8
0A28
1D28
B8BE
ENDCHAR
STARTCHAR uni0450
ENCODING 1104
SWIDTH 464 0
DWIDTH 7 0
BBX 7 12 0 0
BITMAP
0500
0700
0180
0000
0AD0
2434
7028
7AA8
7000
7000
2804
0BA0
ENDCHAR
STARTCHAR uni0451
ENCODING 1105
SWIDTH 464 0
DWIDTH 7 0
BBX 7 11 0 0
BITMAP
1824
2834
0000
0AD0
2434
7028
7AA8
7000
7000
2804
0BA0
ENDCHAR
STARTCHAR uni0452
ENCODING 1106
SWIDTH 563 0
DWIDTH 9 0
BBX 8 16 0 -4
BITMAP
1400
6C00
1C00
7E90
1DB8
1D0D
1C0A
1C0A
1C07
1C07
1C06
7F0A
000A
0009
024C
02E4
ENDCHAR
STARTCHAR uni0453
ENCODING 1107
SWIDTH 429 0
DWIDTH 7 0
BBX 7 12 0 0
BITMAP
0180
0280
0600
0000
6EB4
1C18
1C04
1C00
1C00
1C00
1C00
7F40
ENDCHAR
STARTCHAR uni0454
ENCODING 1108
SWIDTH 460 0
DWIDTH 7 0
BBX 7 8 0 0
BITMAP
0AA4
2828
7000
7A90
7000
7400
2808
0BA0
ENDCHAR
STARTCHAR uni0455
ENCODING 1109
SWIDTH 394 0
DWIDTH 6 0
BBX 6 8 0 0
BITMAP
2A90
7090
7410
2E00
06D0
40A0
60A0
6A90
ENDCHAR
STARTCHAR uni0456
ENCODING 1110
SWIDTH 285 0
DWIDTH 5 0
BBX 4 11 0 0
BITMAP
1C
18
00
6C
1C
1C
1C
1C
1C
1C
7F
ENDCHAR
STARTCHAR uni0457
ENCODING 1111
SWIDTH 285 0
DWIDTH 5 0
BBX 6 11 -1 0
BITMAP
74D0
6090
0000
1B00
0700
0700
0700
0700
0700
0700
1FC0
ENDCHAR
STARTCHAR uni0458
ENCODING 1112
SWIDTH 263 0
DWIDTH 4 0
BBX 5 15 -2 -4
BITMAP
01C0
0180
0000
06C0
01C0
01C0
01C0
01C0
01C0
01C0
01C0
01C0
0180
6280
7A00
ENDCHAR
STARTCHAR uni0459
ENCODING 1113
SWIDTH 742 0
DWIDTH 12 0
BBX 12 8 0 0
BITMAP
0BAE00
021C00
021C00
021EA4
051C1D
081C0D
981C1D
F46EA4
ENDCHAR
STARTCHAR uni045A
ENCODING 1114
SWIDTH 790 0
DWIDTH 13 0
BBX 13 8 0 0
BITMAP
7F1FC000
1C070000
1C070000
1EAFA900
1C070B00
1C070740
1C070700
7F1FA900
ENDCHAR
STARTCHAR uni045B
ENCODING 1115
SWIDTH 579 0
DWIDTH 9 0
BBX 9 11 0 0
BITMAP
6C0000
7E9000
1C0000
1DB800
1D0E00
1C0A00
1C0A00
1C0A00
1C0A00
1C0A00
7F2F80
ENDCHAR
STARTCHAR uni045C
ENCODING 1116
SWIDTH 521 0
DWIDTH 8 0
BBX 9 12 0 0
BITMAP
005000
00D000
024000
000000
7F0F00
1C2500
1C2000
1C5000
1ED000
1CB000
1C3800
7E1F40
ENDCHAR
STARTCHAR uni045D
ENCODING 1117
SWIDTH 609 0
DWIDTH 10 0
BBX 9 12 0 0
BITMAP
014000
028000
009000
000000
7F1FC0
1C0700
1C0B00
1C2700
1C8700
1E0700
1C0700
7F1FC0
ENDCHAR
STARTCHAR uni045E
ENCODING 1118
SWIDTH 483 0
DWIDTH 8 0
BBX 8 15 0 -4
BITMAP
1C28
1C28
06A0
FD2E
740C
2814
1D20
0E20
0750
0380
0280
0140
0200
5900
B800
ENDCHAR
STARTCHAR uni045F
ENCODING 1119
SWIDTH 587 0
DWIDTH 9 0
BBX 9 11 0 -3
BITMAP
7F2F80
1C0A00
1C0A00
1C0A00
1C0A00
1C0A00
1C0A00
7EAF80
008000
00D000
00D000
ENDCHAR
STARTCHAR uni0462
ENCODING 1122
SWIDTH 727 0
DWIDTH 12 0
BBX 11 12 0 0
BITMAP
0BF800
01E000
BAFAF0
90D020
80D010
00D000
00EB90
00D074
00D02C
00D02C
01D078
06FA90
ENDCHAR
STARTCHAR uni0463
ENCODING 1123
SWIDTH 561 0
DWIDTH 9 0
BBX 9 12 0 0
BITMAP
010000
0B4000
034000
034000
BBAC00
834800
434000
03A900
034740
034380
034740
0BAD00
ENDCHAR
STARTCHAR uni046A
ENCODING 1130
SWIDTH 881 0
DWIDTH 14 0
BBX 16 11 -1 0
BITMAP
01FAAB40
00B00600
00380800
001E2400
00079000
002BE800
00E28B00
01D28380
038282C0
0B4281E0
7E0BE0BD
ENDCHAR
STARTCHAR uni046B
ENCODING 1131
SWIDTH 667 0
DWIDTH 11 0
BBX 11 8 0 0
BITMAP
1FAB80
070200
028900
00E800
07BA00
0D7280
2C71D0
B4B8B4
ENDCHAR
STARTCHAR uni0472
ENCODING 1138
SWIDTH 737 0
DWIDTH 12 0
BBX 11 11 0 0
BITMAP
01AA40
0A01E0
1C0074
380038
39A42C
781A6C
38002C
380038
2C0074
0A01E0
01AA40
ENDCHAR
STARTCHAR uni0473
ENCODING 1139
SWIDTH 514 0
DWIDTH 8 0
BBX 8 8 0 0
BITMAP
0AA4
281C
740D
764E
71AA
740D
281C
0BA0
ENDCHAR
STARTCHAR uni0474
ENCODING 1140
SWIDTH 705 0
DWIDTH 11 0
BBX 12 11 0 0
BITMAP
FF002D
3C0055
1D0080
0E0140
0B4200
038200
02C500
01D800
00E800
007400
003000
ENDCHAR
STARTCHAR uni0475
ENCODING 1141
SWIDTH 520 0
DWIDTH 8 0
BBX 9 8 0 0
BITMAP
FC0780
340940
282000
1C2000
0E5000
0B8000
038000
024000
ENDCHAR
STARTCHAR uni0490
ENCODING 1168
SWIDTH 525 0
DWIDTH 8 0
BBX 9 13 0 0
BITMAP
000140
000240
2FAA00
0E0000
0E0000
0E0000
0E0000
0E0000
0E0000
0E0000
0E0000
0E0000
7FD000
ENDCHAR
STARTCHAR uni0491
ENCODING 1169
SWIDTH 404 0
DWIDTH 6 0
BBX 7 10 0 0
BITMAP
0014
0024
6EA4
1C00
1C00
1C00
1C00
1C00
1C00
7F40
ENDCHAR
STARTCHAR uni1D00
ENCODING 7424
SWIDTH 511 0
DWIDTH 8 0
BBX 10 8 -1 0
BITMAP
00A000
00F000
017800
022C00
061D00
0AAE00
180B40
7D0FD0
ENDCHAR
STARTCHAR uni1D07
ENCODING 7431
SWIDTH 495 0
DWIDTH 8 0
BBX 8 8 0 0
BITMAP
6EAC
1C04
1C10
1C20
1EB0
1C01
1C09
6EAC
ENDCHAR
STARTCHAR uni1D1C
ENCODING 7452
SWIDTH 584 0
DWIDTH 9 0
BBX 9 8 0 0
BITMAP
BE0BC0
2C0200
280200
280200
280200
1C0200
1C0600
06A800
ENDCHAR
STARTCHAR uni1D81
ENCODING 7553
SWIDTH 539 0
DWIDTH 9 0
BBX 9 15 0 -4
BITMAP
002C00
001C00
001C00
0AAC00
282C00
301C00
701C00
701C00
701C00
381C00
1EAE00
000140
000240
002200
002A00
ENDCHAR
STARTCHAR uni1D84
ENCODING 7556
SWIDTH 542 0
DWIDTH 9 0
BBX 9 15 0 -4
BITMAP
6C0000
1C0000
1C0000
1C7F00
1C2400
1C9000
1E4000
1DD000
1CB400
1C2D00
7F2F40
000080
000080
001540
001A00
ENDCHAR
STARTCHAR uni1D85
ENCODING 7557
SWIDTH 283 0
DWIDTH 5 0
BBX 4 15 0 -4
BITMAP
6C
1C
1C
1C
1C
1C
1C
1C
1C
1C
7F
02
02
22
29
ENDCHAR
STARTCHAR uni1D8A
ENCODING 7562
SWIDTH 395 0
DWIDTH 6 0
BBX 6 12 0 -4
BITMAP
2A90
7050
7410
2E00
07D0
40A0
60A0
6A90
0050
0050
0850
0A80
ENDCHAR
STARTCHAR uni1D8D
ENCODING 7565
SWIDTH 479 0
DWIDTH 8 0
BBX 8 12 0 -4
BITMAP
BD3D
2C24
0A50
0780
02C0
08A0
2438
F87E
0002
0002
0051
0078
ENDCHAR
STARTCHAR uni1D8E
ENCODING 7566
SWIDTH 458 0
DWIDTH 7 0
BBX 7 12 0 -4
BITMAP
7AB8
60B0
01D0
0280
0B00
1D04
2808
7AB8
0008
0008
0154
01E0
ENDCHAR
STARTCHAR uni1D98
ENCODING 7576
SWIDTH 368 0
DWIDTH 6 0
BBX 8 15 0 -4
BITMAP
00AD
0185
0280
0280
0280
0280
0280
0280
0280
5240
BA00
8000
8000
8500
2D00
ENDCHAR
STARTCHAR uni1D9B
ENCODING 7579
SWIDTH 462 0
DWIDTH 7 0
BBX 7 6 0 4
BITMAP
7AE0
3428
3418
3418
3424
2A90
ENDCHAR
STARTCHAR uni1DA3
ENCODING 7587
SWIDTH 488 0
DWIDTH 8 0
BBX 8 9 0 1
BITMAP
7978
2424
2424
2824
2834
0EA4
0024
0024
0029
ENDCHAR
STARTCHAR uni1E00
ENCODING 7680
SWIDTH 718 0
DWIDTH 11 0
BBX 12 15 0 -4
BITMAP
003400
007800
00AC00
009D00
024F00
030740
060380
0BABD0
1C01E0
2400F4
BD02FD
006400
018800
018800
006400
ENDCHAR
STARTCHAR uni1E01
ENCODING 7681
SWIDTH 480 0
DWIDTH 8 0
BBX 8 12 0 -4
BITMAP
1AD0
3470
2070
01B0
1970
7070
7070
2E79
0680
0890
0890
0680
ENDCHAR
STARTCHAR uni1E02
ENCODING 7682
SWIDTH 618 0
DWIDTH 10 0
BBX 10 14 0 0
BITMAP
009000
00D000
000000
6FBE00
0E0780
0E0380
0E0380
0E0600
0FBD00
0E0780
0E01D0
0E01D0
0E02C0
6FAE00
ENDCHAR
STARTCHAR uni1E03
ENCODING 7683
SWIDTH 522 0
DWIDTH 8 0
BBX 8 15 0 0
BITMAP
0280
0280
0000
0000
7800
2800
2800
29B4
2C1D
280A
280A
280A
280D
281C
1BA0
ENDCHAR
STARTCHAR uni1E04
ENCODING 7684
SWIDTH 618 0
DWIDTH 10 0
BBX 10 14 0 -3
BITMAP
6FBE00
0E0780
0E0380
0E0380
0E0600
0FBD00
0E0780
0E01D0
0E01D0
0E02C0
6FAE00
000000
009000
00D000
ENDCHAR
STARTCHAR uni1E05
ENCODING 7685
SWIDTH 522 0
DWIDTH 8 0
BBX 8 14 0 -3
BITMAP
7800
2800
2800
29B4
2C1D
280A
280A
280A
280D
281C
1BA0
0000
0280
0280
ENDCHAR
STARTCHAR uni1E06
ENCODING 7686
SWIDTH 618 0
DWIDTH 10 0
BBX 10 13 0 -2
BITMAP
6FBE00
0E0780
0E0380
0E0380
0E0600
0FBD00
0E0780
0E01D0
0E01D0
0E02C0
6FAE00
000000
06A800
ENDCHAR
STARTCHAR uni1E07
ENCODING 7687
SWIDTH 522 0
DWIDTH 8 0
BBX 8 13 0 -2
BITMAP
7800
2800
2800
29B4
2C1D
280A
280A
280A
280D
281C
1BA0
0000
1AA4
ENDCHAR
STARTCHAR uni1E08
ENCODING 7688
SWIDTH 670 0
DWIDTH 11 0
BBX 10 18 0 -4
BITMAP
001D00
002400
000000
01ABE0
0A00E0
1D0060
380020
380000
740000
380000
380000
2C0000
0B4060
01EA40
001000
002800
000900
006800
ENDCHAR
STARTCHAR uni1E09
ENCODING 7689
SWIDTH 446 0
DWIDTH 7 0
BBX 7 16 0 -4
BITMAP
0050
01C0
0200
0000
0AE0
2474
7014
6000
7000
7000
3804
1BA0
0100
0290
0090
0680
ENDCHAR
STARTCHAR uni1E0A
ENCODING 7690
SWIDTH 730 0
DWIDTH 12 0
BBX 11 14 0 0
BITMAP
002000
007400
000000
6FAE40
0E02D0
0E00B4
0E0038
0E0038
0E002C
0E0038
0E0038
0E0074
0E01D0
6FAE40
ENDCHAR
STARTCHAR uni1E0B
ENCODING 7691
SWIDTH 539 0
DWIDTH 9 0
BBX 8 15 0 0
BITMAP
0180
01C0
0000
0000
002C
001C
001C
0AAC
282C
301C
701C
701C
701C
381C
1EAE
ENDCHAR
STARTCHAR uni1E0C
ENCODING 7692
SWIDTH 730 0
DWIDTH 12 0
BBX 11 14 0 -3
BITMAP
6FAE40
0E02D0
0E00B4
0E0038
0E0038
0E002C
0E0038
0E0038
0E0074
0E01D0
6FAE40
000000
006000
00B000
ENDCHAR
STARTCHAR uni1E0D
ENCODING 7693
SWIDTH 539 0
DWIDTH 9 0
BBX 8 14 0 -3
BITMAP
002C
001C
001C
0AAC
282C
301C
701C
701C
701C
381C
1EAE
0000
0180
01C0
ENDCHAR
STARTCHAR uni1E0E
ENCODING 7694
SWIDTH 730 0
DWIDTH 12 0
BBX 11 13 0 -2
BITMAP
6FAE40
0E02D0
0E00B4
0E0038
0E0038
0E002C
0E0038
0E0038
0E0074
0E01D0
6FAE40
000000
02A900
ENDCHAR
STARTCHAR uni1E0F
ENCODING 7695
SWIDTH 539 0
DWIDTH 9 0
BBX 8 13 0 -2
BITMAP
002C
001C
001C
0AAC
282C
301C
701C
701C
701C
381C
1EAE
0000
0AA4
ENDCHAR
STARTCHAR uni1E10
ENCODING 7696
SWIDTH 730 0
DWIDTH 12 0
BBX 11 16 0 -5
BITMAP
6FAE40
0E02D0
0E00B4
0E0038
0E0038
0E002C
0E0038
0E0038
0E0074
0E01D0
6FAE40
000000
00A000
00B400
002000
005000
ENDCHAR
STARTCHAR uni1E11
ENCODING 7697
SWIDTH 539 0
DWIDTH 9 0
BBX 8 16 0 -5
BITMAP
002C
001C
001C
0AAC
282C
301C
701C
701C
701C
381C
1EAE
0000
0180
02D0
0090
0140
ENDCHAR
STARTCHAR uni1E12
ENCODING 7698
SWIDTH 730 0
DWIDTH 12 0
BBX 11 14 0 -3
BITMAP
6FAE40
0E02D0
0E00B4
0E0038
0E0038
0E002C
0E0038
0E0038
0E0074
0E01D0
6FAE40
005000
00E400
020800
ENDCHAR
STARTCHAR uni1E13
ENCODING 7699
SWIDTH 539 0
DWIDTH 9 0
BBX 8 14 0 -3
BITMAP
002C
001C
001C
0AAC
282C
301C
701C
701C
701C
381C
1EAE
0140
02A0
0924
ENDCHAR
STARTCHAR uni1E14
ENCODING 7700
SWIDTH 626 0
DWIDTH 10 0
BBX 10 16 0 0
BITMAP
01D000
002400
000000
06A900
000000
6FABC0
0E0080
0E0040
0E0200
0E0200
0FAE00
0E0200
0E0000
0E0050
0E0090
6FABD0
ENDCHAR
STARTCHAR uni1E15
ENCODING 7701
SWIDTH 464 0
DWIDTH 7 0
BBX 7 14 0 0
BITMAP
0500
0700
0180
0000
1AA0
0000
0AD0
2434
7028
7AA8
7000
7000
2804
0BA0
ENDCHAR
STARTCHAR uni1E16
ENCODING 7702
SWIDTH 626 0
DWIDTH 10 0
BBX 10 16 0 0
BITMAP
007800
009000
000000
06A900
000000
6FABC0
0E0080
0E0040
0E0200
0E0200
0FAE00
0E0200
0E0000
0E0050
0E0090
6FABD0
ENDCHAR
STARTCHAR uni1E17
ENCODING 7703
SWIDTH 464 0
DWIDTH 7 0
BBX 7 14 0 0
BITMAP
0050
01C0
0200
0000
1AA0
0000
0AD0
2434
7028
7AA8
7000
7000
2804
0BA0
ENDCHAR
STARTCHAR uni1E18
ENCODING 7704
SWIDTH 626 0
DWIDTH 10 0
BBX 10 14 0 -3
BITMAP
6FABC0
0E0080
0E0040
0E0200
0E0200
0FAE00
0E0200
0E0000
0E0050
0E0090
6FABD0
005000
00E400
020800
ENDCHAR
STARTCHAR uni1E19
ENCODING 7705
SWIDTH 464 0
DWIDTH 7 0
BBX 7 11 0 -3
BITMAP
0AD0
2434
7028
7AA8
7000
7000
2804
0BA0
0140
06C0
0820
ENDCHAR
STARTCHAR uni1E1A
ENCODING 7706
SWIDTH 626 0
DWIDTH 10 0
BBX 10 14 0 -3
BITMAP
6FABC0
0E0080
0E0040
0E0200
0E0200
0FAE00
0E0200
0E0000
0E0050
0E0090
6FABD0
000000
029500
046800
ENDCHAR
STARTCHAR uni1E1B
ENCODING 7707
SWIDTH 464 0
DWIDTH 7 0
BBX 7 11 0 -3
BITMAP
0AD0
2434
7028
7AA8
7000
7000
2804
0BA0
0000
0A54
11A0
ENDCHAR
STARTCHAR uni1E1C
ENCODING 7708
SWIDTH 626 0
DWIDTH 10 0
BBX 10 19 0 -4
BITMAP
010100
020900
01A400
000000
6FABC0
0E0080
0E0040
0E0200
0E0200
0FAE00
0E0200
0E0000
0E0050
0E0090
6FABD0
004000
006400
001800
00A400
ENDCHAR
STARTCHAR uni1E1D
ENCODING 7709
SWIDTH 464 0
DWIDTH 7 0
BBX 7 16 0 -4
BITMAP
1010
1420
0690
0000
0AD0
2434
7028
7AA8
7000
7000
2804
0BA0
0100
0280
0090
0680
ENDCHAR
STARTCHAR uni1E1E
ENCODING 7710
SWIDTH 588 0
DWIDTH 9 0
BBX 9 14 0 0
BITMAP
006000
007000
000000
6FABC0
0E0080
0E0040
0E0200
0E0200
0FAE00
0E0200
0E0000
0E0000
0E0000
7F9000
ENDCHAR
STARTCHAR uni1E1F
ENCODING 7711
SWIDTH 307 0
DWIDTH 5 0
BBX 6 15 0 0
BITMAP
1800
1C00
0000
0000
06E0
0C50
1C00
7E80
1C00
1C00
1C00
1C00
1C00
1C00
BF40
ENDCHAR
STARTCHAR uni1E20
ENCODING 7712
SWIDTH 720 0
DWIDTH 12 0
BBX 11 13 0 0
BITMAP
01AA40
000000
01ABE0
0A00E0
1D0060
380020
380000
7402F8
3800B0
3800B0
2C00B0
0E00B0
02EA80
ENDCHAR
STARTCHAR uni1E21
ENCODING 7713
SWIDTH 484 0
DWIDTH 8 0
BBX 8 14 0 -4
BITMAP
1AA0
0000
1AF9
3874
3438
3438
1834
2A90
7400
2FF8
2009
A005
B008
2E90
ENDCHAR
STARTCHAR uni1E22
ENCODING 7714
SWIDTH 777 0
DWIDTH 12 0
BBX 12 14 0 0
BITMAP
001800
001C00
000000
7F82FE
0E0074
0E0034
0E0034
0E0034
0FAAB4
0E0034
0E0034
0E0034
0E0074
7F82FE
ENDCHAR
STARTCHAR uni1E23
ENCODING 7715
SWIDTH 577 0
DWIDTH 9 0
BBX 9 15 0 0
BITMAP
009000
00D000
000000
000000
6C0000
1C0000
1C0000
1DB800
1D0D00
1C0A00
1C0A00
1C0A00
1C0A00
1C0A00
7F2F80
ENDCHAR
STARTCHAR uni1E24
ENCODING 7716
SWIDTH 777 0
DWIDTH 12 0
BBX 12 14 0 -3
BITMAP
7F82FE
0E0074
0E0034
0E0034
0E0034
0FAAB4
0E0034
0E0034
0E0034
0E0074
7F82FE
000000
001800
001C00
ENDCHAR
STARTCHAR uni1E25
ENCODING 7717
SWIDTH 577 0
DWIDTH 9 0
BBX 9 14 0 -3
BITMAP
6C0000
1C0000
1C0000
1DB800
1D0D00
1C0A00
1C0A00
1C0A00
1C0A00
1C0A00
7F2F80
000000
009000
00D000
ENDCHAR
STARTCHAR uni1E26
ENCODING 7718
SWIDTH 777 0
DWIDTH 12 0
BBX 12 14 0 0
BITMAP
018280
01D280
000000
7F82FE
0E0074
0E0034
0E0034
0E0034
0FAAB4
0E0034
0E0034
0E0034
0E0074
7F82FE
ENDCHAR
STARTCHAR uni1E27
ENCODING 7719
SWIDTH 577 0
DWIDTH 9 0
BBX 9 15 0 0
BITMAP
091800
0A1D00
000000
000000
6C0000
1C0000
1C0000
1DB800
1D0D00
1C0A00
1C0A00
1C0A00
1C0A00
1C0A00
7F2F80
ENDCHAR
STARTCHAR uni1E28
ENCODING 7720
SWIDTH 777 0
DWIDTH 12 0
BBX 12 15 0 -4
BITMAP
7F82FE
0E0074
0E0034
0E0034
0E0034
0FAAB4
0E0034
0E0034
0E0034
0E0074
7F82FE
040000
0A0000
024000
1A0000
ENDCHAR
STARTCHAR uni1E29
ENCODING 7721
SWIDTH 577 0
DWIDTH 9 0
BBX 9 15 0 -4
BITMAP
6C0000
1C0000
1C0000
1DB800
1D0D00
1C0A00
1C0A00
1C0A00
1C0A00
1C0A00
7F2F80
100000
190000
060000
290000
ENDCHAR
STARTCHAR uni1E2A
ENCODING 7722
SWIDTH 777 0
DWIDTH 12 0
BBX 12 14 0 -3
BITMAP
7F82FE
0E0074
0E0034
0E0034
0E0034
0FAAB4
0E0034
0E0034
0E0034
0E0074
7F82FE
004040
008140
006A00
ENDCHAR
STARTCHAR uni1E2B
ENCODING 7723
SWIDTH 577 0
DWIDTH 9 0
BBX 9 14 0 -3
BITMAP
6C0000
1C0000
1C0000
1DB800
1D0D00
1C0A00
1C0A00
1C0A00
1C0A00
1C0A00
7F2F80
040400
050800
02A000
ENDCHAR
STARTCHAR uni1E2C
ENCODING 7724
SWIDTH 357 0
DWIDTH 6 0
BBX 6 14 0 -3
BITMAP
7F80
0E00
0E00
0E00
0E00
0E00
0E00
0E00
0E00
0E00
7F80
0000
2950
4680
ENDCHAR
STARTCHAR uni1E2D
ENCODING 7725
SWIDTH 285 0
DWIDTH 5 0
BBX 6 14 -1 -3
BITMAP
0700
0600
0000
1B00
0700
0700
0700
0700
0700
0700
1FC0
0000
2950
5290
ENDCHAR
STARTCHAR uni1E2E
ENCODING 7726
SWIDTH 357 0
DWIDTH 6 0
BBX 6 16 0 0
BITMAP
0740
1800
6090
A0D0
0000
7F80
0E00
0E00
0E00
0E00
0E00
0E00
0E00
0E00
0E00
7F80
ENDCHAR
STARTCHAR uni1E2F
ENCODING 7727
SWIDTH 285 0
DWIDTH 5 0
BBX 6 15 -1 0
BITMAP
0140
0740
0900
0000
74D0
6090
0000
1B00
0700
0700
0700
0700
0700
0700
1FC0
ENDCHAR
STARTCHAR uni1E30
ENCODING 7728
SWIDTH 702 0
DWIDTH 11 0
BBX 11 14 0 0
BITMAP
002D00
006000
000000
7F87F4
0E0280
0E0600
0E1800
0E5000
0FD000
0EB400
0E2D00
0E0B40
0E02D0
7F87FC
ENDCHAR
STARTCHAR uni1E31
ENCODING 7729
SWIDTH 542 0
DWIDTH 9 0
BBX 9 15 0 0
BITMAP
00E000
024000
000000
000000
6C0000
1C0000
1C0000
1C7F00
1C2400
1C9000
1E4000
1DD000
1CB400
1C2D00
7F2F40
ENDCHAR
STARTCHAR uni1E32
ENCODING 7730
SWIDTH 702 0
DWIDTH 11 0
BBX 11 14 0 -3
BITMAP
7F87F4
0E0280
0E0600
0E1800
0E5000
0FD000
0EB400
0E2D00
0E0B40
0E02D0
7F87FC
000000
002400
003400
ENDCHAR
STARTCHAR uni1E33
ENCODING 7731
SWIDTH 542 0
DWIDTH 9 0
BBX 9 14 0 -3
BITMAP
6C0000
1C0000
1C0000
1C7F00
1C2400
1C9000
1E4000
1DD000
1CB400
1C2D00
7F2F40
000000
018000
01C000
ENDCHAR
STARTCHAR uni1E34
ENCODING 7732
SWIDTH 702 0
DWIDTH 11 0
BBX 11 13 0 -2
BITMAP
7F87F4
0E0280
0E0600
0E1800
0E5000
0FD000
0EB400
0E2D00
0E0B40
0E02D0
7F87FC
000000
02AA00
ENDCHAR
STARTCHAR uni1E35
ENCODING 7733
SWIDTH 542 0
DWIDTH 9 0
BBX 9 13 0 -2
BITMAP
6C0000
1C0000
1C0000
1C7F00
1C2400
1C9000
1E4000
1DD000
1CB400
1C2D00
7F2F40
000000
0AA800
ENDCHAR
STARTCHAR uni1E36
ENCODING 7734
SWIDTH 585 0
DWIDTH 9 0
BBX 9 14 0 -3
BITMAP
7FC000
0E0000
0E0000
0E0000
0E0000
0E0000
0E0000
0E0000
0E0080
0E0180
6FAB80
000000
009000
00D000
ENDCHAR
STARTCHAR uni1E37
ENCODING 7735
SWIDTH 283 0
DWIDTH 5 0
BBX 4 14 0 -3
BITMAP
6C
1C
1C
1C
1C
1C
1C
1C
1C
1C
7F
00
18
1C
ENDCHAR
STARTCHAR uni1E38
ENCODING 7736
SWIDTH 585 0
DWIDTH 9 0
BBX 9 16 0 -3
BITMAP
6A9000
000000
7FC000
0E0000
0E0000
0E0000
0E0000
0E0000
0E0000
0E0000
0E0080
0E0180
6FAB80
000000
009000
00D000
ENDCHAR
STARTCHAR uni1E39
ENCODING 7737
SWIDTH 283 0
DWIDTH 5 0
BBX 5 17 0 -3
BITMAP
AA40
0000
0000
6C00
1C00
1C00
1C00
1C00
1C00
1C00
1C00
1C00
1C00
7F00
0000
1800
1C00
ENDCHAR
STARTCHAR uni1E3A
ENCODING 7738
SWIDTH 585 0
DWIDTH 9 0
BBX 9 13 0 -2
BITMAP
7FC000
0E0000
0E0000
0E0000
0E0000
0E0000
0E0000
0E0000
0E0080
0E0180
6FAB80
000000
06A800
ENDCHAR
STARTCHAR uni1E3B
ENCODING 7739
SWIDTH 283 0
DWIDTH 5 0
BBX 5 13 0 -2
BITMAP
6C00
1C00
1C00
1C00
1C00
1C00
1C00
1C00
1C00
1C00
7F00
0000
AA40
ENDCHAR
STARTCHAR uni1E3C
ENCODING 7740
SWIDTH 585 0
DWIDTH 9 0
BBX 9 14 0 -3
BITMAP
7FC000
0E0000
0E0000
0E0000
0E0000
0E0000
0E0000
0E0000
0E0080
0E0180
6FAB80
005000
02A000
061800
ENDCHAR
STARTCHAR uni1E3D
ENCODING 7741
SWIDTH 283 0
DWIDTH 5 0
BBX 5 14 0 -3
BITMAP
6C00
1C00
1C00
1C00
1C00
1C00
1C00
1C00
1C00
1C00
7F00
1400
3900
9240
ENDCHAR
STARTCHAR uni1E3E
ENCODING 7742
SWIDTH 895 0
DWIDTH 14 0
BBX 14 14 0 0
BITMAP
00074000
00190000
00000000
7F000BD0
0F400F40
0B801B40
0AD03740
09E06740
08B09740
08748740
08394740
081F0740
0C0E0740
7F092FD0
ENDCHAR
STARTCHAR uni1E3F
ENCODING 7743
SWIDTH 852 0
DWIDTH 14 0
BBX 14 12 0 0
BITMAP
00014000
00070000
00090000
00000000
6DB86D00
1D0E0700
1C0A0700
1C0A0700
1C0A0700
1C0A0700
1C0E0740
7F2F9FD0
ENDCHAR
STARTCHAR uni1E40
ENCODING 7744
SWIDTH 895 0
DWIDTH 14 0
BBX 14 14 0 0
BITMAP
000A0000
000A0000
00000000
7F000BD0
0F400F40
0B801B40
0AD03740
09E06740
08B09740
08748740
08394740
081F0740
0C0E0740
7F092FD0
ENDCHAR
STARTCHAR uni1E41
ENCODING 7745
SWIDTH 852 0
DWIDTH 14 0
BBX 14 11 0 0
BITMAP
00090000
000A0000
00000000
6DB86D00
1D0E0700
1C0A0700
1C0A0700
1C0A0700
1C0A0700
1C0E0740
7F2F9FD0
ENDCHAR
STARTCHAR uni1E42
ENCODING 7746
SWIDTH 895 0
DWIDTH 14 0
BBX 14 14 0 -3
BITMAP
7F000BD0
0F400F40
0B801B40
0AD03740
09E06740
08B09740
08748740
08394740
081F0740
0C0E0740
7F092FD0
00000000
00090000
000D0000
ENDCHAR
STARTCHAR uni1E43
ENCODING 7747
SWIDTH 852 0
DWIDTH 14 0
BBX 14 11 0 -3
BITMAP
6DB86D00
1D0E0700
1C0A0700
1C0A0700
1C0A0700
1C0A0700
1C0E0740
7F2F9FD0
00000000
00090000
000A0000
ENDCHAR
STARTCHAR uni1E44
ENCODING 7748
SWIDTH 742 0
DWIDTH 12 0
BBX 12 14 0 0
BITMAP
002800
002800
000000
7E01FD
1F4034
0FC020
09E020
08B820
082D20
080F20
0807A0
0801F0
0C00B0
7F0030
ENDCHAR
STARTCHAR uni1E45
ENCODING 7749
SWIDTH 576 0
DWIDTH 9 0
BBX 9 11 0 0
BITMAP
009000
00E000
000000
6DB800
1D0D00
1C0A00
1C0A00
1C0A00
1C0A00
1C0A00
7F2F80
ENDCHAR
STARTCHAR uni1E46
ENCODING 7750
SWIDTH 742 0
DWIDTH 12 0
BBX 12 14 0 -3
BITMAP
7E01FD
1F4034
0FC020
09E020
08B820
082D20
080F20
0807A0
0801F0
0C00B0
7F0030
000000
002400
003400
ENDCHAR
STARTCHAR uni1E47
ENCODING 7751
SWIDTH 576 0
DWIDTH 9 0
BBX 9 11 0 -3
BITMAP
6DB800
1D0D00
1C0A00
1C0A00
1C0A00
1C0A00
1C0A00
7F2F80
000000
009000
00D000
ENDCHAR
STARTCHAR uni1E48
ENCODING 7752
SWIDTH 742 0
DWIDTH 12 0
BBX 12 13 0 -2
BITMAP
7E01FD
1F4034
0FC020
09E020
08B820
082D20
080F20
0807A0
0801F0
0C00B0
7F0030
000000
01AA00
ENDCHAR
STARTCHAR uni1E49
ENCODING 7753
SWIDTH 576 0
DWIDTH 9 0
BBX 9 10 0 -2
BITMAP
6DB800
1D0D00
1C0A00
1C0A00
1C0A00
1C0A00
1C0A00
7F2F80
000000
06A800
ENDCHAR
STARTCHAR uni1E4A
ENCODING 7754
SWIDTH 742 0
DWIDTH 12 0
BBX 12 14 0 -3
BITMAP
7E01FD
1F4034
0FC020
09E020
08B820
082D20
080F20
0807A0
0801F0
0C00B0
7F0030
001400
00A800
018600
ENDCHAR
STARTCHAR uni1E4B
ENCODING 7755
SWIDTH 576 0
DWIDTH 9 0
BBX 9 11 0 -3
BITMAP
6DB800
1D0D00
1C0A00
1C0A00
1C0A00
1C0A00
1C0A00
7F2F80
005000
02A000
061800
ENDCHAR
STARTCHAR uni1E4C
ENCODING 7756
SWIDTH 738 0
DWIDTH 12 0
BBX 10 16 1 0
BITMAP
007400
018000
029500
046800
000000
06A900
280780
7401D0
E000E0
E000B0
E000B0
E000B0
E000E0
B001D0
280380
06A900
ENDCHAR
STARTCHAR uni1E4D
ENCODING 7757
SWIDTH 514 0
DWIDTH 8 0
BBX 8 15 0 0
BITMAP
0050
00D0
0140
0000
0A54
04A4
0000
0AA4
282C
740D
700E
700A
740D
281C
0BA0
ENDCHAR
STARTCHAR uni1E4E
ENCODING 7758
SWIDTH 738 0
DWIDTH 12 0
BBX 10 16 1 0
BITMAP
060900
0A0D00
029500
046800
000000
06A900
280780
7401D0
E000E0
E000B0
E000B0
E000B0
E000E0
B001D0
280380
06A900
ENDCHAR
STARTCHAR uni1E4F
ENCODING 7759
SWIDTH 514 0
DWIDTH 8 0
BBX 8 13 0 0
BITMAP
1824
1C28
0A54
04A4
0000
0AA4
282C
740D
700E
700A
740D
281C
0BA0
ENDCHAR
STARTCHAR uni1E50
ENCODING 7760
SWIDTH 738 0
DWIDTH 12 0
BBX 10 16 1 0
BITMAP
02D000
006000
000000
06A900
000000
06A900
280780
7401D0
E000E0
E000B0
E000B0
E000B0
E000E0
B001D0
280380
06A900
ENDCHAR
STARTCHAR uni1E51
ENCODING 7761
SWIDTH 514 0
DWIDTH 8 0
BBX 8 14 0 0
BITMAP
0500
0340
0080
0000
0AA4
0000
0AA4
282C
740D
700E
700A
740D
281C
0BA0
ENDCHAR
STARTCHAR uni1E52
ENCODING 7762
SWIDTH 738 0
DWIDTH 12 0
BBX 10 16 1 0
BITMAP
007400
018000
000000
06A900
000000
06A900
280780
7401D0
E000E0
E000B0
E000B0
E000B0
E000E0
B001D0
280380
06A900
ENDCHAR
STARTCHAR uni1E53
ENCODING 7763
SWIDTH 514 0
DWIDTH 8 0
BBX 8 14 0 0
BITMAP
0050
00D0
0140
0000
0AA4
0000
0AA4
282C
740D
700E
700A
740D
281C
0BA0
ENDCHAR
STARTCHAR uni1E54
ENCODING 7764
SWIDTH 569 0
DWIDTH 9 0
BBX 9 14 0 0
BITMAP
00B400
018000
000000
2FA900
0E0740
0E0380
0E0380
0E0700
0FA400
0E0000
0E0000
0E0000
0E0000
7F8000
ENDCHAR
STARTCHAR uni1E55
ENCODING 7765
SWIDTH 537 0
DWIDTH 9 0
BBX 8 16 0 -4
BITMAP
0050
00D0
0180
0000
69B8
1D0E
1C0B
1C07
1C07
1C0A
1D0D
1EA4
1C00
1C00
2C00
BF40
ENDCHAR
STARTCHAR uni1E56
ENCODING 7766
SWIDTH 569 0
DWIDTH 9 0
BBX 9 14 0 0
BITMAP
009000
00D000
000000
2FA900
0E0740
0E0380
0E0380
0E0700
0FA400
0E0000
0E0000
0E0000
0E0000
7F8000
ENDCHAR
STARTCHAR uni1E57
ENCODING 7767
SWIDTH 537 0
DWIDTH 9 0
BBX 8 15 0 -4
BITMAP
0180
01C0
0000
69B8
1D0E
1C0B
1C07
1C07
1C0A
1D0D
1EA4
1C00
1C00
2C00
BF40
ENDCHAR
STARTCHAR uni1E58
ENCODING 7768
SWIDTH 659 0
DWIDTH 11 0
BBX 11 14 0 0
BITMAP
00A000
00A000
000000
2FA900
0E0740
0E0380
0E0380
0E0B00
0FB400
0E2C00
0E1E00
0E0B40
0E03C0
7F81F4
ENDCHAR
STARTCHAR uni1E59
ENCODING 7769
SWIDTH 380 0
DWIDTH 6 0
BBX 6 11 0 0
BITMAP
0A00
0A00
0000
6CA0
1E60
1C00
1C00
1C00
1C00
1C00
7F40
ENDCHAR
STARTCHAR uni1E5A
ENCODING 7770
SWIDTH 659 0
DWIDTH 11 0
BBX 11 14 0 -3
BITMAP
2FA900
0E0740
0E0380
0E0380
0E0B00
0FB400
0E2C00
0E1E00
0E0B40
0E03C0
7F81F4
000000
006000
007000
ENDCHAR
STARTCHAR uni1E5B
ENCODING 7771
SWIDTH 380 0
DWIDTH 6 0
BBX 6 11 0 -3
BITMAP
6CA0
1E60
1C00
1C00
1C00
1C00
1C00
7F40
0000
1800
1D00
ENDCHAR
STARTCHAR uni1E5C
ENCODING 7772
SWIDTH 659 0
DWIDTH 11 0
BBX 11 16 0 -3
BITMAP
06A900
000000
2FA900
0E0740
0E0380
0E0380
0E0B00
0FB400
0E2C00
0E1E00
0E0B40
0E03C0
7F81F4
000000
006000
007000
ENDCHAR
STARTCHAR uni1E5D
ENCODING 7773
SWIDTH 380 0
DWIDTH 6 0
BBX 6 13 0 -3
BITMAP
6A90
0000
6CA0
1E60
1C00
1C00
1C00
1C00
1C00
7F40
0000
1800
1D00
ENDCHAR
STARTCHAR uni1E5E
ENCODING 7774
SWIDTH 659 0
DWIDTH 11 0
BBX 11 13 0 -2
BITMAP
2FA900
0E0740
0E0380
0E0380
0E0B00
0FB400
0E2C00
0E1E00
0E0B40
0E03C0
7F81F4
000000
02A900
ENDCHAR
STARTCHAR uni1E5F
ENCODING 7775
SWIDTH 380 0
DWIDTH 6 0
BBX 6 10 0 -2
BITMAP
6CA0
1E60
1C00
1C00
1C00
1C00
1C00
7F40
0000
AA80
ENDCHAR
STARTCHAR uni1E60
ENCODING 7776
SWIDTH 504 0
DWIDTH 8 0
BBX 8 14 0 0
BITMAP
0180
0280
0000
1AFC
341C
7408
3800
1F40
07E0
007C
001D
500D
601D
7EA4
ENDCHAR
STARTCHAR uni1E61
ENCODING 7777
SWIDTH 394 0
DWIDTH 6 0
BBX 6 11 0 0
BITMAP
0600
0B00
0000
2A90
7090
7410
2E00
06D0
40A0
60A0
6A90
ENDCHAR
STARTCHAR uni1E62
ENCODING 7778
SWIDTH 504 0
DWIDTH 8 0
BBX 8 14 0 -3
BITMAP
1AFC
341C
7408
3800
1F40
07E0
007C
001D
500D
601D
7EA4
0000
0240
0280
ENDCHAR
STARTCHAR uni1E63
ENCODING 7779
SWIDTH 394 0
DWIDTH 6 0
BBX 6 11 0 -3
BITMAP
2A90
7090
7410
2E00
06D0
40A0
60A0
6A90
0000
0600
0A00
ENDCHAR
STARTCHAR uni1E64
ENCODING 7780
SWIDTH 504 0
DWIDTH 8 0
BBX 8 15 0 0
BITMAP
0400
0E74
0180
0000
1AFC
341C
7408
3800
1F40
07E0
007C
001D
500D
601D
7EA4
ENDCHAR
STARTCHAR uni1E65
ENCODING 7781
SWIDTH 394 0
DWIDTH 6 0
BBX 6 13 0 0
BITMAP
0400
2D80
0680
0600
0000
2A90
7090
7410
2E00
06D0
40A0
60A0
6A90
ENDCHAR
STARTCHAR uni1E66
ENCODING 7782
SWIDTH 504 0
DWIDTH 8 0
BBX 8 16 0 0
BITMAP
0180
0590
0A60
02C0
0000
1AFC
341C
7408
3800
1F40
07E0
007C
001D
500D
601D
7EA4
ENDCHAR
STARTCHAR uni1E67
ENCODING 7783
SWIDTH 394 0
DWIDTH 6 0
BBX 6 13 0 0
BITMAP
0100
1B40
1A80
0B00
0000
2A90
7090
7410
2E00
06D0
40A0
60A0
6A90
ENDCHAR
STARTCHAR uni1E68
ENCODING 7784
SWIDTH 504 0
DWIDTH 8 0
BBX 8 17 0 -3
BITMAP
0180
0280
0000
1AFC
341C
7408
3800
1F40
07E0
007C
001D
500D
601D
7EA4
0000
0240
0280
ENDCHAR
STARTCHAR uni1E69
ENCODING 7785
SWIDTH 394 0
DWIDTH 6 0
BBX 6 14 0 -3
BITMAP
0600
0B00
0000
2A90
7090
7410
2E00
06D0
40A0
60A0
6A90
0000
0600
0A00
ENDCHAR
STARTCHAR uni1E6A
ENCODING 7786
SWIDTH 603 0
DWIDTH 10 0
BBX 10 14 0 0
BITMAP
009000
00E000
000000
BAFBD0
90E090
80E050
00E000
00E000
00E000
00E000
00E000
00E000
00E000
07F800
ENDCHAR
STARTCHAR uni1E6B
ENCODING 7787
SWIDTH 315 0
DWIDTH 5 0
BBX 5 13 0 0
BITMAP
0900
0D00
0000
0800
2800
7E40
2800
2800
2800
2800
2800
1C40
0E40
ENDCHAR
STARTCHAR uni1E6C
ENCODING 7788
SWIDTH 603 0
DWIDTH 10 0
BBX 10 14 0 -3
BITMAP
BAFBD0
90E090
80E050
00E000
00E000
00E000
00E000
00E000
00E000
00E000
07F800
000000
009000
00E000
ENDCHAR
STARTCHAR uni1E6D
ENCODING 7789
SWIDTH 315 0
DWIDTH 5 0
BBX 5 13 0 -3
BITMAP
0800
2800
7E40
2800
2800
2800
2800
2800
1C40
0E40
0000
0A00
0A00
ENDCHAR
STARTCHAR uni1E6E
ENCODING 7790
SWIDTH 603 0
DWIDTH 10 0
BBX 10 13 0 -2
BITMAP
BAFBD0
90E090
80E050
00E000
00E000
00E000
00E000
00E000
00E000
00E000
07F800
000000
06A800
ENDCHAR
STARTCHAR uni1E6F
ENCODING 7791
SWIDTH 315 0
DWIDTH 5 0
BBX 6 12 0 -2
BITMAP
0800
2800
7E40
2800
2800
2800
2800
2800
1C40
0E40
0000
6A90
ENDCHAR
STARTCHAR uni1E70
ENCODING 7792
SWIDTH 603 0
DWIDTH 10 0
BBX 10 14 0 -3
BITMAP
BAFBD0
90E090
80E050
00E000
00E000
00E000
00E000
00E000
00E000
00E000
07F800
005000
01B000
020800
ENDCHAR
STARTCHAR uni1E71
ENCODING 7793
SWIDTH 315 0
DWIDTH 5 0
BBX 5 13 0 -3
BITMAP
0800
2800
7E40
2800
2800
2800
2800
2800
1C40
0E40
0500
1B40
2080
ENDCHAR
STARTCHAR uni1E72
ENCODING 7794
SWIDTH 752 0
DWIDTH 12 0
BBX 12 14 0 -3
BITMAP
BF80FE
1D0024
0D0024
0D0024
0D0024
0D0024
0D0024
0D0024
0E0030
0740A0
01AA40
000000
018240
01C380
ENDCHAR
STARTCHAR uni1E73
ENCODING 7795
SWIDTH 570 0
DWIDTH 9 0
BBX 9 11 0 -3
BITMAP
782E00
280E00
280A00
280A00
280A00
280A00
1C1E00
0B9A40
000000
091800
0D2800
ENDCHAR
STARTCHAR uni1E74
ENCODING 7796
SWIDTH 752 0
DWIDTH 12 0
BBX 12 14 0 -3
BITMAP
BF80FE
1D0024
0D0024
0D0024
0D0024
0D0024
0D0024
0D0024
0E0030
0740A0
01AA40
000000
00A540
011A00
ENDCHAR
STARTCHAR uni1E75
ENCODING 7797
SWIDTH 570 0
DWIDTH 9 0
BBX 9 11 0 -3
BITMAP
782E00
280E00
280A00
280A00
280A00
280A00
1C1E00
0B9A40
000000
065400
04A400
ENDCHAR
STARTCHAR uni1E76
ENCODING 7798
SWIDTH 752 0
DWIDTH 12 0
BBX 12 14 0 -3
BITMAP
BF80FE
1D0024
0D0024
0D0024
0D0024
0D0024
0D0024
0D0024
0E0030
0740A0
01AA40
001400
007900
008200
ENDCHAR
STARTCHAR uni1E77
ENCODING 7799
SWIDTH 570 0
DWIDTH 9 0
BBX 9 11 0 -3
BITMAP
782E00
280E00
280A00
280A00
280A00
280A00
1C1E00
0B9A40
004000
02A000
051400
ENDCHAR
STARTCHAR uni1E78
ENCODING 7800
SWIDTH 752 0
DWIDTH 12 0
BBX 12 16 0 0
BITMAP
000A00
002400
006940
004A40
000000
BF80FE
1D0024
0D0024
0D0024
0D0024
0D0024
0D0024
0D0024
0E0030
0740A0
01AA40
ENDCHAR
STARTCHAR uni1E79
ENCODING 7801
SWIDTH 570 0
DWIDTH 9 0
BBX 9 15 0 0
BITMAP
005000
00A000
018000
000000
069800
04A400
000000
782E00
280E00
280A00
280A00
280A00
280A00
1C1E00
0B9A40
ENDCHAR
STARTCHAR uni1E7A
ENCODING 7802
SWIDTH 752 0
DWIDTH 12 0
BBX 12 16 0 0
BITMAP
009180
00D280
000000
00AA80
000000
BF80FE
1D0024
0D0024
0D0024
0D0024
0D0024
0D0024
0D0024
0E0030
0740A0
01AA40
ENDCHAR
STARTCHAR uni1E7B
ENCODING 7803
SWIDTH 570 0
DWIDTH 9 0
BBX 9 13 0 0
BITMAP
091800
0D2800
000000
0AA800
000000
782E00
280E00
280A00
280A00
280A00
280A00
1C1E00
0B9A40
ENDCHAR
STARTCHAR uni1E7C
ENCODING 7804
SWIDTH 680 0
DWIDTH 11 0
BBX 11 14 0 0
BITMAP
01A500
011900
000000
FF01FC
3C0060
1D0090
0E0080
0B4140
038200
02C600
01D900
00E800
007400
003000
ENDCHAR
STARTCHAR uni1E7D
ENCODING 7805
SWIDTH 481 0
DWIDTH 8 0
BBX 8 11 0 0
BITMAP
0A54
10A0
0000
FC2F
340C
2814
1C20
0E20
0B50
0380
0240
ENDCHAR
STARTCHAR uni1E7E
ENCODING 7806
SWIDTH 680 0
DWIDTH 11 0
BBX 11 14 0 -3
BITMAP
FF01FC
3C0060
1D0090
0E0080
0B4140
038200
02C600
01D900
00E800
007400
003000
000000
006000
007400
ENDCHAR
STARTCHAR uni1E7F
ENCODING 7807
SWIDTH 481 0
DWIDTH 8 0
BBX 8 11 0 -3
BITMAP
FC2F
340C
2814
1C20
0E20
0B50
0380
0240
0000
0240
0380
ENDCHAR
STARTCHAR Wgrave
ENCODING 7808
SWIDTH 944 0
DWIDTH 15 0
BBX 15 14 0 0
BITMAP
001E0000
00024000
00000000
FE2FD0FC
3C074070
1D038060
0E02C090
0B03D080
0745E180
03887200
01D83600
00F42D00
00B01C00
00600800
ENDCHAR
STARTCHAR wgrave
ENCODING 7809
SWIDTH 749 0
DWIDTH 12 0
BBX 13 12 -1 0
BITMAP
00140000
001D0000
00060000
00000000
7F2F47C0
0D0B0240
0A074200
070B8500
0389C800
02D4D800
00E0B400
00906000
ENDCHAR
STARTCHAR Wacute
ENCODING 7810
SWIDTH 944 0
DWIDTH 15 0
BBX 15 14 0 0
BITMAP
00038000
00090000
00000000
FE2FD0FC
3C074070
1D038060
0E02C090
0B03D080
0745E180
03887200
01D83600
00F42D00
00B01C00
00600800
ENDCHAR
STARTCHAR wacute
ENCODING 7811
SWIDTH 749 0
DWIDTH 12 0
BBX 13 12 -1 0
BITMAP
00014000
00070000
00090000
00000000
7F2F47C0
0D0B0240
0A074200
070B8500
0389C800
02D4D800
00E0B400
00906000
ENDCHAR
STARTCHAR Wdieresis
ENCODING 7812
SWIDTH 944 0
DWIDTH 15 0
BBX 15 14 0 0
BITMAP
00246000
0034A000
00000000
FE2FD0FC
3C074070
1D038060
0E02C090
0B03D080
0745E180
03887200
01D83600
00F42D00
00B01C00
00600800
ENDCHAR
STARTCHAR wdieresis
ENCODING 7813
SWIDTH 749 0
DWIDTH 12 0
BBX 13 11 -1 0
BITMAP
00609000
0070D000
00000000
7F2F47C0
0D0B0240
0A074200
070B8500
0389C800
02D4D800
00E0B400
00906000
ENDCHAR
STARTCHAR uni1E86
ENCODING 7814
SWIDTH 944 0
DWIDTH 15 0
BBX 15 14 0 0
BITMAP
00060000
00070000
00000000
FE2FD0FC
3C074070
1D038060
0E02C090
0B03D080
0745E180
03887200
01D83600
00F42D00
00B01C00
00600800
ENDCHAR
STARTCHAR uni1E87
ENCODING 7815
SWIDTH 749 0
DWIDTH 12 0
BBX 13 11 -1 0
BITMAP
000A0000
000A0000
00000000
7F2F47C0
0D0B0240
0A074200
070B8500
0389C800
02D4D800
00E0B400
00906000
ENDCHAR
STARTCHAR uni1E88
ENCODING 7816
SWIDTH 944 0
DWIDTH 15 0
BBX 15 14 0 -3
BITMAP
FE2FD0FC
3C074070
1D038060
0E02C090
0B03D080
0745E180
03887200
01D83600
00F42D00
00B01C00
00600800
00000000
00024000
00034000
ENDCHAR
STARTCHAR uni1E89
ENCODING 7817
SWIDTH 749 0
DWIDTH 12 0
BBX 13 11 -1 -3
BITMAP
7F2F47C0
0D0B0240
0A074200
070B8500
0389C800
02D4D800
00E0B400
00906000
00000000
000A0000
000A0000
ENDCHAR
STARTCHAR uni1E8A
ENCODING 7818
SWIDTH 664 0
DWIDTH 11 0
BBX 11 14 0 0
BITMAP
006000
007400
000000
BF87F4
1F0180
074200
02C900
00E400
00B400
01AC00
020E00
090740
2803C0
BD0BF4
ENDCHAR
STARTCHAR uni1E8B
ENCODING 7819
SWIDTH 479 0
DWIDTH 8 0
BBX 8 11 0 0
BITMAP
0240
0280
0000
BD3D
2C24
0A50
0780
02C0
08A0
2438
F87E
ENDCHAR
STARTCHAR uni1E8C
ENCODING 7820
SWIDTH 664 0
DWIDTH 11 0
BBX 11 14 0 0
BITMAP
024600
034700
000000
BF87F4
1F0180
074200
02C900
00E400
00B400
01AC00
020E00
090740
2803C0
BD0BF4
ENDCHAR
STARTCHAR uni1E8D
ENCODING 7821
SWIDTH 479 0
DWIDTH 8 0
BBX 8 11 0 0
BITMAP
1824
2834
0000
BD3D
2C24
0A50
0780
02C0
08A0
2438
F87E
ENDCHAR
STARTCHAR uni1E8E
ENCODING 7822
SWIDTH 647 0
DWIDTH 10 0
BBX 11 14 0 0
BITMAP
006000
007400
000000
FF03F4
2D00C0
0E0240
074600
02C800
00F400
00B000
00B000
00B000
00B000
02FD00
ENDCHAR
STARTCHAR uni1E8F
ENCODING 7823
SWIDTH 483 0
DWIDTH 8 0
BBX 8 15 0 -4
BITMAP
0180
0280
0000
FD2E
740C
2814
1D20
0A20
0750
03C0
0280
0240
0200
A900
B800
ENDCHAR
STARTCHAR uni1E90
ENCODING 7824
SWIDTH 594 0
DWIDTH 10 0
BBX 9 15 0 0
BITMAP
005000
01F400
020800
000000
3EABC0
300B40
201E00
003C00
00B400
01E000
02C000
0B4000
1E0080
2C0180
7EAB80
ENDCHAR
STARTCHAR uni1E91
ENCODING 7825
SWIDTH 458 0
DWIDTH 7 0
BBX 7 12 0 0
BITMAP
0140
06C0
0820
0000
7AB8
60B0
01D0
0380
0B00
1D04
2818
7AB8
ENDCHAR
STARTCHAR uni1E92
ENCODING 7826
SWIDTH 594 0
DWIDTH 10 0
BBX 9 14 0 -3
BITMAP
3EABC0
300B40
201E00
003C00
00B400
01E000
02C000
0B4000
1E0080
2C0180
7EAB80
000000
009000
00D000
ENDCHAR
STARTCHAR uni1E93
ENCODING 7827
SWIDTH 458 0
DWIDTH 7 0
BBX 7 11 0 -3
BITMAP
7AB8
60B0
01D0
0380
0B00
1D04
2818
7AB8
0000
0240
0340
ENDCHAR
STARTCHAR uni1E94
ENCODING 7828
SWIDTH 594 0
DWIDTH 10 0
BBX 9 13 0 -2
BITMAP
3EABC0
300B40
201E00
003C00
00B400
01E000
02C000
0B4000
1E0080
2C0180
7EAB80
000000
0AA800
ENDCHAR
STARTCHAR uni1E95
ENCODING 7829
SWIDTH 458 0
DWIDTH 7 0
BBX 7 10 0 -2
BITMAP
7AB8
60B0
01D0
0380
0B00
1D04
2818
7AB8
0000
1AA0
ENDCHAR
STARTCHAR uni1E96
ENCODING 7830
SWIDTH 577 0
DWIDTH 9 0
BBX 9 13 0 -2
BITMAP
6C0000
1C0000
1C0000
1DB800
1D0D00
1C0A00
1C0A00
1C0A00
1C0A00
1C0A00
7F2F80
000000
06A800
ENDCHAR
STARTCHAR uni1E97
ENCODING 7831
SWIDTH 315 0
DWIDTH 5 0
BBX 5 13 0 0
BITMAP
9180
E1C0
0000
0800
2800
7E40
2800
2800
2800
2800
2800
1C40
0E40
ENDCHAR
STARTCHAR uni1E98
ENCODING 7832
SWIDTH 749 0
DWIDTH 12 0
BBX 13 13 -1 0
BITMAP
000A0000
00258000
00258000
000A0000
00000000
7F2F47C0
0D0B0240
0A074200
070B8500
0389C800
02D4D800
00E0B400
00906000
ENDCHAR
STARTCHAR uni1E99
ENCODING 7833
SWIDTH 483 0
DWIDTH 8 0
BBX 8 17 0 -4
BITMAP
0280
0520
0520
0280
0000
FD2E
740C
2814
1D20
0A20
0750
03C0
0280
0240
0200
A900
B800
ENDCHAR
STARTCHAR uni1E9A
ENCODING 7834
SWIDTH 480 0
DWIDTH 8 0
BBX 8 12 0 0
BITMAP
0240
0080
0240
0000
1AD0
3470
2070
01B0
1970
7070
7070
2E79
ENDCHAR
STARTCHAR uni1E9B
ENCODING 7835
SWIDTH 285 0
DWIDTH 5 0
BBX 6 15 0 0
BITMAP
1800
1C00
0000
0000
06E0
0C50
1C00
7C00
1C00
1C00
1C00
1C00
1C00
1C00
BF40
ENDCHAR
STARTCHAR uni1E9C
ENCODING 7836
SWIDTH 300 0
DWIDTH 5 0
BBX 6 11 0 0
BITMAP
06E0
0D20
1C00
6C00
1E40
1D00
6C00
1C00
1C00
1D00
7F80
ENDCHAR
STARTCHAR uni1E9D
ENCODING 7837
SWIDTH 285 0
DWIDTH 5 0
BBX 6 11 0 0
BITMAP
0AE0
6E40
1C00
7C00
1C00
1C00
1C00
1C00
1C00
1C00
BF40
ENDCHAR
STARTCHAR uni1E9E
ENCODING 7838
SWIDTH 684 0
DWIDTH 11 0
BBX 11 11 0 0
BITMAP
01AA90
0741D0
0E0380
0D0B00
0D1E00
0D06D0
0D00B0
0D0074
0D0074
1DA0B0
BD6A80
ENDCHAR
STARTCHAR uni1E9F
ENCODING 7839
SWIDTH 517 0
DWIDTH 8 0
BBX 8 12 0 0
BITMAP
06A4
0C1C
1D00
0B40
02E0
0A78
381D
740E
700A
740E
381C
0AA4
ENDCHAR
STARTCHAR uni1EA0
ENCODING 7840
SWIDTH 718 0
DWIDTH 11 0
BBX 12 14 0 -3
BITMAP
003400
007800
00AC00
009D00
024F00
030740
060380
0BABD0
1C01E0
2400F4
BD02FD
000000
006000
007000
ENDCHAR
STARTCHAR uni1EA1
ENCODING 7841
SWIDTH 480 0
DWIDTH 8 0
BBX 8 11 0 -3
BITMAP
1AD0
3470
2070
01B0
1970
7070
7070
2E79
0000
0240
0340
ENDCHAR
STARTCHAR uni1EA2
ENCODING 7842
SWIDTH 718 0
DWIDTH 11 0
BBX 12 15 0 0
BITMAP
006800
005900
000800
002000
003400
007800
00AC00
009D00
024F00
030740
060380
0BABD0
1C01E0
2400F4
BD02FD
ENDCHAR
STARTCHAR uni1EA3
ENCODING 7843
SWIDTH 480 0
DWIDTH 8 0
BBX 8 13 0 0
BITMAP
0680
0590
0080
0240
0000
1AD0
3470
2070
01B0
1970
7070
7070
2E79
ENDCHAR
STARTCHAR uni1EA4
ENCODING 7844
SWIDTH 718 0
DWIDTH 11 0
BBX 12 14 0 0
BITMAP
0000B0
007980
018600
003400
007800
00AC00
009D00
024F00
030740
060380
0BABD0
1C01E0
2400F4
BD02FD
ENDCHAR
STARTCHAR uni1EA5
ENCODING 7845
SWIDTH 480 0
DWIDTH 8 0
BBX 8 13 0 0
BITMAP
0005
001C
07A0
0990
1010
1AD0
3470
2070
01B0
1970
7070
7070
2E79
ENDCHAR
STARTCHAR uni1EA6
ENCODING 7846
SWIDTH 718 0
DWIDTH 11 0
BBX 12 14 0 0
BITMAP
000740
007880
018600
003400
007800
00AC00
009D00
024F00
030740
060380
0BABD0
1C01E0
2400F4
BD02FD
ENDCHAR
STARTCHAR uni1EA7
ENCODING 7847
SWIDTH 480 0
DWIDTH 8 0
BBX 8 13 0 0
BITMAP
00A0
0030
0794
1850
0000
1AD0
3470
2070
01B0
1970
7070
7070
2E79
ENDCHAR
STARTCHAR uni1EA8
ENCODING 7848
SWIDTH 718 0
DWIDTH 11 0
BBX 12 17 0 0
BITMAP
000680
000590
000080
007A00
018600
000000
003400
007800
00AC00
009D00
024F00
030740
060380
0BABD0
1C01E0
2400F4
BD02FD
ENDCHAR
STARTCHAR uni1EA9
ENCODING 7849
SWIDTH 480 0
DWIDTH 8 0
BBX 8 14 0 0
BITMAP
0068
0049
0008
07A0
0850
0000
1AD0
3470
2070
01B0
1970
7070
7070
2E79
ENDCHAR
STARTCHAR uni1EAA
ENCODING 7850
SWIDTH 718 0
DWIDTH 11 0
BBX 12 15 0 0
BITMAP
01A100
011500
007800
018600
003400
007800
00AC00
009D00
024F00
030740
060380
0BABD0
1C01E0
2400F4
BD02FD
ENDCHAR
STARTCHAR uni1EAB
ENCODING 7851
SWIDTH 480 0
DWIDTH 8 0
BBX 8 13 0 0
BITMAP
1AA0
0000
0380
09C0
1860
1AD0
3470
2070
01B0
1970
7070
7070
2E79
ENDCHAR
STARTCHAR uni1EAC
ENCODING 7852
SWIDTH 718 0
DWIDTH 11 0
BBX 12 18 0 -3
BITMAP
001400
00AC00
018600
000000
003400
007800
00AC00
009D00
024F00
030740
060380
0BABD0
1C01E0
2400F4
BD02FD
000000
006000
007000
ENDCHAR
STARTCHAR uni1EAD
ENCODING 7853
SWIDTH 480 0
DWIDTH 8 0
BBX 8 15 0 -3
BITMAP
0140
0A80
1860
0000
1AD0
3470
2070
01B0
1970
7070
7070
2E79
0000
0240
0340
ENDCHAR
STARTCHAR uni1EAE
ENCODING 7854
SWIDTH 718 0
DWIDTH 11 0
BBX 12 16 0 0
BITMAP
000500
012900
025200
00BD00
000000
003400
007800
00AC00
009D00
024F00
030740
060380
0BABD0
1C01E0
2400F4
BD02FD
ENDCHAR
STARTCHAR uni1EAF
ENCODING 7855
SWIDTH 480 0
DWIDTH 8 0
BBX 8 13 0 0
BITMAP
0040
0180
2520
0FD0
0000
1AD0
3470
2070
01B0
1970
7070
7070
2E79
ENDCHAR
STARTCHAR uni1EB0
ENCODING 7856
SWIDTH 718 0
DWIDTH 11 0
BBX 12 16 0 0
BITMAP
004000
016100
025600
00BD00
000000
003400
007800
00AC00
009D00
024F00
030740
060380
0BABD0
1C01E0
2400F4
BD02FD
ENDCHAR
STARTCHAR uni1EB1
ENCODING 7857
SWIDTH 480 0
DWIDTH 8 0
BBX 8 13 0 0
BITMAP
0500
0600
2560
0FD0
0000
1AD0
3470
2070
01B0
1970
7070
7070
2E79
ENDCHAR
STARTCHAR uni1EB2
ENCODING 7858
SWIDTH 718 0
DWIDTH 11 0
BBX 12 17 0 0
BITMAP
006800
004900
000800
026200
00A900
000000
003400
007800
00AC00
009D00
024F00
030740
060380
0BABD0
1C01E0
2400F4
BD02FD
ENDCHAR
STARTCHAR uni1EB3
ENCODING 7859
SWIDTH 480 0
DWIDTH 8 0
BBX 8 14 0 0
BITMAP
0680
0480
0080
2220
0A90
0000
1AD0
3470
2070
01B0
1970
7070
7070
2E79
ENDCHAR
STARTCHAR uni1EB4
ENCODING 7860
SWIDTH 718 0
DWIDTH 11 0
BBX 12 16 0 0
BITMAP
01AA00
010100
014200
00A800
000000
003400
007800
00AC00
009D00
024F00
030740
060380
0BABD0
1C01E0
2400F4
BD02FD
ENDCHAR
STARTCHAR uni1EB5
ENCODING 7861
SWIDTH 480 0
DWIDTH 8 0
BBX 8 13 0 0
BITMAP
1AA0
0000
2020
1420
0A80
1AD0
3470
2070
01B0
1970
7070
7070
2E79
ENDCHAR
STARTCHAR uni1EB6
ENCODING 7862
SWIDTH 718 0
DWIDTH 11 0
BBX 12 18 0 -3
BITMAP
010100
014200
00A800
000000
003400
007800
00AC00
009D00
024F00
030740
060380
0BABD0
1C01E0
2400F4
BD02FD
000000
006000
007000
ENDCHAR
STARTCHAR uni1EB7
ENCODING 7863
SWIDTH 480 0
DWIDTH 8 0
BBX 8 15 0 -3
BITMAP
1010
1420
0A80
0000
1AD0
3470
2070
01B0
1970
7070
7070
2E79
0000
0240
0340
ENDCHAR
STARTCHAR uni1EB8
ENCODING 7864
SWIDTH 626 0
DWIDTH 10 0
BBX 10 14 0 -3
BITMAP
6FABC0
0E0080
0E0040
0E0200
0E0200
0FAE00
0E0200
0E0000
0E0050
0E0090
6FABD0
000000
006000
00A000
ENDCHAR
STARTCHAR uni1EB9
ENCODING 7865
SWIDTH 464 0
DWIDTH 7 0
BBX 7 11 0 -3
BITMAP
0AD0
2434
7028
7AA8
7000
7000
2804
0BA0
0000
0240
0280
ENDCHAR
STARTCHAR uni1EBA
ENCODING 7866
SWIDTH 626 0
DWIDTH 10 0
BBX 10 15 0 0
BITMAP
00A400
009800
001400
005000
6FABC0
0E0080
0E0040
0E0200
0E0200
0FAE00
0E0200
0E0000
0E0050
0E0090
6FABD0
ENDCHAR
STARTCHAR uni1EBB
ENCODING 7867
SWIDTH 464 0
DWIDTH 7 0
BBX 7 13 0 0
BITMAP
0280
0550
0090
0140
0000
0AD0
2434
7028
7AA8
7000
7000
2804
0BA0
ENDCHAR
STARTCHAR uni1EBC
ENCODING 7868
SWIDTH 626 0
DWIDTH 10 0
BBX 10 14 0 0
BITMAP
029500
042900
000000
6FABC0
0E0080
0E0040
0E0200
0E0200
0FAE00
0E0200
0E0000
0E0050
0E0090
6FABD0
ENDCHAR
STARTCHAR uni1EBD
ENCODING 7869
SWIDTH 464 0
DWIDTH 7 0
BBX 7 11 0 0
BITMAP
0A54
11A0
0000
0AD0
2434
7028
7AA8
7000
7000
2804
0BA0
ENDCHAR
STARTCHAR uni1EBE
ENCODING 7870
SWIDTH 626 0
DWIDTH 10 0
BBX 10 14 0 0
BITMAP
0001D0
00B640
024800
6FABC0
0E0080
0E0040
0E0200
0E0200
0FAE00
0E0200
0E0000
0E0050
0E0090
6FABD0
ENDCHAR
STARTCHAR uni1EBF
ENCODING 7871
SWIDTH 464 0
DWIDTH 7 0
BBX 8 13 0 0
BITMAP
0005
000D
0394
0990
0410
0AD0
2434
7028
7AA8
7000
7000
2804
0BA0
ENDCHAR
STARTCHAR uni1EC0
ENCODING 7872
SWIDTH 626 0
DWIDTH 10 0
BBX 10 14 0 0
BITMAP
000A00
00F540
024800
6FABC0
0E0080
0E0040
0E0200
0E0200
0FAE00
0E0200
0E0000
0E0050
0E0090
6FABD0
ENDCHAR
STARTCHAR uni1EC1
ENCODING 7873
SWIDTH 464 0
DWIDTH 7 0
BBX 7 13 0 0
BITMAP
00A0
0024
0384
0860
0000
0AD0
2434
7028
7AA8
7000
7000
2804
0BA0
ENDCHAR
STARTCHAR uni1EC2
ENCODING 7874
SWIDTH 626 0
DWIDTH 10 0
BBX 10 17 0 0
BITMAP
000A40
000980
000180
00B600
024800
000000
6FABC0
0E0080
0E0040
0E0200
0E0200
0FAE00
0E0200
0E0000
0E0050
0E0090
6FABD0
ENDCHAR
STARTCHAR uni1EC3
ENCODING 7875
SWIDTH 464 0
DWIDTH 7 0
BBX 8 14 0 0
BITMAP
0028
0059
0009
0390
0960
0000
0AD0
2434
7028
7AA8
7000
7000
2804
0BA0
ENDCHAR
STARTCHAR uni1EC4
ENCODING 7876
SWIDTH 626 0
DWIDTH 10 0
BBX 10 15 0 0
BITMAP
029100
001400
00F400
024800
6FABC0
0E0080
0E0040
0E0200
0E0200
0FAE00
0E0200
0E0000
0E0050
0E0090
6FABD0
ENDCHAR
STARTCHAR uni1EC5
ENCODING 7877
SWIDTH 464 0
DWIDTH 7 0
BBX 7 13 0 0
BITMAP
1AA0
0000
0380
0A90
0820
0AD0
2434
7028
7AA8
7000
7000
2804
0BA0
ENDCHAR
STARTCHAR uni1EC6
ENCODING 7878
SWIDTH 626 0
DWIDTH 10 0
BBX 10 18 0 -3
BITMAP
005000
01F400
020800
000000
6FABC0
0E0080
0E0040
0E0200
0E0200
0FAE00
0E0200
0E0000
0E0050
0E0090
6FABD0
000000
006000
00A000
ENDCHAR
STARTCHAR uni1EC7
ENCODING 7879
SWIDTH 464 0
DWIDTH 7 0
BBX 7 15 0 -3
BITMAP
0140
06C0
0820
0000
0AD0
2434
7028
7AA8
7000
7000
2804
0BA0
0000
0240
0280
ENDCHAR
STARTCHAR uni1EC8
ENCODING 7880
SWIDTH 357 0
DWIDTH 6 0
BBX 5 15 0 0
BITMAP
0A00
1640
0240
0500
7F80
0E00
0E00
0E00
0E00
0E00
0E00
0E00
0E00
0E00
7F80
ENDCHAR
STARTCHAR uni1EC9
ENCODING 7881
SWIDTH 285 0
DWIDTH 5 0
BBX 4 13 0 0
BITMAP
28
16
05
14
00
6C
1C
1C
1C
1C
1C
1C
7F
ENDCHAR
STARTCHAR uni1ECA
ENCODING 7882
SWIDTH 357 0
DWIDTH 6 0
BBX 5 14 0 -3
BITMAP
7F80
0E00
0E00
0E00
0E00
0E00
0E00
0E00
0E00
0E00
7F80
0000
0900
0A00
ENDCHAR
STARTCHAR uni1ECB
ENCODING 7883
SWIDTH 285 0
DWIDTH 5 0
BBX 4 14 0 -3
BITMAP
1C
18
00
6C
1C
1C
1C
1C
1C
1C
7F
00
18
1C
ENDCHAR
STARTCHAR uni1ECC
ENCODING 7884
SWIDTH 738 0
DWIDTH 12 0
BBX 10 14 1 -3
BITMAP
06A900
280780
7401D0
E000E0
E000B0
E000B0
E000B0
E000E0
B001D0
280380
06A900
000000
009000
00A000
ENDCHAR
STARTCHAR uni1ECD
ENCODING 7885
SWIDTH 514 0
DWIDTH 8 0
BBX 8 11 0 -3
BITMAP
0AA4
282C
740D
700E
700A
740D
281C
0BA0
0000
0180
02C0
ENDCHAR
STARTCHAR uni1ECE
ENCODING 7886
SWIDTH 738 0
DWIDTH 12 0
BBX 10 15 1 0
BITMAP
00A000
015400
002400
005000
06A900
280780
7401D0
E000E0
E000B0
E000B0
E000B0
E000E0
B001D0
280380
06A900
ENDCHAR
STARTCHAR uni1ECF
ENCODING 7887
SWIDTH 514 0
DWIDTH 8 0
BBX 8 13 0 0
BITMAP
0190
0120
0060
0080
0000
0AA4
282C
740D
700E
700A
740D
281C
0BA0
ENDCHAR
STARTCHAR uni1ED0
ENCODING 7888
SWIDTH 738 0
DWIDTH 12 0
BBX 10 14 1 0
BITMAP
0001D0
01F600
021800
06A900
280780
7401D0
E000E0
E000B0
E000B0
E000B0
E000E0
B001D0
280380
06A900
ENDCHAR
STARTCHAR uni1ED1
ENCODING 7889
SWIDTH 514 0
DWIDTH 8 0
BBX 8 13 0 0
BITMAP
0005
0009
02D8
0660
0410
0AA4
282C
740D
700E
700A
740D
281C
0BA0
ENDCHAR
STARTCHAR uni1ED2
ENCODING 7890
SWIDTH 738 0
DWIDTH 12 0
BBX 10 14 1 0
BITMAP
001D00
01F240
021800
06A900
280780
7401D0
E000E0
E000B0
E000B0
E000B0
E000E0
B001D0
280380
06A900
ENDCHAR
STARTCHAR uni1ED3
ENCODING 7891
SWIDTH 514 0
DWIDTH 8 0
BBX 8 13 0 0
BITMAP
0070
0028
02D4
0920
0000
0AA4
282C
740D
700E
700A
740D
281C
0BA0
ENDCHAR
STARTCHAR uni1ED4
ENCODING 7892
SWIDTH 738 0
DWIDTH 12 0
BBX 10 17 1 0
BITMAP
000A00
001580
000240
01F500
021800
000000
06A900
280780
7401D0
E000E0
E000B0
E000B0
E000B0
E000E0
B001D0
280380
06A900
ENDCHAR
STARTCHAR uni1ED5
ENCODING 7893
SWIDTH 514 0
DWIDTH 8 0
BBX 8 14 0 0
BITMAP
0029
0026
0005
02D4
0520
0000
0AA4
282C
740D
700E
700A
740D
281C
0BA0
ENDCHAR
STARTCHAR uni1ED6
ENCODING 7894
SWIDTH 738 0
DWIDTH 12 0
BBX 10 15 1 0
BITMAP
029100
041400
01F000
021800
06A900
280780
7401D0
E000E0
E000B0
E000B0
E000B0
E000E0
B001D0
280380
06A900
ENDCHAR
STARTCHAR uni1ED7
ENCODING 7895
SWIDTH 514 0
DWIDTH 8 0
BBX 8 13 0 0
BITMAP
0AA4
0000
02C0
06A0
0820
0AA4
282C
740D
700E
700A
740D
281C
0BA0
ENDCHAR
STARTCHAR uni1ED8
ENCODING 7896
SWIDTH 738 0
DWIDTH 12 0
BBX 10 18 1 -3
BITMAP
005000
01F400
020800
000000
06A900
280780
7401D0
E000E0
E000B0
E000B0
E000B0
E000E0
B001D0
280380
06A900
000000
009000
00A000
ENDCHAR
STARTCHAR uni1ED9
ENCODING 7897
SWIDTH 514 0
DWIDTH 8 0
BBX 8 15 0 -3
BITMAP
0140
0390
0820
0000
0AA4
282C
740D
700E
700A
740D
281C
0BA0
0000
0180
02C0
ENDCHAR
STARTCHAR uni1EDA
ENCODING 7898
SWIDTH 737 0
DWIDTH 12 0
BBX 12 14 0 0
BITMAP
001D04
00600D
00000D
01AFE4
0A01E0
1C0074
380038
38002C
78002C
38002C
380038
2C0074
0A00D0
01AA40
ENDCHAR
STARTCHAR uni1EDB
ENCODING 7899
SWIDTH 516 0
DWIDTH 8 0
BBX 8 12 0 0
BITMAP
0050
00D1
0147
0003
0AF9
282C
740D
700E
700A
740D
281C
0BA4
ENDCHAR
STARTCHAR uni1EDC
ENCODING 7900
SWIDTH 737 0
DWIDTH 12 0
BBX 12 14 0 0
BITMAP
00B404
00180D
00000D
01AFE4
0A01E0
1C0074
380038
38002C
78002C
38002C
380038
2C0074
0A00D0
01AA40
ENDCHAR
STARTCHAR uni1EDD
ENCODING 7901
SWIDTH 516 0
DWIDTH 8 0
BBX 8 12 0 0
BITMAP
0500
0341
0087
0003
0AF9
282C
740D
700E
700A
740D
281C
0BA4
ENDCHAR
STARTCHAR uni1EDE
ENCODING 7902
SWIDTH 737 0
DWIDTH 12 0
BBX 12 15 0 0
BITMAP
002800
005904
00090D
00140D
01AFE4
0A01E0
1C0074
380038
38002C
78002C
38002C
380038
2C0074
0A00D0
01AA40
ENDCHAR
STARTCHAR uni1EDF
ENCODING 7903
SWIDTH 516 0
DWIDTH 8 0
BBX 8 13 0 0
BITMAP
0190
0120
0061
0087
0003
0AF9
282C
740D
700E
700A
740D
281C
0BA4
ENDCHAR
STARTCHAR uni1EE0
ENCODING 7904
SWIDTH 737 0
DWIDTH 12 0
BBX 12 14 0 0
BITMAP
00A544
011A0D
00000D
01AFE4
0A01E0
1C0074
380038
38002C
78002C
38002C
380038
2C0074
0A00D0
01AA40
ENDCHAR
STARTCHAR uni1EE1
ENCODING 7905
SWIDTH 516 0
DWIDTH 8 0
BBX 8 11 0 0
BITMAP
0A4A
10A7
0002
0AF9
282C
740D
700E
700A
740D
281C
0BA4
ENDCHAR
STARTCHAR uni1EE2
ENCODING 7906
SWIDTH 737 0
DWIDTH 12 0
BBX 12 17 0 -3
BITMAP
000004
00000D
00000D
01AFE4
0A01E0
1C0074
380038
38002C
78002C
38002C
380038
2C0074
0A00D0
01AA40
000000
002400
002800
ENDCHAR
STARTCHAR uni1EE3
ENCODING 7907
SWIDTH 516 0
DWIDTH 8 0
BBX 8 14 0 -3
BITMAP
0001
0007
0003
0AF9
282C
740D
700E
700A
740D
281C
0BA4
0000
0180
02C0
ENDCHAR
STARTCHAR uni1EE4
ENCODING 7908
SWIDTH 752 0
DWIDTH 12 0
BBX 12 14 0 -3
BITMAP
BF80FE
1D0024
0D0024
0D0024
0D0024
0D0024
0D0024
0D0024
0E0030
0740A0
01AA40
000000
002800
002800
ENDCHAR
STARTCHAR uni1EE5
ENCODING 7909
SWIDTH 570 0
DWIDTH 9 0
BBX 9 11 0 -3
BITMAP
782E00
280E00
280A00
280A00
280A00
280A00
1C1E00
0B9A40
000000
018000
01C000
ENDCHAR
STARTCHAR uni1EE6
ENCODING 7910
SWIDTH 752 0
DWIDTH 12 0
BBX 12 15 0 0
BITMAP
001900
002300
000200
000800
BF80FE
1D0024
0D0024
0D0024
0D0024
0D0024
0D0024
0D0024
0E0030
0740A0
01AA40
ENDCHAR
STARTCHAR uni1EE7
ENCODING 7911
SWIDTH 570 0
DWIDTH 9 0
BBX 9 13 0 0
BITMAP
019000
013000
002000
008000
000000
782E00
280E00
280A00
280A00
280A00
280A00
1C1E00
0B9A40
ENDCHAR
STARTCHAR uni1EE8
ENCODING 7912
SWIDTH 762 0
DWIDTH 12 0
BBX 13 14 0 0
BITMAP
000A01C0
002401C0
00000080
BF80F900
1D002400
0D002400
0D002400
0D002400
0D002400
0D002400
0D002000
0E002000
07409000
01BA4000
ENDCHAR
STARTCHAR uni1EE9
ENCODING 7913
SWIDTH 574 0
DWIDTH 9 0
BBX 10 12 0 0
BITMAP
005000
00D040
0180D0
000080
682F40
280E00
280A00
280A00
280A00
280A00
1C1E00
0B9A40
ENDCHAR
STARTCHAR uni1EEA
ENCODING 7914
SWIDTH 762 0
DWIDTH 12 0
BBX 13 14 0 0
BITMAP
003801C0
000A01C0
00000080
BF80F900
1D002400
0D002400
0D002400
0D002400
0D002400
0D002400
0D002000
0E002000
07409000
01BA4000
ENDCHAR
STARTCHAR uni1EEB
ENCODING 7915
SWIDTH 574 0
DWIDTH 9 0
BBX 10 12 0 0
BITMAP
060000
024040
0080D0
000080
682F40
280E00
280A00
280A00
280A00
280A00
1C1E00
0B9A40
ENDCHAR
STARTCHAR uni1EEC
ENCODING 7916
SWIDTH 762 0
DWIDTH 12 0
BBX 13 15 0 0
BITMAP
00190000
002301C0
000201C0
00080080
BF80F900
1D002400
0D002400
0D002400
0D002400
0D002400
0D002400
0D002000
0E002000
07409000
01BA4000
ENDCHAR
STARTCHAR uni1EED
ENCODING 7917
SWIDTH 574 0
DWIDTH 9 0
BBX 10 13 0 0
BITMAP
019000
013000
002040
0080D0
000080
682F40
280E00
280A00
280A00
280A00
280A00
1C1E00
0B9A40
ENDCHAR
STARTCHAR uni1EEE
ENCODING 7918
SWIDTH 762 0
DWIDTH 12 0
BBX 13 14 0 0
BITMAP
006941C0
004A41C0
00000080
BF80F900
1D002400
0D002400
0D002400
0D002400
0D002400
0D002400
0D002000
0E002000
07409000
01BA4000
ENDCHAR
STARTCHAR uni1EEF
ENCODING 7919
SWIDTH 574 0
DWIDTH 9 0
BBX 10 11 0 0
BITMAP
069440
04A4D0
000080
682F40
280E00
280A00
280A00
280A00
280A00
1C1E00
0B9A40
ENDCHAR
STARTCHAR uni1EF0
ENCODING 7920
SWIDTH 762 0
DWIDTH 12 0
BBX 13 17 0 -3
BITMAP
000001C0
000001C0
00000080
BF80F900
1D002400
0D002400
0D002400
0D002400
0D002400
0D002400
0D002000
0E002000
07409000
01BA4000
00000000
00280000
00280000
ENDCHAR
STARTCHAR uni1EF1
ENCODING 7921
SWIDTH 574 0
DWIDTH 9 0
BBX 10 14 0 -3
BITMAP
000040
0000D0
000080
682F40
280E00
280A00
280A00
280A00
280A00
1C1E00
0B9A40
000000
018000
01C000
ENDCHAR
STARTCHAR Ygrave
ENCODING 7922
SWIDTH 647 0
DWIDTH 10 0
BBX 11 14 0 0
BITMAP
00E000
002800
000000
FF03F4
2D00C0
0E0240
074600
02C800
00F400
00B000
00B000
00B000
00B000
02FD00
ENDCHAR
STARTCHAR ygrave
ENCODING 7923
SWIDTH 483 0
DWIDTH 8 0
BBX 8 16 0 -4
BITMAP
0500
0340
0080
0000
FD2E
740C
2814
1D20
0A20
0750
03C0
0280
0240
0200
A900
B800
ENDCHAR
STARTCHAR uni1EF4
ENCODING 7924
SWIDTH 647 0
DWIDTH 10 0
BBX 11 14 0 -3
BITMAP
FF03F4
2D00C0
0E0240
074600
02C800
00F400
00B000
00B000
00B000
00B000
02FD00
000000
006000
007000
ENDCHAR
STARTCHAR uni1EF5
ENCODING 7925
SWIDTH 483 0
DWIDTH 8 0
BBX 8 12 0 -4
BITMAP
FD2E
740C
2814
1D20
0A20
0750
03C0
0280
0240
0260
A970
B800
ENDCHAR
STARTCHAR uni1EF6
ENCODING 7926
SWIDTH 647 0
DWIDTH 10 0
BBX 11 15 0 0
BITMAP
006800
008C00
000800
002000
FF03F4
2D00C0
0E0240
074600
02C800
00F400
00B000
00B000
00B000
00B000
02FD00
ENDCHAR
STARTCHAR uni1EF7
ENCODING 7927
SWIDTH 483 0
DWIDTH 8 0
BBX 8 17 0 -4
BITMAP
0290
0160
0060
0180
0000
FD2E
740C
2814
1D20
0A20
0750
03C0
0280
0240
0200
A900
B800
ENDCHAR
STARTCHAR uni1EF8
ENCODING 7928
SWIDTH 647 0
DWIDTH 10 0
BBX 11 14 0 0
BITMAP
01A500
012900
000000
FF03F4
2D00C0
0E0240
074600
02C800
00F400
00B000
00B000
00B000
00B000
02FD00
ENDCHAR
STARTCHAR uni1EF9
ENCODING 7929
SWIDTH 483 0
DWIDTH 8 0
BBX 8 15 0 -4
BITMAP
0A54
14A0
0000
FD2E
740C
2814
1D20
0A20
0750
03C0
0280
0240
0200
A900
B800
ENDCHAR
STARTCHAR uni2000
ENCODING 8192
SWIDTH 500 0
DWIDTH 8 0
BBX 1 1 0 0
BITMAP
00
ENDCHAR
STARTCHAR uni2001
ENCODING 8193
SWIDTH 1000 0
DWIDTH 16 0
BBX 1 1 0 0
BITMAP
00
ENDCHAR
STARTCHAR uni2002
ENCODING 8194
SWIDTH 500 0
DWIDTH 8 0
BBX 1 1 0 0
BITMAP
00
ENDCHAR
STARTCHAR uni2003
ENCODING 8195
SWIDTH 1000 0
DWIDTH 16 0
BBX 1 1 0 0
BITMAP
00
ENDCHAR
STARTCHAR uni2004
ENCODING 8196
SWIDTH 334 0
DWIDTH 5 0
BBX 1 1 0 0
BITMAP
00
ENDCHAR
STARTCHAR uni2005
ENCODING 8197
SWIDTH 250 0
DWIDTH 4 0
BBX 1 1 0 0
BITMAP
00
ENDCHAR
STARTCHAR uni2006
ENCODING 8198
SWIDTH 167 0
DWIDTH 3 0
BBX 1 1 0 0
BITMAP
00
ENDCHAR
STARTCHAR uni2007
ENCODING 8199
SWIDTH 560 0
DWIDTH 9 0
BBX 1 1 0 0
BITMAP
00
ENDCHAR
STARTCHAR uni2008
ENCODING 8200
SWIDTH 297 0
DWIDTH 5 0
BBX 1 1 0 0
BITMAP
00
ENDCHAR
STARTCHAR uni2009
ENCODING 8201
SWIDTH 125 0
DWIDTH 2 0
BBX 1 1 0 0
BITMAP
00
ENDCHAR
STARTCHAR uni200A
ENCODING 8202
SWIDTH 63 0
DWIDTH 1 0
BBX 1 1 0 0
BITMAP
00
ENDCHAR
STARTCHAR uni200B
ENCODING 8203
SWIDTH 0 0
DWIDTH 0 0
BBX 1 1 0 0
BITMAP
00
ENDCHAR
STARTCHAR uni200C
ENCODING 8204
SWIDTH 0 0
DWIDTH 0 0
BBX 2 17 -1 -4
BITMAP
50
50
50
50
50
50
50
50
50
50
50
50
50
50
50
50
50
ENDCHAR
STARTCHAR uni200D
ENCODING 8205
SWIDTH 0 0
DWIDTH 0 0
BBX 4 19 -2 -4
BITMAP
41
28
55
55
14
14
14
14
14
14
14
14
14
14
14
14
14
14
14
ENDCHAR
STARTCHAR uni2010
ENCODING 8208
SWIDTH 315 0
DWIDTH 5 0
BBX 5 1 0 4
BITMAP
6A40
ENDCHAR
STARTCHAR uni2011
ENCODING 8209
SWIDTH 315 0
DWIDTH 5 0
BBX 5 1 0 4
BITMAP
6A40
ENDCHAR
STARTCHAR figuredash
ENCODING 8210
SWIDTH 495 0
DWIDTH 8 0
BBX 8 1 0 4
BITMAP
6AA9
ENDCHAR
STARTCHAR endash
ENCODING 8211
SWIDTH 500 0
DWIDTH 8 0
BBX 8 1 0 4
BITMAP
6AA9
ENDCHAR
STARTCHAR emdash
ENCODING 8212
SWIDTH 1000 0
DWIDTH 16 0
BBX 16 1 0 4
BITMAP
6AAAAAA9
ENDCHAR
STARTCHAR uni2015
ENCODING 8213
SWIDTH 940 0
DWIDTH 15 0
BBX 15 1 0 4
BITMAP
AAAAAAA8
ENDCHAR
STARTCHAR uni2016
ENCODING 8214
SWIDTH 427 0
DWIDTH 7 0
BBX 4 15 1 -4
BITMAP
62
62
62
62
62
62
62
62
62
62
62
62
62
62
62
ENDCHAR
STARTCHAR underscoredbl
ENCODING 8215
SWIDTH 512 0
DWIDTH 8 0
BBX 8 3 0 -4
BITMAP
AAAA
0000
AAAA
ENDCHAR
STARTCHAR quoteleft
ENCODING 8216
SWIDTH 245 0
DWIDTH 4 0
BBX 2 4 1 8
BITMAP
20
80
E0
B0
ENDCHAR
STARTCHAR quoteright
ENCODING 8217
SWIDTH 245 0
DWIDTH 4 0
BBX 2 4 1 7
BITMAP
E0
B0
20
80
ENDCHAR
STARTCHAR quotesinglbase
ENCODING 8218
SWIDTH 243 0
DWIDTH 4 0
BBX 2 4 1 -2
BITMAP
A0
F0
20
90
ENDCHAR
STARTCHAR quotereversed
ENCODING 8219
SWIDTH 243 0
DWIDTH 4 0
BBX 2 4 1 7
BITMAP
B0
E0
80
20
ENDCHAR
STARTCHAR quotedblleft
ENCODING 8220
SWIDTH 435 0
DWIDTH 7 0
BBX 5 4 1 8
BITMAP
2080
8200
E380
B2C0
ENDCHAR
STARTCHAR quotedblright
ENCODING 8221
SWIDTH 434 0
DWIDTH 7 0
BBX 5 4 1 7
BITMAP
E380
B2C0
2080
8200
ENDCHAR
STARTCHAR quotedblbase
ENCODING 8222
SWIDTH 433 0
DWIDTH 7 0
BBX 5 4 1 -2
BITMAP
A280
F3C0
2080
9240
ENDCHAR
STARTCHAR uni201F
ENCODING 8223
SWIDTH 434 0
DWIDTH 7 0
BBX 5 4 1 7
BITMAP
B2C0
E380
8200
2080
ENDCHAR
STARTCHAR dagger
ENCODING 8224
SWIDTH 512 0
DWIDTH 8 0
BBX 6 14 1 -3
BITMAP
0600
0600
0100
FAB0
0100
0500
0A00
0A00
0600
0500
0100
0100
0100
0100
ENDCHAR
STARTCHAR daggerdbl
ENCODING 8225
SWIDTH 512 0
DWIDTH 8 0
BBX 6 14 1 -3
BITMAP
0600
0600
0100
FAB0
0100
0500
0A00
0600
0100
E6B0
0100
0500
0A00
0500
ENDCHAR
STARTCHAR bullet
ENCODING 8226
SWIDTH 457 0
DWIDTH 7 0
BBX 5 4 1 2
BITMAP
2E00
7F40
3F40
2E00
ENDCHAR
STARTCHAR twodotenleader
ENCODING 8229
SWIDTH 500 0
DWIDTH 8 0
BBX 6 2 1 0
BITMAP
D070
D070
ENDCHAR
STARTCHAR ellipsis
ENCODING 8230
SWIDTH 887 0
DWIDTH 14 0
BBX 12 2 1 0
BITMAP
74280D
74281D
ENDCHAR
STARTCHAR uni202F
ENCODING 8239
SWIDTH 125 0
DWIDTH 2 0
BBX 1 1 0 0
BITMAP
00
ENDCHAR
STARTCHAR perthousand
ENCODING 8240
SWIDTH 1017 0
DWIDTH 16 0
BBX 16 11 0 0
BITMAP
0A818000
24AA4000
30420000
70890000
31880000
2A22A068
006615C5
008D1642
014C1641
020D2248
090781E4
ENDCHAR
STARTCHAR uni2031
ENCODING 8241
SWIDTH 1342 0
DWIDTH 21 0
BBX 21 11 0 0
BITMAP
0A8180000000
24AA40000000
304200000000
708900000000
318800000000
2A22A0681A00
006615C53480
008D16426080
014C1641A080
020D2248A140
090781E42900
ENDCHAR
STARTCHAR minute
ENCODING 8242
SWIDTH 296 0
DWIDTH 5 0
BBX 3 5 1 6
BITMAP
28
34
70
90
80
ENDCHAR
STARTCHAR second
ENCODING 8243
SWIDTH 436 0
DWIDTH 7 0
BBX 5 5 1 6
BITMAP
2980
3680
7300
9600
8800
ENDCHAR
STARTCHAR uni2034
ENCODING 8244
SWIDTH 576 0
DWIDTH 9 0
BBX 7 5 1 6
BITMAP
299C
36AC
7324
9620
8850
ENDCHAR
STARTCHAR uni2035
ENCODING 8245
SWIDTH 296 0
DWIDTH 5 0
BBX 3 5 1 6
BITMAP
90
A0
30
24
08
ENDCHAR
STARTCHAR uni2036
ENCODING 8246
SWIDTH 436 0
DWIDTH 7 0
BBX 5 5 1 6
BITMAP
9A00
A700
3340
2580
0880
ENDCHAR
STARTCHAR uni2037
ENCODING 8247
SWIDTH 576 0
DWIDTH 9 0
BBX 7 5 1 6
BITMAP
9A60
A774
3368
2588
0888
ENDCHAR
STARTCHAR uni2038
ENCODING 8248
SWIDTH 523 0
DWIDTH 8 0
BBX 7 5 1 -3
BITMAP
0600
0940
2090
9020
4004
ENDCHAR
STARTCHAR guilsinglleft
ENCODING 8249
SWIDTH 307 0
DWIDTH 5 0
BBX 4 7 0 0
BITMAP
02
08
34
74
18
06
01
ENDCHAR
STARTCHAR guilsinglright
ENCODING 8250
SWIDTH 307 0
DWIDTH 5 0
BBX 4 7 1 0
BITMAP
80
60
18
1D
34
90
40
ENDCHAR
STARTCHAR uni203B
ENCODING 8251
SWIDTH 701 0
DWIDTH 11 0
BBX 9 9 1 0
BITMAP
91D1C0
29D600
0A1800
B2E280
B1E280
062800
1C0900
35D340
91D0C0
ENDCHAR
STARTCHAR exclamdbl
ENCODING 8252
SWIDTH 565 0
DWIDTH 9 0
BBX 7 11 1 0
BITMAP
7034
B038
B038
7034
7024
6024
6024
2020
0000
7024
7038
ENDCHAR
STARTCHAR uni203E
ENCODING 8254
SWIDTH 512 0
DWIDTH 8 0
BBX 8 1 0 13
BITMAP
AAAA
ENDCHAR
STARTCHAR uni2040
ENCODING 8256
SWIDTH 810 0
DWIDTH 13 0
BBX 11 3 1 9
BITMAP
06AA40
240060
400004
ENDCHAR
STARTCHAR uni2043
ENCODING 8259
SWIDTH 352 0
DWIDTH 6 0
BBX 5 3 0 3
BITMAP
7F80
7F80
7F80
ENDCHAR
STARTCHAR fraction
ENCODING 8260
SWIDTH 205 0
DWIDTH 3 0
BBX 8 11 -2 0
BITMAP
0009
0018
0020
0090
0080
0200
0500
0800
2400
6000
8000
ENDCHAR
STARTCHAR uni2047
ENCODING 8263
SWIDTH 822 0
DWIDTH 13 0
BBX 13 11 0 0
BITMAP
1A90AA00
60B24380
70738280
10710380
00900700
01800900
02001800
02001400
00000000
06002400
07003800
ENDCHAR
STARTCHAR uni204B
ENCODING 8267
SWIDTH 605 0
DWIDTH 10 0
BBX 8 14 1 -3
BITMAP
BFE4
268D
268A
268A
268A
269D
2690
2680
2680
2680
2680
2680
76D0
5050
ENDCHAR
STARTCHAR uni204C
ENCODING 8268
SWIDTH 479 0
DWIDTH 8 0
BBX 6 5 1 2
BITMAP
2EA0
7D40
BD40
7D40
2EA0
ENDCHAR
STARTCHAR uni204D
ENCODING 8269
SWIDTH 479 0
DWIDTH 8 0
BBX 6 5 1 2
BITMAP
AB40
17C0
17D0
17C0
AB40
ENDCHAR
STARTCHAR uni204E
ENCODING 8270
SWIDTH 410 0
DWIDTH 7 0
BBX 6 6 0 -3
BITMAP
0600
6660
1A90
1A90
6660
0600
ENDCHAR
STARTCHAR uni204F
ENCODING 8271
SWIDTH 245 0
DWIDTH 4 0
BBX 2 10 1 -2
BITMAP
A0
A0
00
00
00
00
A0
F0
80
50
ENDCHAR
STARTCHAR uni2050
ENCODING 8272
SWIDTH 809 0
DWIDTH 13 0
BBX 11 11 1 0
BITMAP
06AA40
2800A0
900028
800004
000000
000000
000000
400004
900028
2400A0
06AA40
ENDCHAR
STARTCHAR uni2051
ENCODING 8273
SWIDTH 410 0
DWIDTH 7 0
BBX 6 13 0 -1
BITMAP
0600
6660
1A90
1A90
6660
0600
0000
0600
6660
1A90
1A90
6660
0600
ENDCHAR
STARTCHAR uni2052
ENCODING 8274
SWIDTH 482 0
DWIDTH 8 0
BBX 6 16 1 -4
BITMAP
0050
A0A0
A0D0
01C0
0280
0340
0300
0600
0900
0C00
1800
2400
3000
6000
90D0
D090
ENDCHAR
STARTCHAR uni2057
ENCODING 8279
SWIDTH 727 0
DWIDTH 12 0
BBX 10 5 1 6
BITMAP
299C90
36ACD0
732580
962240
885200
ENDCHAR
STARTCHAR uni205F
ENCODING 8287
SWIDTH 222 0
DWIDTH 4 0
BBX 1 1 0 0
BITMAP
00
ENDCHAR
STARTCHAR uni2061
ENCODING 8289
SWIDTH 0 0
DWIDTH 0 0
BBX 1 1 0 0
BITMAP
00
ENDCHAR
STARTCHAR uni2062
ENCODING 8290
SWIDTH 0 0
DWIDTH 0 0
BBX 1 1 0 0
BITMAP
00
ENDCHAR
STARTCHAR uni2063
ENCODING 8291
SWIDTH 0 0
DWIDTH 0 0
BBX 1 1 0 0
BITMAP
00
ENDCHAR
STARTCHAR uni2064
ENCODING 8292
SWIDTH 0 0
DWIDTH 0 0
BBX 1 1 0 0
BITMAP
00
ENDCHAR
STARTCHAR zerosuperior
ENCODING 8304
SWIDTH 412 0
DWIDTH 7 0
BBX 6 7 0 4
BITMAP
1A80
3060
6070
A030
6070
3060
1A80
ENDCHAR
STARTCHAR uni2071
ENCODING 8305
SWIDTH 245 0
DWIDTH 4 0
BBX 4 8 0 4
BITMAP
28
14
68
28
28
28
28
7D
ENDCHAR
STARTCHAR foursuperior
ENCODING 8308
SWIDTH 403 0
DWIDTH 6 0
BBX 7 7 0 4
BITMAP
01C0
06C0
15C0
61C0
BFF4
01C0
01C0
ENDCHAR
STARTCHAR fivesuperior
ENCODING 8309
SWIDTH 358 0
DWIDTH 6 0
BBX 5 7 0 4
BITMAP
2FC0
2000
3E40
01C0
00C0
0080
7A00
ENDCHAR
STARTCHAR sixsuperior
ENCODING 8310
SWIDTH 390 0
DWIDTH 6 0
BBX 6 7 0 4
BITMAP
0640
2800
7A80
70A0
6060
70A0
1A80
ENDCHAR
STARTCHAR sevensuperior
ENCODING 8311
SWIDTH 364 0
DWIDTH 6 0
BBX 6 7 0 4
BITMAP
7FD0
5080
0080
0240
0200
0900
0C00
ENDCHAR
STARTCHAR eightsuperior
ENCODING 8312
SWIDTH 374 0
DWIDTH 6 0
BBX 6 7 0 4
BITMAP
2580
6090
3980
1A40
60D0
6090
2580
ENDCHAR
STARTCHAR ninesuperior
ENCODING 8313
SWIDTH 390 0
DWIDTH 6 0
BBX 6 7 0 4
BITMAP
2980
6090
60A0
2AA0
00D0
0280
2A00
ENDCHAR
STARTCHAR uni207A
ENCODING 8314
SWIDTH 536 0
DWIDTH 9 0
BBX 8 7 0 4
BITMAP
0180
0180
0180
6BEA
0180
0180
0180
ENDCHAR
STARTCHAR uni207B
ENCODING 8315
SWIDTH 536 0
DWIDTH 9 0
BBX 8 1 0 7
BITMAP
6AAA
ENDCHAR
STARTCHAR uni207C
ENCODING 8316
SWIDTH 534 0
DWIDTH 9 0
BBX 8 4 0 5
BITMAP
7FFE
0000
0000
7FFE
ENDCHAR
STARTCHAR parenleftsuperior
ENCODING 8317
SWIDTH 268 0
DWIDTH 4 0
BBX 4 11 0 2
BITMAP
05
14
30
60
A0
A0
60
60
24
08
01
ENDCHAR
STARTCHAR parenrightsuperior
ENCODING 8318
SWIDTH 268 0
DWIDTH 4 0
BBX 4 11 0 2
BITMAP
60
18
09
06
06
07
06
09
08
24
50
ENDCHAR
STARTCHAR nsuperior
ENCODING 8319
SWIDTH 491 0
DWIDTH 8 0
BBX 8 6 0 4
BITMAP
7AE0
2834
2824
2828
2828
7979
ENDCHAR
STARTCHAR zeroinferior
ENCODING 8320
SWIDTH 412 0
DWIDTH 7 0
BBX 6 7 0 -4
BITMAP
1A80
3060
6070
A030
6070
3060
1A80
ENDCHAR
STARTCHAR oneinferior
ENCODING 8321
SWIDTH 333 0
DWIDTH 5 0
BBX 4 7 1 -4
BITMAP
B4
24
24
24
24
24
79
ENDCHAR
STARTCHAR twoinferior
ENCODING 8322
SWIDTH 373 0
DWIDTH 6 0
BBX 6 7 0 -4
BITMAP
2F80
41D0
00C0
0140
0500
2410
7FD0
ENDCHAR
STARTCHAR threeinferior
ENCODING 8323
SWIDTH 374 0
DWIDTH 6 0
BBX 6 7 0 -4
BITMAP
2F80
0180
0B40
01D0
0090
00C0
7A40
ENDCHAR
STARTCHAR fourinferior
ENCODING 8324
SWIDTH 403 0
DWIDTH 6 0
BBX 7 7 0 -4
BITMAP
01C0
06C0
15C0
61C0
BFF4
01C0
01C0
ENDCHAR
STARTCHAR fiveinferior
ENCODING 8325
SWIDTH 358 0
DWIDTH 6 0
BBX 5 7 0 -4
BITMAP
2FC0
2000
3E40
01C0
00C0
0080
7A00
ENDCHAR
STARTCHAR sixinferior
ENCODING 8326
SWIDTH 390 0
DWIDTH 6 0
BBX 6 7 0 -4
BITMAP
0640
2800
7A80
70A0
6060
70A0
1A80
ENDCHAR
STARTCHAR seveninferior
ENCODING 8327
SWIDTH 364 0
DWIDTH 6 0
BBX 6 7 0 -4
BITMAP
7FD0
5080
0080
0240
0200
0900
0C00
ENDCHAR
STARTCHAR eightinferior
ENCODING 8328
SWIDTH 374 0
DWIDTH 6 0
BBX 6 7 0 -4
BITMAP
2580
6090
3980
1A40
60D0
6090
2580
ENDCHAR
STARTCHAR nineinferior
ENCODING 8329
SWIDTH 390 0
DWIDTH 6 0
BBX 6 7 0 -4
BITMAP
2980
6090
60A0
2AA0
00D0
0280
2A00
ENDCHAR
STARTCHAR uni208A
ENCODING 8330
SWIDTH 536 0
DWIDTH 9 0
BBX 8 7 0 -4
BITMAP
0180
0180
0180
6BEA
0180
0180
0180
ENDCHAR
STARTCHAR uni208B
ENCODING 8331
SWIDTH 536 0
DWIDTH 9 0
BBX 8 1 0 -1
BITMAP
6AAA
ENDCHAR
STARTCHAR uni208C
ENCODING 8332
SWIDTH 534 0
DWIDTH 9 0
BBX 8 4 0 -3
BITMAP
7FFE
0000
0000
7FFE
ENDCHAR
STARTCHAR parenleftinferior
ENCODING 8333
SWIDTH 268 0
DWIDTH 4 0
BBX 4 11 0 -6
BITMAP
05
14
30
60
A0
A0
60
60
24
08
01
ENDCHAR
STARTCHAR parenrightinferior
ENCODING 8334
SWIDTH 268 0
DWIDTH 4 0
BBX 4 11 0 -6
BITMAP
60
18
09
06
06
07
06
09
08
24
50
ENDCHAR
STARTCHAR uni20A3
ENCODING 8355
SWIDTH 495 0
DWIDTH 8 0
BBX 8 11 0 0
BITMAP
6EAD
1D0A
1D02
1D01
1D00
6EA0
6EA0
1D00
1D00
1D00
7F80
ENDCHAR
STARTCHAR uni20A4
ENCODING 8356
SWIDTH 495 0
DWIDTH 8 0
BBX 8 11 0 0
BITMAP
01B8
061D
0A00
0A00
2FA0
0A00
2FA0
0600
0600
6A01
AAA8
ENDCHAR
STARTCHAR uni20A7
ENCODING 8359
SWIDTH 1193 0
DWIDTH 19 0
BBX 19 11 0 0
BITMAP
2FA8000000
0D0B080000
0D075C0000
0D076E8AA4
0D0A1C1C24
0FA41C1D14
0D001C0B80
0D001C01F0
0D001C1028
0E001C5828
7F800A5AA0
ENDCHAR
STARTCHAR uni20AB
ENCODING 8363
SWIDTH 495 0
DWIDTH 8 0
BBX 8 11 0 0
BITMAP
0074
0074
06B9
0AB4
2434
7034
7034
7034
3434
1A68
2AA4
ENDCHAR
STARTCHAR Euro
ENCODING 8364
SWIDTH 495 0
DWIDTH 8 0
BBX 8 11 0 0
BITMAP
02AA
0D09
1C05
2800
BEA0
3400
BE90
2800
2C00
0D01
06A4
ENDCHAR
STARTCHAR uni20B9
ENCODING 8377
SWIDTH 495 0
DWIDTH 8 0
BBX 7 11 1 0
BITMAP
AEA0
0780
02C0
AAE0
0280
B900
1D00
0B00
0380
01D0
00A8
ENDCHAR
STARTCHAR uni20BA
ENCODING 8378
SWIDTH 495 0
DWIDTH 8 0
BBX 8 11 0 0
BITMAP
BF40
1D00
1C00
1D40
6E40
5D50
6E40
5C0A
1C0E
1C1D
7EA4
ENDCHAR
STARTCHAR uni20BD
ENCODING 8381
SWIDTH 495 0
DWIDTH 8 0
BBX 8 11 0 0
BITMAP
6EA4
1D2D
1D0D
1D0D
1D2C
6EA0
1D00
6EA0
1D00
1D00
7F80
ENDCHAR
STARTCHAR uni20D0
ENCODING 8400
SWIDTH 0 0
DWIDTH 0 0
BBX 7 3 -7 11
BITMAP
1000
6000
EAA4
ENDCHAR
STARTCHAR uni20D1
ENCODING 8401
SWIDTH 0 0
DWIDTH 0 0
BBX 7 3 -7 11
BITMAP
0040
0020
AAB8
ENDCHAR
STARTCHAR uni20D2
ENCODING 8402
SWIDTH 0 0
DWIDTH 0 0
BBX 1 14 -4 -3
BITMAP
80
80
80
80
80
80
80
80
80
80
80
80
80
80
ENDCHAR
STARTCHAR uni20D3
ENCODING 8403
SWIDTH 0 0
DWIDTH 0 0
BBX 1 11 -4 -3
BITMAP
80
80
80
80
80
80
80
80
80
80
80
ENDCHAR
STARTCHAR uni20D4
ENCODING 8404
SWIDTH 0 0
DWIDTH 0 0
BBX 9 5 -9 8
BITMAP
01A800
460200
580080
390080
100000
ENDCHAR
STARTCHAR uni20D5
ENCODING 8405
SWIDTH 0 0
DWIDTH 0 0
BBX 8 4 -7 9
BITMAP
1A80
6020
800A
406D
ENDCHAR
STARTCHAR uni20D6
ENCODING 8406
SWIDTH 0 0
DWIDTH 0 0
BBX 7 5 -7 9
BITMAP
1000
5000
FAA4
5000
1000
ENDCHAR
STARTCHAR uni20D7
ENCODING 8407
SWIDTH 0 0
DWIDTH 0 0
BBX 7 5 -7 9
BITMAP
0040
0020
AAB8
0020
0040
ENDCHAR
STARTCHAR uni20D8
ENCODING 8408
SWIDTH 0 0
DWIDTH 0 0
BBX 5 5 -6 2
BITMAP
2E00
D280
8180
D280
6E00
ENDCHAR
STARTCHAR uni20D9
ENCODING 8409
SWIDTH 0 0
DWIDTH 0 0
BBX 6 5 -6 2
BITMAP
2E00
92D0
8180
D280
2E00
ENDCHAR
STARTCHAR uni20DA
ENCODING 8410
SWIDTH 0 0
DWIDTH 0 0
BBX 6 5 -6 2
BITMAP
2E00
D280
8180
92D0
2E00
ENDCHAR
STARTCHAR uni20DB
ENCODING 8411
SWIDTH 0 0
DWIDTH 0 0
BBX 9 2 -8 9
BITMAP
504200
A1C340
ENDCHAR
STARTCHAR uni20DC
ENCODING 8412
SWIDTH 0 0
DWIDTH 0 0
BBX 12 2 -10 9
BITMAP
204145
70D286
ENDCHAR
STARTCHAR uni20DD
ENCODING 8413
SWIDTH 0 0
DWIDTH 0 0
BBX 16 15 -12 -3
BITMAP
001BF900
01E51B80
074000B0
1D000028
2400000D
30000006
60000003
60000003
60000003
30000006
24000009
1C00001C
0B000074
01E406D0
002FF900
ENDCHAR
STARTCHAR uni20DE
ENCODING 8414
SWIDTH 0 0
DWIDTH 0 0
BBX 17 16 -12 -3
BITMAP
BFFFFFFF00
A000000340
A000000340
A000000340
A000000340
A000000340
A000000340
A000000340
A000000340
A000000340
A000000340
A000000340
A000000340
A000000340
A000000340
BFFFFFFF40
ENDCHAR
STARTCHAR uni20DF
ENCODING 8415
SWIDTH 0 0
DWIDTH 0 0
BBX 19 20 -13 -6
BITMAP
0000200000
0000F80000
00038A0000
000E028000
003800A000
00E0002800
0380000A00
0E00000280
38000000A0
E000000028
A000000074
28000001D0
0A00000740
0280001D00
00A0007400
002801D000
000A074000
00029D0000
0000B40000
0000100000
ENDCHAR
STARTCHAR uni20E1
ENCODING 8417
SWIDTH 0 0
DWIDTH 0 0
BBX 8 5 -8 9
BITMAP
0404
2409
7AAF
2409
0404
ENDCHAR
STARTCHAR uni20E4
ENCODING 8420
SWIDTH 0 0
DWIDTH 0 0
BBX 24 19 -16 -2
BITMAP
000001800000
000002D00000
000007A00000
00000D340000
0000281C0000
0000740A0000
0000E0074000
0002C002C000
00034000E000
000A00007400
001C00002800
003800000D00
00B000000700
01D000000280
0280000000D0
070000000070
0D0000000028
28000000001D
7FFFFFFFFFFF
ENDCHAR
STARTCHAR uni20E5
ENCODING 8421
SWIDTH 0 0
DWIDTH 0 0
BBX 7 14 -7 -3
BITMAP
4000
5000
2000
2400
1800
0800
0500
0200
0240
0180
0080
0060
0030
0024
ENDCHAR
STARTCHAR uni20E6
ENCODING 8422
SWIDTH 0 0
DWIDTH 0 0
BBX 5 14 -6 -3
BITMAP
4100
9240
9240
9240
9240
9240
9240
9240
9240
9240
9240
9240
9240
9240
ENDCHAR
STARTCHAR uni20E7
ENCODING 8423
SWIDTH 0 0
DWIDTH 0 0
BBX 14 15 -10 -3
BITMAP
FFFFFFD0
00000090
00000090
00000090
00000090
00000090
00000090
00000090
00000090
00000090
00000090
00000090
00000090
00000090
00000050
ENDCHAR
STARTCHAR uni20E8
ENCODING 8424
SWIDTH 0 0
DWIDTH 0 0
BBX 9 2 -8 -4
BITMAP
504100
A1C340
ENDCHAR
STARTCHAR uni20E9
ENCODING 8425
SWIDTH 0 0
DWIDTH 0 0
BBX 9 3 -8 8
BITMAP
FFFF80
C00180
400040
ENDCHAR
STARTCHAR uni20EA
ENCODING 8426
SWIDTH 0 0
DWIDTH 0 0
BBX 14 5 -11 2
BITMAP
02000000
09000000
7FFFFFD0
1D000000
02000000
ENDCHAR
STARTCHAR uni20EB
ENCODING 8427
SWIDTH 0 0
DWIDTH 0 0
BBX 11 16 -9 -4
BITMAP
000924
000820
001860
002080
006180
009240
008200
014500
020800
061800
092400
082000
145000
208000
618000
924000
ENDCHAR
STARTCHAR uni20EC
ENCODING 8428
SWIDTH 0 0
DWIDTH 0 0
BBX 7 3 -7 -5
BITMAP
AAB8
0020
0040
ENDCHAR
STARTCHAR uni20ED
ENCODING 8429
SWIDTH 0 0
DWIDTH 0 0
BBX 7 3 -7 -5
BITMAP
EAA4
6000
1000
ENDCHAR
STARTCHAR uni20EE
ENCODING 8430
SWIDTH 0 0
DWIDTH 0 0
BBX 7 5 -7 -5
BITMAP
1000
5000
FAA4
5000
1000
ENDCHAR
STARTCHAR uni20EF
ENCODING 8431
SWIDTH 0 0
DWIDTH 0 0
BBX 7 5 -7 -5
BITMAP
0040
0020
AAB8
0020
0040
ENDCHAR
STARTCHAR uni20F0
ENCODING 8432
SWIDTH 0 0
DWIDTH 0 0
BBX 5 5 -6 8
BITMAP
0800
9A40
2900
9A40
0800
ENDCHAR
STARTCHAR uni2100
ENCODING 8448
SWIDTH 939 0
DWIDTH 15 0
BBX 15 11 0 0
BITMAP
16400200
30C00900
00D01800
19D02000
30D05190
70D08834
29A21814
00061800
00081800
00240D14
006007E0
ENDCHAR
STARTCHAR uni2101
ENCODING 8449
SWIDTH 936 0
DWIDTH 15 0
BBX 15 12 0 0
BITMAP
00000200
16400500
30C00800
01D02400
19D06000
70D086A0
70D14C20
29A60E40
000902E0
00080474
00200824
00500A90
ENDCHAR
STARTCHAR uni2102
ENCODING 8450
SWIDTH 695 0
DWIDTH 11 0
BBX 11 11 0 0
BITMAP
01AA40
0A00A0
190014
250000
650000
550000
650000
250000
190014
0A00A0
01AA40
ENDCHAR
STARTCHAR uni2103
ENCODING 8451
SWIDTH 1028 0
DWIDTH 16 0
BBX 15 11 1 0
BITMAP
6A00ABF4
C2438074
818B0024
C24D0014
6A1D0000
001D0000
001D0000
001D0000
000B0000
00038014
0000BA90
ENDCHAR
STARTCHAR uni2104
ENCODING 8452
SWIDTH 646 0
DWIDTH 10 0
BBX 10 11 0 0
BITMAP
1AA000
038000
0BE400
379400
738000
B38000
738000
3BA410
079020
0380A0
1AAA90
ENDCHAR
STARTCHAR uni2105
ENCODING 8453
SWIDTH 953 0
DWIDTH 15 0
BBX 15 12 0 0
BITMAP
00000400
0A801800
20A02000
60005000
60008000
70024A90
34562430
1F887024
00147028
00203024
00902430
00800A90
ENDCHAR
STARTCHAR uni2106
ENCODING 8454
SWIDTH 1072 0
DWIDTH 17 0
BBX 17 11 0 0
BITMAP
0680090000
24A0180000
3010200000
6000500000
7000810000
38124A1A00
1F86060600
0008060600
0024060600
0020070A00
008002A640
ENDCHAR
STARTCHAR uni2107
ENCODING 8455
SWIDTH 612 0
DWIDTH 10 0
BBX 9 12 0 0
BITMAP
06A940
1E02C0
380080
380040
1D0000
07E400
2D0000
780000
B40040
7801C0
2D0780
06A900
ENDCHAR
STARTCHAR uni2108
ENCODING 8456
SWIDTH 669 0
DWIDTH 11 0
BBX 9 11 1 0
BITMAP
AAA400
E01E00
C00740
410380
020380
02ABC0
020380
000380
400B00
902D00
1BE400
ENDCHAR
STARTCHAR uni2109
ENCODING 8457
SWIDTH 949 0
DWIDTH 15 0
BBX 14 11 1 0
BITMAP
6A1BEAF0
C2434020
81834010
C2434080
6A034180
0003EB80
00034180
00034000
00034000
00074000
001FE000
ENDCHAR
STARTCHAR uni210A
ENCODING 8458
SWIDTH 657 0
DWIDTH 11 0
BBX 11 11 -1 -4
BITMAP
000BE0
0020B0
00D090
02C0D0
0A82E8
62CAC0
01F580
060280
0C0300
0D0900
06A400
ENDCHAR
STARTCHAR uni210B
ENCODING 8459
SWIDTH 951 0
DWIDTH 15 0
BBX 16 11 0 0
BITMAP
005B402D
060A0085
0C0D0200
1C0D0200
041C0500
002EAD00
00280C00
00341C00
00601C00
A0801C50
69000A40
ENDCHAR
STARTCHAR uni210C
ENCODING 8460
SWIDTH 728 0
DWIDTH 12 0
BBX 10 14 1 -3
BITMAP
019600
06FC00
185000
280900
2C7F80
2E42D0
0F40E0
0780F0
1280A0
BA00E0
6C01C0
000240
0BD900
19B400
ENDCHAR
STARTCHAR uni210D
ENCODING 8461
SWIDTH 715 0
DWIDTH 11 0
BBX 10 11 1 0
BITMAP
A80690
880550
880550
880550
880550
8EA950
880550
880550
880550
880550
A80690
ENDCHAR
STARTCHAR uni210E
ENCODING 8462
SWIDTH 569 0
DWIDTH 9 0
BBX 8 12 1 0
BITMAP
1400
1D00
1C00
1800
2878
366C
351C
7828
B034
A034
D071
D078
ENDCHAR
STARTCHAR uni210F
ENCODING 8463
SWIDTH 569 0
DWIDTH 9 0
BBX 8 12 1 0
BITMAP
1400
1D00
1D90
6D00
6878
366C
351C
7828
B034
A034
D071
D078
ENDCHAR
STARTCHAR uni2110
ENCODING 8464
SWIDTH 496 0
DWIDTH 8 0
BBX 8 11 0 0
BITMAP
006A
090D
181C
181C
0028
0028
0034
0070
0090
A180
6900
ENDCHAR
STARTCHAR uni2111
ENCODING 8465
SWIDTH 673 0
DWIDTH 11 0
BBX 10 12 0 -1
BITMAP
019000
0FF920
282FD0
240540
180290
054700
000B40
0007C0
1E02D0
5B41D0
02C280
00A900
ENDCHAR
STARTCHAR uni2112
ENCODING 8466
SWIDTH 699 0
DWIDTH 11 0
BBX 10 12 0 -1
BITMAP
001A80
0061D0
00D040
01C000
028000
034000
070000
090010
290020
ABD090
807F80
000400
ENDCHAR
STARTCHAR uni2113
ENCODING 8467
SWIDTH 529 0
DWIDTH 8 0
BBX 8 11 0 0
BITMAP
001A
0062
0182
0242
0708
0A50
5D00
2800
2420
2480
1A00
ENDCHAR
STARTCHAR uni2114
ENCODING 8468
SWIDTH 787 0
DWIDTH 13 0
BBX 12 12 0 0
BITMAP
181800
6C6C00
6EAE90
1C1C00
1C1DB8
1C1E5E
1C1C0B
1C1C07
1C1C07
1C1C0A
1C1C0C
6A0AA0
ENDCHAR
STARTCHAR uni2115
ENCODING 8469
SWIDTH 692 0
DWIDTH 11 0
BBX 9 11 1 0
BITMAP
A40080
890080
E20080
A58080
885080
822480
814880
809680
8021C0
801880
800680
ENDCHAR
STARTCHAR uni2116
ENCODING 8470
SWIDTH 1070 0
DWIDTH 17 0
BBX 17 11 0 0
BITMAP
0A8006D000
03D008E000
02F0140000
0274242900
021C24C240
020A25C280
020765C280
0202E4C240
0200F42900
A200740000
B80024AA40
ENDCHAR
STARTCHAR uni2117
ENCODING 8471
SWIDTH 781 0
DWIDTH 13 0
BBX 11 12 1 0
BITMAP
019900
180180
200060
82A820
828614
828608
82A408
828014
869020
200020
180180
01A900
ENDCHAR
STARTCHAR uni2118
ENCODING 8472
SWIDTH 846 0
DWIDTH 14 0
BBX 12 13 1 -4
BITMAP
069000
2D1000
7001A8
E01D0B
D0B407
D2D00B
A7400A
2E0D1C
2E8C24
34C550
71C000
724000
290000
ENDCHAR
STARTCHAR uni2119
ENCODING 8473
SWIDTH 665 0
DWIDTH 11 0
BBX 9 11 1 0
BITMAP
AAA900
880A40
880880
880880
880880
880A40
8EA900
880000
880000
880000
A80000
ENDCHAR
STARTCHAR uni211A
ENCODING 8474
SWIDTH 751 0
DWIDTH 12 0
BBX 12 12 0 -1
BITMAP
01AA40
0A00A0
190074
250058
650059
550055
650055
250058
190064
096960
01AA80
000068
ENDCHAR
STARTCHAR uni211B
ENCODING 8475
SWIDTH 789 0
DWIDTH 13 0
BBX 12 11 0 0
BITMAP
005EA0
024D2C
0D1C0D
1C1C1C
002824
003A90
003740
007280
0091D0
9180E5
690064
ENDCHAR
STARTCHAR uni211C
ENCODING 8476
SWIDTH 778 0
DWIDTH 12 0
BBX 12 11 0 0
BITMAP
0682D0
34E9B4
74B074
3D7474
1E7490
097AD0
1471E0
00A0F0
0490F0
1E80F5
2B0078
ENDCHAR
STARTCHAR uni211D
ENCODING 8477
SWIDTH 729 0
DWIDTH 12 0
BBX 10 11 1 0
BITMAP
AAA900
880A40
880880
880880
880880
880A40
8EAD00
889600
882140
880890
A806A0
ENDCHAR
STARTCHAR uni211E
ENCODING 8478
SWIDTH 725 0
DWIDTH 12 0
BBX 11 12 0 -1
BITMAP
6AA900
0D0740
0D02C0
0D0280
0D0740
0EB800
0D2C04
0D0E20
0D07C0
0E03D0
6A49A4
002000
ENDCHAR
STARTCHAR uni211F
ENCODING 8479
SWIDTH 659 0
DWIDTH 11 0
BBX 10 17 1 -4
BITMAP
01A000
011400
AAA400
383D00
386E00
389E00
388E00
39A800
3FD000
3AB000
3D3800
3C1D00
380B00
BA0690
200000
224000
1A0000
ENDCHAR
STARTCHAR uni2120
ENCODING 8480
SWIDTH 937 0
DWIDTH 15 0
BBX 14 7 0 4
BITMAP
2A8A00A0
608781E0
3406C290
1B459690
41C57890
50C52890
6A4A15A0
ENDCHAR
STARTCHAR uni2121
ENCODING 8481
SWIDTH 1200 0
DWIDTH 19 0
BBX 19 7 0 4
BITMAP
6AA6AA5A00
4611814D00
0601850900
0601E90900
0601804904
0701814D08
0A42AA5AA4
ENDCHAR
STARTCHAR trademark
ENCODING 8482
SWIDTH 881 0
DWIDTH 14 0
BBX 14 6 0 5
BITMAP
6A964190
491382C0
0901C5C0
0901A8C0
090134C0
0A061190
ENDCHAR
STARTCHAR uni2123
ENCODING 8483
SWIDTH 680 0
DWIDTH 11 0
BBX 11 17 0 -4
BITMAP
006800
004500
AA05A8
3C0860
1D1890
0E20C0
0B6180
07D200
02C200
01D500
02E800
06B800
083000
081000
080000
08D000
068000
ENDCHAR
STARTCHAR uni2124
ENCODING 8484
SWIDTH 648 0
DWIDTH 10 0
BBX 10 11 0 0
BITMAP
2AAAA0
000960
001880
002240
008500
014800
062000
089000
258000
620000
AAAAA0
ENDCHAR
STARTCHAR uni2125
ENCODING 8485
SWIDTH 434 0
DWIDTH 7 0
BBX 7 15 0 -4
BITMAP
6AA0
51D0
0740
0E00
2AA0
01D0
0740
0A80
00A0
0074
0034
0074
0070
60D0
2A00
ENDCHAR
STARTCHAR uni2126
ENCODING 8486
SWIDTH 763 0
DWIDTH 12 0
BBX 12 12 0 -1
BITMAP
01AA40
0B40A0
1D0038
3C002C
38002D
38002D
3C003C
1E0074
0741D0
508202
BFC3FE
154155
ENDCHAR
STARTCHAR uni2127
ENCODING 8487
SWIDTH 763 0
DWIDTH 12 0
BBX 12 11 0 0
BITMAP
BFC3FE
558256
468291
1E0074
2C003C
38002D
38002D
3C002C
1D0038
0B40E0
01AA40
ENDCHAR
STARTCHAR uni2128
ENCODING 8488
SWIDTH 641 0
DWIDTH 10 0
BBX 9 14 1 -3
BITMAP
06A400
141E00
100B00
400B40
000B00
051D00
02F400
055D00
000B40
000740
780740
AD0740
0E0A00
06A400
ENDCHAR
STARTCHAR uni2129
ENCODING 8489
SWIDTH 368 0
DWIDTH 6 0
BBX 5 8 0 0
BITMAP
2E00
4B40
0B80
0B80
0B80
0B80
0B80
0740
ENDCHAR
STARTCHAR uni212A
ENCODING 8490
SWIDTH 702 0
DWIDTH 11 0
BBX 11 11 0 0
BITMAP
7F87F4
0E0280
0E0600
0E1800
0E5000
0FD000
0EB400
0E2D00
0E0B40
0E02D0
7F87FC
ENDCHAR
STARTCHAR uni212B
ENCODING 8491
SWIDTH 722 0
DWIDTH 12 0
BBX 12 14 0 0
BITMAP
006800
008500
009800
003400
007800
009D00
008E00
024B00
020340
06ABC0
0801D0
1800E0
2400B4
A901A9
ENDCHAR
STARTCHAR uni212C
ENCODING 8492
SWIDTH 754 0
DWIDTH 12 0
BBX 11 11 1 0
BITMAP
017A90
0970B0
34B074
B0A070
50E180
00EB80
01C0A0
0240B0
0600A0
180280
FFF900
ENDCHAR
STARTCHAR uni212D
ENCODING 8493
SWIDTH 639 0
DWIDTH 10 0
BBX 10 12 0 -1
BITMAP
069650
1D1BC0
286100
38B000
747800
742D00
780E00
3C0D00
2D6440
1F4640
07FD00
005000
ENDCHAR
STARTCHAR estimated
ENCODING 8494
SWIDTH 863 0
DWIDTH 14 0
BBX 13 12 0 -1
BITMAP
006A9000
06401800
1C000700
2C000380
7C0003C0
7EAAAA80
7C000000
7C000000
2C000000
1D000600
06401800
006A9000
ENDCHAR
STARTCHAR uni212F
ENCODING 8495
SWIDTH 527 0
DWIDTH 8 0
BBX 8 8 0 0
BITMAP
00A8
024D
0A1C
1CA0
2E40
B805
1C28
0B90
ENDCHAR
STARTCHAR uni2130
ENCODING 8496
SWIDTH 572 0
DWIDTH 9 0
BBX 9 11 0 0
BITMAP
00AA40
0742C0
070140
034000
01E400
1D0000
340000
700000
740600
380D00
0AA000
ENDCHAR
STARTCHAR uni2131
ENCODING 8497
SWIDTH 713 0
DWIDTH 11 0
BBX 13 11 0 0
BITMAP
006B9140
06476E00
0D0A0000
1D0A0000
040D0000
00AE9000
001C0000
00280000
00300000
90900000
69000000
ENDCHAR
STARTCHAR uni2132
ENCODING 8498
SWIDTH 588 0
DWIDTH 9 0
BBX 9 11 0 0
BITMAP
006A40
001D00
001D00
001D00
141D00
1EAD00
141D00
101D00
401D00
901D00
AAAA40
ENDCHAR
STARTCHAR uni2133
ENCODING 8499
SWIDTH 1038 0
DWIDTH 17 0
BBX 17 11 0 0
BITMAP
02E4001AC0
087C00B840
002D01B400
006A067000
005708B000
008724A000
008360D000
008390D000
014381C000
D20341D500
A80200A400
ENDCHAR
STARTCHAR uni2134
ENCODING 8500
SWIDTH 691 0
DWIDTH 11 0
BBX 12 8 -1 0
BITMAP
000A80
0024E1
00A0B9
01C070
06C0A0
15C0D0
50D280
006900
ENDCHAR
STARTCHAR uni2135
ENCODING 8501
SWIDTH 698 0
DWIDTH 11 0
BBX 11 11 0 0
BITMAP
600240
3801E0
1F00B4
0BC0A4
1DF540
387E40
381F40
2D03D0
0F00B0
074034
190010
ENDCHAR
STARTCHAR uni2136
ENCODING 8502
SWIDTH 654 0
DWIDTH 10 0
BBX 9 12 1 -1
BITMAP
500000
BAF800
7FBD00
000A00
000600
000600
000600
000500
000400
1AAE40
BFFE00
400000
ENDCHAR
STARTCHAR uni2137
ENCODING 8503
SWIDTH 517 0
DWIDTH 8 0
BBX 7 11 1 0
BITMAP
2400
2E80
1FC0
00C0
0080
0080
0080
01D0
02B4
2E78
F814
ENDCHAR
STARTCHAR uni2138
ENCODING 8504
SWIDTH 613 0
DWIDTH 10 0
BBX 7 11 1 0
BITMAP
8000
EBF8
BFAC
0018
0030
0070
0074
0074
0078
0038
0070
ENDCHAR
STARTCHAR uni2139
ENCODING 8505
SWIDTH 361 0
DWIDTH 6 0
BBX 6 11 0 0
BITMAP
1F00
2F40
1F00
1600
7F40
2F40
2F40
2F40
2F40
2F40
6A90
ENDCHAR
STARTCHAR uni213A
ENCODING 8506
SWIDTH 907 0
DWIDTH 15 0
BBX 15 10 0 0
BITMAP
01BF8014
0FAAF420
28001C70
300006E0
60000780
60000600
30000900
28001C00
0BAAF400
01BF9000
ENDCHAR
STARTCHAR uni213B
ENCODING 8507
SWIDTH 1216 0
DWIDTH 19 0
BBX 19 7 0 4
BITMAP
6AA0502928
2810B00D20
2841740780
2AC2180280
2806AD05D0
28080A1870
69190A6468
ENDCHAR
STARTCHAR uni213C
ENCODING 8508
SWIDTH 689 0
DWIDTH 11 0
BBX 11 8 0 0
BITMAP
6AAAA0
096600
096600
096600
096600
095600
095A24
0A4690
ENDCHAR
STARTCHAR uni213D
ENCODING 8509
SWIDTH 552 0
DWIDTH 9 0
BBX 9 11 0 -4
BITMAP
680140
560600
254800
08A400
027000
016400
00D800
029800
026800
026800
00A000
ENDCHAR
STARTCHAR uni213E
ENCODING 8510
SWIDTH 550 0
DWIDTH 9 0
BBX 8 11 1 0
BITMAP
AAA9
8800
8800
8800
8800
8800
8800
8800
8800
8800
A800
ENDCHAR
STARTCHAR uni213F
ENCODING 8511
SWIDTH 714 0
DWIDTH 11 0
BBX 10 11 1 0
BITMAP
AAAA90
880550
880550
880550
880550
880550
880550
880550
880550
880550
A80690
ENDCHAR
STARTCHAR uni2140
ENCODING 8512
SWIDTH 945 0
DWIDTH 15 0
BBX 14 17 1 -4
BITMAP
FFFFFE00
91800000
30900000
18300000
09180000
07090000
02470000
00C24000
00A0C000
00C24000
02470000
07090000
09180000
18300000
30900000
91800000
FFFFFFD0
ENDCHAR
STARTCHAR uni2141
ENCODING 8513
SWIDTH 711 0
DWIDTH 11 0
BBX 10 12 1 -1
BITMAP
2FF800
F55F40
E002C0
E000E0
E000A0
FC00B0
5400B0
0000E0
8002C0
B41B40
1FF900
004000
ENDCHAR
STARTCHAR uni2142
ENCODING 8514
SWIDTH 572 0
DWIDTH 9 0
BBX 8 11 0 0
BITMAP
BFFF
155B
0007
0007
0007
0007
0007
0007
0007
0007
0006
ENDCHAR
STARTCHAR uni2143
ENCODING 8515
SWIDTH 572 0
DWIDTH 9 0
BBX 8 12 0 -1
BITMAP
0006
0007
0007
0007
0007
0007
0007
0007
0007
0007
BFFF
1555
ENDCHAR
STARTCHAR uni2144
ENCODING 8516
SWIDTH 645 0
DWIDTH 10 0
BBX 10 11 0 0
BITMAP
00B000
00B000
00B000
00B000
00B000
00F400
02EC00
074E00
0E0740
2C02C0
7400E0
ENDCHAR
STARTCHAR uni2145
ENCODING 8517
SWIDTH 717 0
DWIDTH 11 0
BBX 11 11 0 0
BITMAP
0AAA40
088060
088064
154058
160088
220088
220098
260164
5502A0
980780
AAA900
ENDCHAR
STARTCHAR uni2146
ENCODING 8518
SWIDTH 607 0
DWIDTH 10 0
BBX 10 12 0 0
BITMAP
0001A0
000220
000220
000250
069590
1A1D80
250C80
550880
981940
582640
287200
1A6A00
ENDCHAR
STARTCHAR uni2147
ENCODING 8519
SWIDTH 520 0
DWIDTH 8 0
BBX 8 8 0 0
BITMAP
06A4
1E1D
2526
5922
9AA9
5800
2818
0A90
ENDCHAR
STARTCHAR uni2148
ENCODING 8520
SWIDTH 285 0
DWIDTH 5 0
BBX 5 11 0 0
BITMAP
0A80
0A40
0000
1A00
2200
2200
2500
6500
5800
8800
A800
ENDCHAR
STARTCHAR uni2149
ENCODING 8521
SWIDTH 284 0
DWIDTH 5 0
BBX 8 15 -3 -4
BITMAP
002A
0022
0029
0000
0068
0088
0088
0094
0164
0260
0220
0220
0250
0680
6900
ENDCHAR
STARTCHAR uni214A
ENCODING 8522
SWIDTH 680 0
DWIDTH 11 0
BBX 10 12 0 0
BITMAP
004000
018000
018000
7FFE40
7181D0
618060
618060
1181A0
01FF80
018000
018000
01FFC0
ENDCHAR
STARTCHAR uni214B
ENCODING 8523
SWIDTH 736 0
DWIDTH 12 0
BBX 12 11 0 0
BITMAP
1E46E4
56E42D
00B40D
016C0D
020E28
060790
1A4780
0025C0
0060D0
0020C0
001640
ENDCHAR
STARTCHAR uni214C
ENCODING 8524
SWIDTH 794 0
DWIDTH 13 0
BBX 12 11 0 0
BITMAP
1A01A4
52881E
82880B
46EE4B
1A959E
268478
02EE48
028808
028800
029400
00A000
ENDCHAR
STARTCHAR uni214D
ENCODING 8525
SWIDTH 1010 0
DWIDTH 16 0
BBX 16 12 0 0
BITMAP
00000040
02000080
03800200
08C00500
08900800
1AB025A9
20346245
602982D0
00014078
0002010A
00080209
001402A8
ENDCHAR
STARTCHAR uni214E
ENCODING 8526
SWIDTH 473 0
DWIDTH 8 0
BBX 5 10 1 -1
BITMAP
0040
01C0
01C0
01C0
BFC0
16C0
01C0
01C0
FFC0
5540
ENDCHAR
STARTCHAR uni214F
ENCODING 8527
SWIDTH 1161 0
DWIDTH 19 0
BBX 19 8 0 -1
BITMAP
03D0F43D00
0A729CA700
08320C8300
0922489200
0661886200
03D0F83E00
BEBFEFFBF4
1004010010
ENDCHAR
STARTCHAR onethird
ENCODING 8531
SWIDTH 899 0
DWIDTH 14 0
BBX 13 11 1 0
BITMAP
B4005000
34008000
34020000
34060000
34086E00
34244340
BD600200
00802E00
01400280
02004280
0900AA00
ENDCHAR
STARTCHAR twothirds
ENCODING 8532
SWIDTH 948 0
DWIDTH 15 0
BBX 15 11 0 0
BITMAP
2B400800
40C01800
00D02000
01809000
06018690
18120430
7A950060
000802D0
00240034
00600424
00800EA0
ENDCHAR
STARTCHAR uni2155
ENCODING 8533
SWIDTH 867 0
DWIDTH 14 0
BBX 13 11 1 0
BITMAP
B4005000
34008000
34020000
34060000
34086A00
34248000
BD60A900
00800700
01400240
02000200
0901E900
ENDCHAR
STARTCHAR uni2156
ENCODING 8534
SWIDTH 916 0
DWIDTH 15 0
BBX 14 11 0 0
BITMAP
2B400800
40C01800
00D02000
02809000
0A118AA0
28520800
7AD50A80
00080060
00240030
00600020
00801E80
ENDCHAR
STARTCHAR uni2157
ENCODING 8535
SWIDTH 896 0
DWIDTH 14 0
BBX 14 11 0 0
BITMAP
2B400800
41C02000
02405000
0B808000
00D24A90
10C61400
6A481A80
001400A0
00200060
00901050
01802E80
ENDCHAR
STARTCHAR uni2158
ENCODING 8536
SWIDTH 929 0
DWIDTH 15 0
BBX 15 11 0 0
BITMAP
01800900
06801800
09802000
21805000
7FF087F0
01824800
00460A90
00080070
00240024
00600020
00801E90
ENDCHAR
STARTCHAR uni2159
ENCODING 8537
SWIDTH 871 0
DWIDTH 14 0
BBX 13 11 1 0
BITMAP
B4005000
34008000
34020000
34060000
34082900
34249000
6561A900
00828340
01428240
02018340
0900AA00
ENDCHAR
STARTCHAR uni215A
ENCODING 8538
SWIDTH 871 0
DWIDTH 14 0
BBX 14 11 0 0
BITMAP
2A801400
20002000
2A009000
01818040
00C21A40
51893400
6A086A40
0020A0D0
0050A090
008060D0
02402A80
ENDCHAR
STARTCHAR oneeighth
ENCODING 8539
SWIDTH 887 0
DWIDTH 14 0
BBX 13 11 1 0
BITMAP
B4005000
34008000
34020000
34060000
34086A00
3424C240
BD60D200
00802D00
01408240
02018280
0900AA00
ENDCHAR
STARTCHAR threeeighths
ENCODING 8540
SWIDTH 911 0
DWIDTH 15 0
BBX 14 11 0 0
BITMAP
2B400800
41C02000
02405000
1B808000
00D24980
10C62460
6A481990
00140A80
00202460
00903470
01801A90
ENDCHAR
STARTCHAR fiveeighths
ENCODING 8541
SWIDTH 891 0
DWIDTH 14 0
BBX 14 11 0 0
BITMAP
2A801400
20002000
2A009000
01C18000
00C21A40
50893090
6A082980
00200B40
00502090
00807060
02402A80
ENDCHAR
STARTCHAR seveneighths
ENCODING 8542
SWIDTH 847 0
DWIDTH 14 0
BBX 13 11 0 0
BITMAP
6AC06000
40808000
02424000
02020000
09086900
0C14C140
1420A240
00902A00
01808280
0200C180
05006A40
ENDCHAR
STARTCHAR uni2190
ENCODING 8592
SWIDTH 948 0
DWIDTH 15 0
BBX 13 6 1 1
BITMAP
02000000
18000000
7FFFFFC0
1C000000
06000000
01000000
ENDCHAR
STARTCHAR uni2191
ENCODING 8593
SWIDTH 523 0
DWIDTH 8 0
BBX 6 14 1 -3
BITMAP
0100
0600
0F40
2B90
9620
0600
0600
0600
0600
0600
0600
0600
0600
0600
ENDCHAR
STARTCHAR uni2192
ENCODING 8594
SWIDTH 948 0
DWIDTH 15 0
BBX 13 7 1 1
BITMAP
00001000
00001400
00000900
BFFFFF80
00000A00
00001400
00001000
ENDCHAR
STARTCHAR uni2193
ENCODING 8595
SWIDTH 523 0
DWIDTH 8 0
BBX 6 14 1 -3
BITMAP
0500
0600
0600
0600
0600
0600
0600
0600
0600
0600
8620
2B90
0B40
0600
ENDCHAR
STARTCHAR uni2194
ENCODING 8596
SWIDTH 948 0
DWIDTH 15 0
BBX 14 7 1 1
BITMAP
01001000
09000800
24000600
FFFFFFD0
24000740
08000800
01001000
ENDCHAR
STARTCHAR uni2195
ENCODING 8597
SWIDTH 523 0
DWIDTH 8 0
BBX 6 16 1 -4
BITMAP
0100
0600
1F80
6660
4610
0600
0600
0600
0600
0600
0600
0600
8620
2B80
0B40
0600
ENDCHAR
STARTCHAR uni2196
ENCODING 8598
SWIDTH 948 0
DWIDTH 15 0
BBX 13 14 1 -3
BITMAP
40000000
BE800000
78000000
5A000000
52800000
40A00000
00280000
000E0000
00034000
0000D000
00007400
00001D00
00000740
00000180
ENDCHAR
STARTCHAR uni2197
ENCODING 8599
SWIDTH 948 0
DWIDTH 15 0
BBX 13 14 1 -3
BITMAP
00000040
00006B80
00000B80
00002940
0000B040
0001C040
00070000
001D0000
00740000
01D00000
07400000
1D000000
34000000
90000000
ENDCHAR
STARTCHAR uni2198
ENCODING 8600
SWIDTH 948 0
DWIDTH 15 0
BBX 13 14 1 -3
BITMAP
90000000
74000000
1D000000
07400000
01D00000
00740000
001D0000
00074000
0001D040
0000B040
00002D40
00000B80
00006B80
00000040
ENDCHAR
STARTCHAR uni2199
ENCODING 8601
SWIDTH 948 0
DWIDTH 15 0
BBX 13 14 1 -3
BITMAP
00000180
00000740
00001D00
00007400
0001D000
00034000
000E0000
00380000
40E00000
52800000
6A000000
78000000
BE800000
40000000
ENDCHAR
STARTCHAR uni219A
ENCODING 8602
SWIDTH 948 0
DWIDTH 15 0
BBX 14 7 1 1
BITMAP
01002000
05006000
18008000
BFFFFFD0
28074000
05090000
01080000
ENDCHAR
STARTCHAR uni219B
ENCODING 8603
SWIDTH 948 0
DWIDTH 15 0
BBX 13 7 1 1
BITMAP
00081000
00181800
00200A00
FFFFFF80
01C00A00
02401400
01001000
ENDCHAR
STARTCHAR uni219C
ENCODING 8604
SWIDTH 948 0
DWIDTH 15 0
BBX 13 6 1 1
BITMAP
41500000
7D400000
3D01BE00
26FE4680
20000000
10000000
ENDCHAR
STARTCHAR uni219D
ENCODING 8605
SWIDTH 948 0
DWIDTH 15 0
BBX 13 6 1 1
BITMAP
00005040
00001B80
2F901F40
A46FE600
00000200
00000100
ENDCHAR
STARTCHAR uni219E
ENCODING 8606
SWIDTH 948 0
DWIDTH 15 0
BBX 13 7 1 1
BITMAP
00010000
02090000
18240000
BFFFFFC0
1C740000
06080000
01010000
ENDCHAR
STARTCHAR uni219F
ENCODING 8607
SWIDTH 523 0
DWIDTH 8 0
BBX 6 14 1 -3
BITMAP
0100
0600
0F40
2790
4610
0B40
2B80
9620
0600
0600
0600
0600
0600
0600
ENDCHAR
STARTCHAR uni21A0
ENCODING 8608
SWIDTH 948 0
DWIDTH 15 0
BBX 13 7 1 1
BITMAP
00101000
00082400
00074900
BFFFFF80
00074A00
00081400
00101000
ENDCHAR
STARTCHAR uni21A1
ENCODING 8609
SWIDTH 523 0
DWIDTH 8 0
BBX 6 14 1 -3
BITMAP
0500
0600
0600
0600
0600
0600
4610
6660
1F80
0B00
9620
2B80
0B40
0600
ENDCHAR
STARTCHAR uni21A2
ENCODING 8610
SWIDTH 948 0
DWIDTH 15 0
BBX 13 7 1 1
BITMAP
00000040
02000140
18000A00
BFFFFD00
1C001900
06000240
01000040
ENDCHAR
STARTCHAR uni21A3
ENCODING 8611
SWIDTH 948 0
DWIDTH 15 0
BBX 13 7 1 1
BITMAP
40001000
60002400
18000900
0FFFFF80
19000A00
20001400
40001000
ENDCHAR
STARTCHAR uni21A4
ENCODING 8612
SWIDTH 948 0
DWIDTH 15 0
BBX 13 7 1 1
BITMAP
01400080
06000080
1C000080
BFFFFFC0
1C000080
06000080
01000040
ENDCHAR
STARTCHAR uni21A5
ENCODING 8613
SWIDTH 523 0
DWIDTH 8 0
BBX 7 14 1 -3
BITMAP
0100
0600
0F40
2790
8620
0600
0600
0600
0600
0600
0600
0600
0600
AFA4
ENDCHAR
STARTCHAR uni21A6
ENCODING 8614
SWIDTH 948 0
DWIDTH 15 0
BBX 13 7 1 1
BITMAP
80001000
80001400
80000900
FFFFFF80
C0000A00
80001400
80001000
ENDCHAR
STARTCHAR uni21A7
ENCODING 8615
SWIDTH 523 0
DWIDTH 8 0
BBX 7 13 1 -2
BITMAP
AFA4
0600
0600
0600
0600
0600
0600
0600
0600
4610
2B90
0F40
0600
ENDCHAR
STARTCHAR uni21A8
ENCODING 8616
SWIDTH 523 0
DWIDTH 8 0
BBX 7 14 1 -3
BITMAP
0100
0600
0F40
2790
8610
0600
0600
0600
0600
9620
2B90
0B40
0600
AAA4
ENDCHAR
STARTCHAR uni21A9
ENCODING 8617
SWIDTH 948 0
DWIDTH 15 0
BBX 13 8 1 1
BITMAP
00007E00
00000680
020000C0
18000280
7FFFFE40
1C000000
06000000
01000000
ENDCHAR
STARTCHAR uni21AA
ENCODING 8618
SWIDTH 948 0
DWIDTH 15 0
BBX 13 8 1 1
BITMAP
2F400000
A4000000
90002000
A0000900
2FFFFF80
00000A00
00001400
00001000
ENDCHAR
STARTCHAR uni21AB
ENCODING 8619
SWIDTH 948 0
DWIDTH 15 0
BBX 13 9 1 0
BITMAP
00006E00
0000D680
020180C0
18018280
7FFFFE40
1C018000
06018000
01018000
00014000
ENDCHAR
STARTCHAR uni21AC
ENCODING 8620
SWIDTH 948 0
DWIDTH 15 0
BBX 13 9 1 0
BITMAP
2E400000
A5D00000
90902000
A0A00900
2FFFFF80
00A00A00
00A01400
00A01000
00500000
ENDCHAR
STARTCHAR uni21AD
ENCODING 8621
SWIDTH 1229 0
DWIDTH 20 0
BBX 18 7 1 1
BITMAP
0100000400
0900A00900
2802640340
BF82187FE0
28A6089340
082C074500
0200000400
ENDCHAR
STARTCHAR uni21AE
ENCODING 8622
SWIDTH 948 0
DWIDTH 15 0
BBX 14 7 1 1
BITMAP
01025000
08020800
24050600
FFFFFFD0
24180740
08240800
01201000
ENDCHAR
STARTCHAR uni21AF
ENCODING 8623
SWIDTH 523 0
DWIDTH 8 0
BBX 6 14 1 -3
BITMAP
0010
0070
01D0
0340
0E00
2800
BFF0
01D0
4280
8700
8D00
B800
BA40
5000
ENDCHAR
STARTCHAR uni21B0
ENCODING 8624
SWIDTH 474 0
DWIDTH 8 0
BBX 7 14 0 -3
BITMAP
0040
0240
0900
7FFC
1D1C
020C
004C
000C
000C
000C
000C
000C
000C
000C
ENDCHAR
STARTCHAR uni21B1
ENCODING 8625
SWIDTH 474 0
DWIDTH 8 0
BBX 7 14 0 -3
BITMAP
0100
0240
0090
7FF8
60E0
6140
6100
6000
6000
6000
6000
6000
6000
6000
ENDCHAR
STARTCHAR uni21B2
ENCODING 8626
SWIDTH 474 0
DWIDTH 8 0
BBX 7 14 0 -3
BITMAP
0018
001C
001C
001C
001C
001C
001C
005C
021C
091C
7FFC
1D00
0200
0040
ENDCHAR
STARTCHAR uni21B3
ENCODING 8627
SWIDTH 474 0
DWIDTH 8 0
BBX 7 14 0 -3
BITMAP
6000
6000
6000
6000
6000
6000
6000
6100
6240
6090
7FF8
00E0
0140
0100
ENDCHAR
STARTCHAR uni21B4
ENCODING 8628
SWIDTH 948 0
DWIDTH 15 0
BBX 13 14 1 -3
BITMAP
BFFFF400
00002400
00002400
00002400
00002400
00002400
00002400
00002400
00002400
00012440
00026640
0000BD00
00003800
00001000
ENDCHAR
STARTCHAR uni21B5
ENCODING 8629
SWIDTH 948 0
DWIDTH 15 0
BBX 13 14 1 -3
BITMAP
000000C0
000000C0
000000C0
000000C0
000000C0
000000C0
000000C0
000000C0
020000C0
180000C0
BFFFFFC0
1C000000
06000000
01000000
ENDCHAR
STARTCHAR uni21B6
ENCODING 8630
SWIDTH 948 0
DWIDTH 15 0
BBX 14 9 1 0
BITMAP
001BE400
00A55E00
02800340
060001C0
49100090
99900050
2F400000
0E000000
04000000
ENDCHAR
STARTCHAR uni21B7
ENCODING 8631
SWIDTH 948 0
DWIDTH 15 0
BBX 13 9 1 0
BITMAP
06F90000
1E46D000
74007000
D0002800
C0011800
40009D80
00003E00
00001D00
00000400
ENDCHAR
STARTCHAR uni21B8
ENCODING 8632
SWIDTH 948 0
DWIDTH 15 0
BBX 13 15 1 -3
BITMAP
FFFFFFC0
50000000
BA800000
B8000000
5A000000
42800000
40E00000
00380000
000E0000
00038000
0000E000
00003800
00000E00
00000380
00000080
ENDCHAR
STARTCHAR uni21B9
ENCODING 8633
SWIDTH 948 0
DWIDTH 15 0
BBX 14 12 1 -2
BITMAP
80400000
82400000
8A000000
EFFFFFD0
8A000000
82400040
40405090
00001890
FFFFFF90
00002890
00002090
00004040
ENDCHAR
STARTCHAR uni21BA
ENCODING 8634
SWIDTH 997 0
DWIDTH 16 0
BBX 12 13 2 -2
BITMAP
000019
0247D0
1E42F4
3800AC
A0008A
D00047
C00003
C00003
D00007
A0000A
34001C
1E41B4
02FF80
ENDCHAR
STARTCHAR uni21BB
ENCODING 8635
SWIDTH 997 0
DWIDTH 16 0
BBX 12 13 2 -2
BITMAP
640000
0BD180
1F80B0
36002C
A20009
D10006
C00003
C00003
D00007
A0000A
34001C
1E41B4
02FF80
ENDCHAR
STARTCHAR uni21BC
ENCODING 8636
SWIDTH 978 0
DWIDTH 16 0
BBX 14 4 1 4
BITMAP
01800000
06000000
1D000000
7FFFFFE0
ENDCHAR
STARTCHAR uni21BD
ENCODING 8637
SWIDTH 978 0
DWIDTH 16 0
BBX 14 5 1 0
BITMAP
BFFFFFE0
1D000000
06000000
01800000
00400000
ENDCHAR
STARTCHAR uni21BE
ENCODING 8638
SWIDTH 523 0
DWIDTH 8 0
BBX 4 13 3 -3
BITMAP
50
70
78
62
60
60
60
60
60
60
60
60
60
ENDCHAR
STARTCHAR uni21BF
ENCODING 8639
SWIDTH 523 0
DWIDTH 8 0
BBX 4 13 1 -3
BITMAP
02
0A
2A
56
06
06
06
06
06
06
06
06
06
ENDCHAR
STARTCHAR uni21C0
ENCODING 8640
SWIDTH 978 0
DWIDTH 16 0
BBX 13 4 1 4
BITMAP
00002000
00001800
00000A00
FFFFFFC0
ENDCHAR
STARTCHAR uni21C1
ENCODING 8641
SWIDTH 978 0
DWIDTH 16 0
BBX 14 5 1 0
BITMAP
FFFFFFD0
00000B40
00000800
00002000
00004000
ENDCHAR
STARTCHAR uni21C2
ENCODING 8642
SWIDTH 523 0
DWIDTH 8 0
BBX 4 14 3 -3
BITMAP
50
60
60
60
60
60
60
60
60
60
66
74
60
40
ENDCHAR
ENDFONT
